Devanagarai Three-UltraLight.ufo
<glyph name="exclam" format="1">
  <advance width="284"/>
  <unicode hex="0021"/>
  <outline>
	<contour>
	  <point x="110" y="151" type="line"/>
	  <point x="110" y="0" type="line"/>
	  <point x="174" y="0" type="line"/>
	  <point x="174" y="151" type="line"/>
	</contour>
	<contour>
	  <point x="106" y="758" type="line"/>
	  <point x="118" y="230" type="line"/>
	  <point x="166" y="230" type="line"/>
	  <point x="178" y="758" type="line"/>
	</contour>
  </outline>
</glyph>
<glyph name="numbersign" format="1">
  <advance width="703"/>
  <unicode hex="0023"/>
  <outline>
	<contour>
	  <point x="242" y="674" type="line"/>
	  <point x="155" y="0" type="line"/>
	  <point x="211" y="0" type="line"/>
	  <point x="298" y="674" type="line"/>
	</contour>
	<contour>
	  <point x="491" y="674" type="line"/>
	  <point x="404" y="0" type="line"/>
	  <point x="460" y="0" type="line"/>
	  <point x="547" y="674" type="line"/>
	</contour>
	<contour>
	  <point x="90" y="437" type="line"/>
	  <point x="642" y="437" type="line"/>
	  <point x="642" y="491" type="line"/>
	  <point x="90" y="491" type="line"/>
	</contour>
	<contour>
	  <point x="60" y="183" type="line"/>
	  <point x="612" y="183" type="line"/>
	  <point x="612" y="237" type="line"/>
	  <point x="60" y="237" type="line"/>
	</contour>
  </outline>
</glyph>
<glyph name="dollar" format="1">
  <advance width="600"/>
  <unicode hex="0024"/>
  <outline>
	<contour>
	  <point x="500" y="287"/>
	  <point x="420" y="326"/>
	  <point x="329" y="351" type="curve" smooth="yes"/>
	  <point x="260" y="370" type="line" smooth="yes"/>
	  <point x="189" y="390"/>
	  <point x="131" y="417"/>
	  <point x="130" y="499" type="curve"/>
	  <point x="130" y="579"/>
	  <point x="174" y="636"/>
	  <point x="275" y="636" type="curve" smooth="yes"/>
	  <point x="350" y="636"/>
	  <point x="404" y="616"/>
	  <point x="463" y="585" type="curve"/>
	  <point x="463" y="641" type="line"/>
	  <point x="401" y="670"/>
	  <point x="354" y="688"/>
	  <point x="275" y="688" type="curve" smooth="yes"/>
	  <point x="148" y="688"/>
	  <point x="72" y="623"/>
	  <point x="72" y="500" type="curve" smooth="yes"/>
	  <point x="72" y="377"/>
	  <point x="156" y="339"/>
	  <point x="239" y="316" type="curve" smooth="yes"/>
	  <point x="307" y="297" type="line" smooth="yes"/>
	  <point x="375" y="278"/>
	  <point x="443" y="248"/>
	  <point x="442" y="167" type="curve" smooth="yes"/>
	  <point x="441" y="93"/>
	  <point x="397" y="35"/>
	  <point x="278" y="35" type="curve" smooth="yes"/>
	  <point x="206" y="35"/>
	  <point x="139" y="50"/>
	  <point x="59" y="92" type="curve"/>
	  <point x="59" y="36" type="line"/>
	  <point x="134" y="0"/>
	  <point x="196" y="-17"/>
	  <point x="278" y="-17" type="curve" smooth="yes"/>
	  <point x="415" y="-17"/>
	  <point x="499" y="53"/>
	  <point x="500" y="166" type="curve"/>
	</contour>
	<contour>
	  <point x="249" y="-96" type="line"/>
	  <point x="305" y="-96" type="line"/>
	  <point x="305" y="758" type="line"/>
	  <point x="249" y="758" type="line"/>
	</contour>
  </outline>
</glyph>
<glyph name="percent" format="1">
  <advance width="1013"/>
  <unicode hex="0025"/>
  <outline>
	<contour>
	  <point x="342" y="304"/>
	  <point x="426" y="389"/>
	  <point x="426" y="494" type="curve" smooth="yes"/>
	  <point x="426" y="599"/>
	  <point x="342" y="683"/>
	  <point x="237" y="683" type="curve" smooth="yes"/>
	  <point x="132" y="683"/>
	  <point x="47" y="599"/>
	  <point x="47" y="494" type="curve" smooth="yes"/>
	  <point x="47" y="389"/>
	  <point x="132" y="304"/>
	  <point x="237" y="304" type="curve" smooth="yes"/>
	</contour>
	<contour>
	  <point x="105" y="418"/>
	  <point x="105" y="494" type="curve" smooth="yes"/>
	  <point x="105" y="570"/>
	  <point x="159" y="631"/>
	  <point x="237" y="631" type="curve" smooth="yes"/>
	  <point x="315" y="631"/>
	  <point x="368" y="570"/>
	  <point x="368" y="494" type="curve" smooth="yes"/>
	  <point x="368" y="418"/>
	  <point x="315" y="356"/>
	  <point x="237" y="356" type="curve" smooth="yes"/>
	  <point x="159" y="356"/>
	</contour>
	<contour>
	  <point x="882" y="-17"/>
	  <point x="966" y="68"/>
	  <point x="966" y="173" type="curve" smooth="yes"/>
	  <point x="966" y="278"/>
	  <point x="882" y="362"/>
	  <point x="777" y="362" type="curve" smooth="yes"/>
	  <point x="672" y="362"/>
	  <point x="587" y="278"/>
	  <point x="587" y="173" type="curve" smooth="yes"/>
	  <point x="587" y="68"/>
	  <point x="672" y="-17"/>
	  <point x="777" y="-17" type="curve" smooth="yes"/>
	</contour>
	<contour>
	  <point x="645" y="97"/>
	  <point x="645" y="173" type="curve" smooth="yes"/>
	  <point x="645" y="249"/>
	  <point x="699" y="310"/>
	  <point x="777" y="310" type="curve" smooth="yes"/>
	  <point x="855" y="310"/>
	  <point x="908" y="249"/>
	  <point x="908" y="173" type="curve" smooth="yes"/>
	  <point x="908" y="97"/>
	  <point x="855" y="35"/>
	  <point x="777" y="35" type="curve" smooth="yes"/>
	  <point x="699" y="35"/>
	</contour>
	<component base="fraction" xOffset="319"/>
  </outline>
</glyph>
<glyph name="ampersand" format="1">
  <advance width="814"/>
  <unicode hex="0026"/>
  <outline>
	<contour>
	  <point x="418" y="582"/>
	  <point x="389" y="541"/>
	  <point x="331" y="502" type="curve" smooth="yes"/>
	  <point x="241" y="441" type="line" smooth="yes"/>
	  <point x="157" y="384"/>
	  <point x="67" y="330"/>
	  <point x="67" y="208" type="curve" smooth="yes"/>
	  <point x="67" y="89"/>
	  <point x="146" y="-17"/>
	  <point x="306" y="-17" type="curve" smooth="yes"/>
	  <point x="523" y="-17"/>
	  <point x="692" y="230"/>
	  <point x="692" y="498" type="curve"/>
	  <point x="634" y="498" type="line"/>
	  <point x="632" y="240"/>
	  <point x="494" y="35"/>
	  <point x="306" y="35" type="curve" smooth="yes"/>
	  <point x="186" y="35"/>
	  <point x="125" y="118"/>
	  <point x="125" y="208" type="curve" smooth="yes"/>
	  <point x="125" y="301"/>
	  <point x="191" y="349"/>
	  <point x="263" y="397" type="curve" smooth="yes"/>
	  <point x="353" y="458" type="line" smooth="yes"/>
	  <point x="416" y="501"/>
	  <point x="476" y="558"/>
	  <point x="476" y="630" type="curve" smooth="yes"/>
	  <point x="476" y="719"/>
	  <point x="414" y="779"/>
	  <point x="319" y="779" type="curve" smooth="yes"/>
	  <point x="221" y="779"/>
	  <point x="154" y="713"/>
	  <point x="154" y="618" type="curve" smooth="yes"/>
	  <point x="154" y="540"/>
	  <point x="194" y="488"/>
	  <point x="242" y="426" type="curve"/>
	  <point x="252" y="408" type="line"/>
	  <point x="310" y="337"/>
	  <point x="419" y="208"/>
	  <point x="524" y="111" type="curve" smooth="yes"/>
	  <point x="600" y="46"/>
	  <point x="680" y="0"/>
	  <point x="756" y="0" type="curve"/>
	  <point x="784" y="0" type="line"/>
	  <point x="784" y="54" type="line"/>
	  <point x="757" y="54" type="line"/>
	  <point x="693" y="54"/>
	  <point x="621" y="97"/>
	  <point x="554" y="156" type="curve"/>
	  <point x="454" y="243"/>
	  <point x="348" y="365"/>
	  <point x="297" y="435" type="curve"/>
	  <point x="280" y="455" type="line"/>
	  <point x="235" y="511"/>
	  <point x="212" y="558"/>
	  <point x="212" y="618" type="curve" smooth="yes"/>
	  <point x="212" y="685"/>
	  <point x="248" y="727"/>
	  <point x="319" y="727" type="curve" smooth="yes"/>
	  <point x="385" y="727"/>
	  <point x="418" y="688"/>
	  <point x="418" y="631" type="curve" smooth="yes"/>
	</contour>
  </outline>
</glyph>
<glyph name="quotesingle" format="1">
  <advance width="284"/>
  <unicode hex="0027"/>
  <outline>
	<contour>
	  <point x="114" y="758" type="line"/>
	  <point x="114" y="456" type="line"/>
	  <point x="170" y="456" type="line"/>
	  <point x="170" y="758" type="line"/>
	</contour>
  </outline>
</glyph>
<glyph name="parenleft" format="1">
  <advance width="326"/>
  <unicode hex="0028"/>
  <outline>
	<contour>
	  <point x="56" y="75"/>
	  <point x="184" y="-74"/>
	  <point x="230" y="-129" type="curve"/>
	  <point x="266" y="-102" type="line"/>
	  <point x="224" y="-45"/>
	  <point x="114" y="91"/>
	  <point x="114" y="359" type="curve"/>
	  <point x="114" y="627"/>
	  <point x="224" y="763"/>
	  <point x="266" y="820" type="curve"/>
	  <point x="230" y="847" type="line"/>
	  <point x="184" y="792"/>
	  <point x="56" y="643"/>
	  <point x="56" y="359" type="curve"/>
	</contour>
  </outline>
</glyph>
<glyph name="parenright" format="1">
  <advance width="326"/>
  <unicode hex="0029"/>
  <outline>
	<contour>
	  <point x="270" y="643"/>
	  <point x="142" y="792"/>
	  <point x="96" y="847" type="curve"/>
	  <point x="60" y="820" type="line"/>
	  <point x="102" y="763"/>
	  <point x="212" y="627"/>
	  <point x="212" y="359" type="curve"/>
	  <point x="212" y="91"/>
	  <point x="102" y="-45"/>
	  <point x="60" y="-102" type="curve"/>
	  <point x="96" y="-129" type="line"/>
	  <point x="142" y="-74"/>
	  <point x="270" y="75"/>
	  <point x="270" y="359" type="curve"/>
	</contour>
  </outline>
</glyph>
<glyph name="asterisk" format="1">
  <advance width="618"/>
  <unicode hex="002A"/>
  <outline>
	<contour>
	  <point x="292" y="624" type="line"/>
	  <point x="282" y="375" type="line"/>
	  <point x="336" y="375" type="line"/>
	  <point x="326" y="624" type="line"/>
	  <point x="336" y="872" type="line"/>
	  <point x="282" y="872" type="line"/>
	</contour>
	<contour>
	  <point x="300" y="609" type="line"/>
	  <point x="511" y="476" type="line"/>
	  <point x="538" y="523" type="line"/>
	  <point x="317" y="638" type="line"/>
	  <point x="107" y="771" type="line"/>
	  <point x="80" y="724" type="line"/>
	</contour>
	<contour>
	  <point x="301" y="638" type="line"/>
	  <point x="80" y="523" type="line"/>
	  <point x="107" y="476" type="line"/>
	  <point x="318" y="609" type="line"/>
	  <point x="538" y="724" type="line"/>
	  <point x="511" y="771" type="line"/>
	</contour>
  </outline>
</glyph>
<glyph name="plus" format="1">
  <advance width="550"/>
  <unicode hex="002B"/>
  <outline>
	<contour>
	  <point x="67" y="310" type="line"/>
	  <point x="483" y="310" type="line"/>
	  <point x="483" y="364" type="line"/>
	  <point x="67" y="364" type="line"/>
	</contour>
	<contour>
	  <point x="303" y="129" type="line"/>
	  <point x="303" y="545" type="line"/>
	  <point x="247" y="544" type="line"/>
	  <point x="247" y="128" type="line"/>
	</contour>
  </outline>
</glyph>
<glyph name="comma" format="1">
  <advance width="284"/>
  <unicode hex="002C"/>
  <outline>
	<contour>
	  <point x="137" y="151" type="line"/>
	  <point x="77" y="-151" type="line"/>
	  <point x="131" y="-151" type="line"/>
	  <point x="197" y="151" type="line"/>
	</contour>
  </outline>
</glyph>
<glyph name="hyphen" format="1">
  <advance width="454"/>
  <unicode hex="002D"/>
  <outline>
	<contour>
	  <point x="80" y="268" type="line"/>
	  <point x="374" y="268" type="line"/>
	  <point x="374" y="324" type="line"/>
	  <point x="80" y="324" type="line"/>
	</contour>
  </outline>
</glyph>
<glyph name="period" format="1">
  <advance width="284"/>
  <unicode hex="002E"/>
  <outline>
	<contour>
	  <point x="110" y="151" type="line"/>
	  <point x="110" y="0" type="line"/>
	  <point x="174" y="0" type="line"/>
	  <point x="174" y="151" type="line"/>
	</contour>
  </outline>
</glyph>
<glyph name="slash" format="1">
  <advance width="397"/>
  <unicode hex="002F"/>
  <outline>
	<contour>
	  <point x="71" y="-177" type="line"/>
	  <point x="382" y="931" type="line"/>
	  <point x="326" y="931" type="line"/>
	  <point x="15" y="-177" type="line"/>
	</contour>
  </outline>
</glyph>
<glyph name="zero" format="1">
  <advance width="550"/>
  <unicode hex="0030"/>
  <outline>
	<contour>
	  <point x="134" y="688"/>
	  <point x="67" y="564"/>
	  <point x="67" y="336" type="curve" smooth="yes"/>
	  <point x="67" y="102"/>
	  <point x="134" y="-17"/>
	  <point x="275" y="-17" type="curve" smooth="yes"/>
	  <point x="410" y="-17"/>
	  <point x="483" y="102"/>
	  <point x="483" y="336" type="curve" smooth="yes"/>
	  <point x="483" y="564"/>
	  <point x="410" y="688"/>
	  <point x="275" y="688" type="curve" smooth="yes"/>
	</contour>
	<contour>
	  <point x="368" y="636"/>
	  <point x="426" y="534"/>
	  <point x="425" y="336" type="curve" smooth="yes"/>
	  <point x="424" y="133"/>
	  <point x="368" y="35"/>
	  <point x="275" y="35" type="curve" smooth="yes"/>
	  <point x="175" y="35"/>
	  <point x="125" y="133"/>
	  <point x="125" y="336" type="curve" smooth="yes"/>
	  <point x="125" y="534"/>
	  <point x="175" y="636"/>
	  <point x="275" y="636" type="curve" smooth="yes"/>
	</contour>
  </outline>
</glyph>
<glyph name="one" format="1">
  <advance width="550"/>
  <unicode hex="0031"/>
  <outline>
	<contour>
	  <point x="247" y="674" type="line"/>
	  <point x="247" y="0" type="line"/>
	  <point x="303" y="0" type="line"/>
	  <point x="303" y="674" type="line"/>
	</contour>
	<contour>
	  <point x="141" y="620" type="line"/>
	  <point x="269" y="620" type="line"/>
	  <point x="269" y="674" type="line"/>
	  <point x="141" y="674" type="line"/>
	</contour>
	<contour>
	  <point x="121" y="0" type="line"/>
	  <point x="429" y="0" type="line"/>
	  <point x="429" y="54" type="line"/>
	  <point x="121" y="54" type="line"/>
	</contour>
  </outline>
</glyph>
<glyph name="two" format="1">
  <advance width="550"/>
  <unicode hex="0032"/>
  <outline>
	<contour>
	  <point x="62" y="0" type="line"/>
	  <point x="493" y="0" type="line"/>
	  <point x="493" y="54" type="line"/>
	  <point x="139" y="54" type="line"/>
	  <point x="295" y="209"/>
	  <point x="463" y="334"/>
	  <point x="463" y="494" type="curve" smooth="yes"/>
	  <point x="463" y="623"/>
	  <point x="375" y="688"/>
	  <point x="261" y="688" type="curve" smooth="yes"/>
	  <point x="204" y="688"/>
	  <point x="149" y="678"/>
	  <point x="87" y="651" type="curve"/>
	  <point x="87" y="595" type="line"/>
	  <point x="139" y="621"/>
	  <point x="200" y="636"/>
	  <point x="261" y="636" type="curve" smooth="yes"/>
	  <point x="348" y="636"/>
	  <point x="405" y="586"/>
	  <point x="405" y="493" type="curve" smooth="yes"/>
	  <point x="405" y="372"/>
	  <point x="298" y="274"/>
	  <point x="62" y="54" type="curve"/>
	</contour>
  </outline>
</glyph>
<glyph name="three" format="1">
  <advance width="550"/>
  <unicode hex="0033"/>
  <outline>
	<contour>
	  <point x="139" y="-4"/>
	  <point x="193" y="-17"/>
	  <point x="260" y="-17" type="curve" smooth="yes"/>
	  <point x="391" y="-17"/>
	  <point x="473" y="61"/>
	  <point x="473" y="185" type="curve" smooth="yes"/>
	  <point x="473" y="271"/>
	  <point x="429" y="339"/>
	  <point x="337" y="363" type="curve"/>
	  <point x="338" y="354" type="line"/>
	  <point x="422" y="385"/>
	  <point x="463" y="436"/>
	  <point x="463" y="514" type="curve" smooth="yes"/>
	  <point x="463" y="620"/>
	  <point x="385" y="688"/>
	  <point x="260" y="688" type="curve" smooth="yes"/>
	  <point x="204" y="688"/>
	  <point x="150" y="679"/>
	  <point x="97" y="657" type="curve"/>
	  <point x="97" y="601" type="line"/>
	  <point x="148" y="626"/>
	  <point x="210" y="636"/>
	  <point x="260" y="636" type="curve" smooth="yes"/>
	  <point x="353" y="636"/>
	  <point x="405" y="590"/>
	  <point x="405" y="514" type="curve" smooth="yes"/>
	  <point x="405" y="428"/>
	  <point x="344" y="384"/>
	  <point x="231" y="384" type="curve" smooth="yes"/>
	  <point x="167" y="384" type="line"/>
	  <point x="167" y="332" type="line"/>
	  <point x="231" y="332" type="line" smooth="yes"/>
	  <point x="350" y="332"/>
	  <point x="416" y="282"/>
	  <point x="415" y="185" type="curve" smooth="yes"/>
	  <point x="414" y="90"/>
	  <point x="360" y="35"/>
	  <point x="260" y="35" type="curve" smooth="yes"/>
	  <point x="200" y="35"/>
	  <point x="137" y="49"/>
	  <point x="87" y="74" type="curve"/>
	  <point x="87" y="18" type="line"/>
	</contour>
  </outline>
</glyph>
<glyph name="four" format="1">
  <advance width="550"/>
  <unicode hex="0034"/>
  <outline>
	<contour>
	  <point x="30" y="214" type="line"/>
	  <point x="92" y="214" type="line"/>
	  <point x="370" y="609" type="line"/>
	  <point x="354" y="609" type="line"/>
	  <point x="354" y="-17" type="line"/>
	  <point x="410" y="-17" type="line"/>
	  <point x="410" y="683" type="line"/>
	  <point x="354" y="683" type="line"/>
	</contour>
	<contour>
	  <point x="30" y="160" type="line"/>
	  <point x="533" y="160" type="line"/>
	  <point x="533" y="214" type="line"/>
	  <point x="30" y="214" type="line"/>
	</contour>
  </outline>
</glyph>
<glyph name="five" format="1">
  <advance width="550"/>
  <unicode hex="0035"/>
  <outline>
	<contour>
	  <point x="100" y="674" type="line" smooth="yes"/>
	  <point x="93" y="347" type="line"/>
	  <point x="149" y="383" type="line"/>
	  <point x="156" y="674" type="line"/>
	</contour>
	<contour>
	  <point x="141" y="620" type="line"/>
	  <point x="439" y="620" type="line"/>
	  <point x="439" y="674" type="line"/>
	  <point x="141" y="674" type="line"/>
	</contour>
	<contour>
	  <point x="386" y="-17"/>
	  <point x="478" y="64"/>
	  <point x="478" y="211" type="curve" smooth="yes"/>
	  <point x="478" y="340"/>
	  <point x="394" y="429"/>
	  <point x="240" y="429" type="curve" smooth="yes"/>
	  <point x="181" y="429"/>
	  <point x="125" y="414"/>
	  <point x="95" y="403" type="curve"/>
	  <point x="93" y="347" type="line"/>
	  <point x="131" y="362"/>
	  <point x="186" y="377"/>
	  <point x="240" y="377" type="curve" smooth="yes"/>
	  <point x="352" y="377"/>
	  <point x="420" y="319"/>
	  <point x="420" y="211" type="curve" smooth="yes"/>
	  <point x="420" y="92"/>
	  <point x="357" y="35"/>
	  <point x="240" y="35" type="curve"/>
	  <point x="186" y="35"/>
	  <point x="131" y="46"/>
	  <point x="82" y="67" type="curve"/>
	  <point x="82" y="12" type="line"/>
	  <point x="132" y="-8"/>
	  <point x="186" y="-17"/>
	  <point x="240" y="-17" type="curve"/>
	</contour>
  </outline>
</glyph>
<glyph name="six" format="1">
  <advance width="550"/>
  <unicode hex="0036"/>
  <outline>
	<contour>
	  <point x="164" y="394"/>
	  <point x="220" y="418"/>
	  <point x="280" y="418" type="curve" smooth="yes"/>
	  <point x="406" y="418"/>
	  <point x="491" y="333"/>
	  <point x="491" y="200" type="curve" smooth="yes"/>
	  <point x="491" y="68"/>
	  <point x="402" y="-17"/>
	  <point x="285" y="-17" type="curve" smooth="yes"/>
	  <point x="147" y="-17"/>
	  <point x="67" y="79"/>
	  <point x="67" y="241" type="curve" smooth="yes"/>
	  <point x="67" y="423"/>
	  <point x="179" y="576"/>
	  <point x="356" y="686" type="curve"/>
	  <point x="387" y="645" type="line"/>
	  <point x="241" y="551"/>
	  <point x="124" y="414"/>
	  <point x="125" y="241" type="curve" smooth="yes"/>
	  <point x="126" y="95"/>
	  <point x="192" y="35"/>
	  <point x="285" y="35" type="curve" smooth="yes"/>
	  <point x="369" y="35"/>
	  <point x="433" y="96"/>
	  <point x="433" y="200" type="curve" smooth="yes"/>
	  <point x="433" y="305"/>
	  <point x="366" y="366"/>
	  <point x="280" y="366" type="curve" smooth="yes"/>
	  <point x="211" y="366"/>
	  <point x="154" y="334"/>
	  <point x="120" y="289" type="curve"/>
	  <point x="120" y="347" type="line"/>
	</contour>
  </outline>
</glyph>
<glyph name="seven" format="1">
  <advance width="550"/>
  <unicode hex="0037"/>
  <outline>
	<contour>
	  <point x="244" y="-17" type="line"/>
	  <point x="505" y="620" type="line"/>
	  <point x="505" y="674" type="line"/>
	  <point x="83" y="674" type="line"/>
	  <point x="83" y="620" type="line"/>
	  <point x="471" y="620" type="line"/>
	  <point x="458" y="640" type="line"/>
	  <point x="182" y="-17" type="line"/>
	</contour>
  </outline>
</glyph>
<glyph name="nine" format="1">
  <advance width="550"/>
  <unicode hex="0039"/>
  <outline>
	<contour>
	  <point x="385" y="277"/>
	  <point x="329" y="253"/>
	  <point x="269" y="253" type="curve" smooth="yes"/>
	  <point x="143" y="253"/>
	  <point x="58" y="338"/>
	  <point x="58" y="471" type="curve" smooth="yes"/>
	  <point x="58" y="603"/>
	  <point x="147" y="688"/>
	  <point x="264" y="688" type="curve" smooth="yes"/>
	  <point x="402" y="688"/>
	  <point x="482" y="592"/>
	  <point x="482" y="430" type="curve" smooth="yes"/>
	  <point x="482" y="248"/>
	  <point x="370" y="95"/>
	  <point x="193" y="-15" type="curve"/>
	  <point x="162" y="26" type="line"/>
	  <point x="308" y="120"/>
	  <point x="425" y="257"/>
	  <point x="424" y="430" type="curve" smooth="yes"/>
	  <point x="423" y="576"/>
	  <point x="357" y="636"/>
	  <point x="264" y="636" type="curve" smooth="yes"/>
	  <point x="180" y="636"/>
	  <point x="116" y="575"/>
	  <point x="116" y="471" type="curve" smooth="yes"/>
	  <point x="116" y="366"/>
	  <point x="183" y="305"/>
	  <point x="269" y="305" type="curve" smooth="yes"/>
	  <point x="338" y="305"/>
	  <point x="395" y="337"/>
	  <point x="429" y="382" type="curve"/>
	  <point x="429" y="324" type="line"/>
	</contour>
  </outline>
</glyph>
<glyph name="less" format="1">
  <advance width="550"/>
  <unicode hex="003C"/>
  <outline>
	<contour>
	  <point x="465" y="141" type="line"/>
	  <point x="107" y="352" type="line"/>
	  <point x="107" y="322" type="line"/>
	  <point x="465" y="533" type="line"/>
	  <point x="438" y="578" type="line"/>
	  <point x="67" y="358" type="line"/>
	  <point x="67" y="316" type="line"/>
	  <point x="437" y="97" type="line"/>
	</contour>
  </outline>
</glyph>
<glyph name="equal" format="1">
  <advance width="550"/>
  <unicode hex="003D"/>
  <outline>
	<contour>
	  <point x="67" y="410" type="line"/>
	  <point x="483" y="410" type="line"/>
	  <point x="483" y="464" type="line"/>
	  <point x="67" y="464" type="line"/>
	</contour>
	<contour>
	  <point x="67" y="210" type="line"/>
	  <point x="483" y="210" type="line"/>
	  <point x="483" y="264" type="line"/>
	  <point x="67" y="264" type="line"/>
	</contour>
  </outline>
</glyph>
<glyph name="question" format="1">
  <advance width="550"/>
  <unicode hex="003F"/>
  <outline>
	<contour>
	  <point x="282" y="330"/>
	  <point x="308" y="353"/>
	  <point x="363" y="402" type="curve" smooth="yes"/>
	  <point x="390" y="426" type="line" smooth="yes"/>
	  <point x="432" y="463"/>
	  <point x="463" y="505"/>
	  <point x="463" y="578" type="curve" smooth="yes"/>
	  <point x="463" y="707"/>
	  <point x="375" y="772"/>
	  <point x="261" y="772" type="curve" smooth="yes"/>
	  <point x="204" y="772"/>
	  <point x="149" y="762"/>
	  <point x="87" y="735" type="curve"/>
	  <point x="87" y="679" type="line"/>
	  <point x="139" y="705"/>
	  <point x="200" y="720"/>
	  <point x="261" y="720" type="curve" smooth="yes"/>
	  <point x="348" y="720"/>
	  <point x="405" y="670"/>
	  <point x="405" y="577" type="curve" smooth="yes"/>
	  <point x="405" y="529"/>
	  <point x="388" y="499"/>
	  <point x="348" y="463" type="curve" smooth="yes"/>
	  <point x="321" y="439" type="line" smooth="yes"/>
	  <point x="269" y="393"/>
	  <point x="226" y="358"/>
	  <point x="226" y="267" type="curve" smooth="yes"/>
	  <point x="226" y="230" type="line"/>
	  <point x="282" y="230" type="line"/>
	  <point x="282" y="267" type="line" smooth="yes"/>
	</contour>
	<contour>
	  <point x="222" y="151" type="line"/>
	  <point x="222" y="0" type="line"/>
	  <point x="286" y="0" type="line"/>
	  <point x="286" y="151" type="line"/>
	</contour>
  </outline>
</glyph>
<glyph name="at" format="1">
  <advance width="986"/>
  <unicode hex="0040"/>
  <outline>
	<contour>
	  <point x="919" y="573"/>
	  <point x="767" y="722"/>
	  <point x="522" y="722" type="curve"/>
	  <point x="277" y="722"/>
	  <point x="67" y="523"/>
	  <point x="67" y="228" type="curve" smooth="yes"/>
	  <point x="67" y="-54"/>
	  <point x="241" y="-212"/>
	  <point x="486" y="-212" type="curve" smooth="yes"/>
	  <point x="600" y="-212"/>
	  <point x="683" y="-179"/>
	  <point x="768" y="-137" type="curve"/>
	  <point x="748" y="-87" type="line"/>
	  <point x="665" y="-130"/>
	  <point x="584" y="-160"/>
	  <point x="486" y="-160" type="curve" smooth="yes"/>
	  <point x="240" y="-160"/>
	  <point x="123" y="0"/>
	  <point x="123" y="228" type="curve" smooth="yes"/>
	  <point x="123" y="491"/>
	  <point x="310" y="670"/>
	  <point x="522" y="670" type="curve" smooth="yes"/>
	  <point x="734" y="670"/>
	  <point x="863" y="552"/>
	  <point x="863" y="337" type="curve" smooth="yes"/>
	  <point x="863" y="199"/>
	  <point x="805" y="66"/>
	  <point x="690" y="66" type="curve" smooth="yes"/>
	  <point x="617" y="66"/>
	  <point x="606" y="93"/>
	  <point x="625" y="157" type="curve" smooth="yes"/>
	  <point x="723" y="490" type="line"/>
	  <point x="668" y="490" type="line"/>
	  <point x="572" y="161" type="line" smooth="yes"/>
	  <point x="545" y="67"/>
	  <point x="584" y="14"/>
	  <point x="690" y="14" type="curve" smooth="yes"/>
	  <point x="824" y="14"/>
	  <point x="919" y="146"/>
	  <point x="919" y="337" type="curve" smooth="yes"/>
	</contour>
	<contour>
	  <point x="285" y="79"/>
	  <point x="344" y="27"/>
	  <point x="433" y="27" type="curve" smooth="yes"/>
	  <point x="494" y="27"/>
	  <point x="549" y="67"/>
	  <point x="598" y="142" type="curve"/>
	  <point x="598" y="213" type="line"/>
	  <point x="557" y="134"/>
	  <point x="497" y="81"/>
	  <point x="433" y="81" type="curve" smooth="yes"/>
	  <point x="371" y="81"/>
	  <point x="341" y="107"/>
	  <point x="341" y="187" type="curve"/>
	  <point x="344" y="314"/>
	  <point x="418" y="452"/>
	  <point x="528" y="452" type="curve" smooth="yes"/>
	  <point x="576" y="452"/>
	  <point x="617" y="426"/>
	  <point x="650" y="356" type="curve"/>
	  <point x="660" y="404" type="line"/>
	  <point x="636" y="487"/>
	  <point x="578" y="506"/>
	  <point x="528" y="506" type="curve" smooth="yes"/>
	  <point x="395" y="506"/>
	  <point x="287" y="367"/>
	  <point x="285" y="187" type="curve"/>
	</contour>
  </outline>
</glyph>
<glyph name="A" format="1">
  <advance width="689"/>
  <unicode hex="0041"/>
  <outline>
	<contour>
	  <point x="25" y="0" type="line"/>
	  <point x="85" y="0" type="line"/>
	  <point x="352" y="695" type="line"/>
	  <point x="336" y="695" type="line"/>
	  <point x="604" y="0" type="line"/>
	  <point x="664" y="0" type="line"/>
	  <point x="368" y="767" type="line"/>
	  <point x="320" y="767" type="line"/>
	</contour>
	<contour>
	  <point x="157" y="254" type="line"/>
	  <point x="533" y="254" type="line"/>
	  <point x="533" y="308" type="line"/>
	  <point x="157" y="308" type="line"/>
	</contour>
	<contour>
	  <point x="344" y="758" type="move" name="Accent"/>
	</contour>
	<contour>
	  <point x="634" y="0" type="move" name="ogonek"/>
	</contour>
  </outline>
</glyph>
<glyph name="B" format="1">
  <advance width="690"/>
  <unicode hex="0042"/>
  <outline>
	<contour>
	  <point x="543" y="408"/>
	  <point x="582" y="469"/>
	  <point x="582" y="555" type="curve" smooth="yes"/>
	  <point x="582" y="689"/>
	  <point x="528" y="758"/>
	  <point x="355" y="758" type="curve" smooth="yes"/>
	  <point x="120" y="758" type="line"/>
	  <point x="120" y="0" type="line"/>
	  <point x="355" y="0" type="line" smooth="yes"/>
	  <point x="546" y="0"/>
	  <point x="612" y="71"/>
	  <point x="612" y="202" type="curve" smooth="yes"/>
	  <point x="612" y="301"/>
	  <point x="561" y="364"/>
	  <point x="456" y="391" type="curve"/>
	  <point x="457" y="377" type="line"/>
	</contour>
	<contour>
	  <point x="355" y="706" type="line" smooth="yes"/>
	  <point x="486" y="706"/>
	  <point x="525" y="662"/>
	  <point x="524" y="555" type="curve" smooth="yes"/>
	  <point x="523" y="454"/>
	  <point x="466" y="406"/>
	  <point x="355" y="406" type="curve" smooth="yes"/>
	  <point x="176" y="406" type="line"/>
	  <point x="176" y="706" type="line"/>
	</contour>
	<contour>
	  <point x="553" y="100"/>
	  <point x="503" y="52"/>
	  <point x="355" y="52" type="curve" smooth="yes"/>
	  <point x="176" y="52" type="line"/>
	  <point x="176" y="354" type="line"/>
	  <point x="355" y="354" type="line" smooth="yes"/>
	  <point x="484" y="354"/>
	  <point x="555" y="310"/>
	  <point x="554" y="202" type="curve" smooth="yes"/>
	</contour>
	<contour>
	  <point x="344" y="758" type="move" name="Accent"/>
	</contour>
  </outline>
</glyph>
<glyph name="C" format="1">
  <advance width="703"/>
  <unicode hex="0043"/>
  <outline>
	<contour>
	  <point x="177" y="772"/>
	  <point x="67" y="595"/>
	  <point x="67" y="378" type="curve" smooth="yes"/>
	  <point x="67" y="146"/>
	  <point x="187" y="-17"/>
	  <point x="424" y="-17" type="curve"/>
	  <point x="499" y="-17"/>
	  <point x="588" y="3"/>
	  <point x="668" y="44" type="curve"/>
	  <point x="648" y="94" type="line"/>
	  <point x="576" y="60"/>
	  <point x="504" y="35"/>
	  <point x="424" y="35" type="curve"/>
	  <point x="232" y="35"/>
	  <point x="126" y="175"/>
	  <point x="125" y="378" type="curve" smooth="yes"/>
	  <point x="124" y="576"/>
	  <point x="232" y="720"/>
	  <point x="424" y="720" type="curve"/>
	  <point x="486" y="720"/>
	  <point x="547" y="709"/>
	  <point x="608" y="679" type="curve"/>
	  <point x="608" y="735" type="line"/>
	  <point x="547" y="760"/>
	  <point x="497" y="772"/>
	  <point x="424" y="772" type="curve"/>
	</contour>
	<contour>
	  <point x="384" y="758" type="move" name="Accent"/>
	</contour>
	<contour>
	  <point x="424" y="0" type="move" name="bottomaccent"/>
	</contour>
  </outline>
</glyph>
<glyph name="D" format="1">
  <advance width="794"/>
  <unicode hex="0044"/>
  <outline>
	<contour>
	  <point x="150" y="758" type="line"/>
	  <point x="150" y="706" type="line"/>
	  <point x="365" y="706" type="line"/>
	  <point x="557" y="706"/>
	  <point x="665" y="607"/>
	  <point x="664" y="378" type="curve" smooth="yes"/>
	  <point x="663" y="147"/>
	  <point x="557" y="52"/>
	  <point x="365" y="52" type="curve"/>
	  <point x="149" y="52" type="line"/>
	  <point x="149" y="0" type="line"/>
	  <point x="365" y="0" type="line"/>
	  <point x="602" y="0"/>
	  <point x="722" y="127"/>
	  <point x="722" y="378" type="curve" smooth="yes"/>
	  <point x="722" y="626"/>
	  <point x="602" y="758"/>
	  <point x="365" y="758" type="curve"/>
	</contour>
	<contour>
	  <point x="120" y="758" type="line"/>
	  <point x="120" y="0" type="line"/>
	  <point x="176" y="0" type="line"/>
	  <point x="176" y="758" type="line"/>
	</contour>
	<contour>
	  <point x="365" y="758" type="move" name="Accent"/>
	</contour>
  </outline>
</glyph>
<glyph name="E" format="1">
  <advance width="624"/>
  <unicode hex="0045"/>
  <outline>
	<contour>
	  <point x="120" y="758" type="line"/>
	  <point x="120" y="0" type="line"/>
	  <point x="176" y="0" type="line"/>
	  <point x="176" y="758" type="line"/>
	</contour>
	<contour>
	  <point x="161" y="0" type="line"/>
	  <point x="564" y="0" type="line"/>
	  <point x="564" y="54" type="line"/>
	  <point x="161" y="54" type="line"/>
	</contour>
	<contour>
	  <point x="161" y="354" type="line"/>
	  <point x="509" y="354" type="line"/>
	  <point x="509" y="408" type="line"/>
	  <point x="161" y="408" type="line"/>
	</contour>
	<contour>
	  <point x="161" y="704" type="line"/>
	  <point x="559" y="704" type="line"/>
	  <point x="559" y="758" type="line"/>
	  <point x="161" y="758" type="line"/>
	</contour>
	<contour>
	  <point x="337" y="758" type="move" name="Accent"/>
	</contour>
	<contour>
	  <point x="534" y="0" type="move" name="ogonek"/>
	</contour>
  </outline>
</glyph>
<glyph name="F" format="1">
  <advance width="609"/>
  <unicode hex="0046"/>
  <outline>
	<contour>
	  <point x="120" y="758" type="line"/>
	  <point x="120" y="0" type="line"/>
	  <point x="176" y="0" type="line"/>
	  <point x="176" y="758" type="line"/>
	</contour>
	<contour>
	  <point x="161" y="344" type="line"/>
	  <point x="509" y="344" type="line"/>
	  <point x="509" y="398" type="line"/>
	  <point x="161" y="398" type="line"/>
	</contour>
	<contour>
	  <point x="161" y="704" type="line"/>
	  <point x="559" y="704" type="line"/>
	  <point x="559" y="758" type="line"/>
	  <point x="161" y="758" type="line"/>
	</contour>
	<contour>
	  <point x="355" y="758" type="move" name="Accent"/>
	</contour>
  </outline>
</glyph>
<glyph name="G" format="1">
  <advance width="780"/>
  <unicode hex="0047"/>
  <outline>
	<contour>
	  <point x="177" y="772"/>
	  <point x="67" y="595"/>
	  <point x="67" y="378" type="curve" smooth="yes"/>
	  <point x="67" y="146"/>
	  <point x="187" y="-17"/>
	  <point x="424" y="-17" type="curve"/>
	  <point x="502" y="-17"/>
	  <point x="603" y="6"/>
	  <point x="685" y="53" type="curve"/>
	  <point x="648" y="94" type="line"/>
	  <point x="576" y="60"/>
	  <point x="504" y="35"/>
	  <point x="424" y="35" type="curve"/>
	  <point x="232" y="35"/>
	  <point x="126" y="175"/>
	  <point x="125" y="378" type="curve" smooth="yes"/>
	  <point x="124" y="576"/>
	  <point x="232" y="720"/>
	  <point x="424" y="720" type="curve"/>
	  <point x="516" y="720"/>
	  <point x="577" y="697"/>
	  <point x="638" y="663" type="curve"/>
	  <point x="638" y="722" type="line"/>
	  <point x="579" y="748"/>
	  <point x="522" y="772"/>
	  <point x="424" y="772" type="curve"/>
	</contour>
	<contour>
	  <point x="629" y="413" type="line"/>
	  <point x="629" y="53" type="line"/>
	  <point x="685" y="53" type="line"/>
	  <point x="685" y="413" type="line"/>
	</contour>
	<contour>
	  <point x="300" y="409" type="line"/>
	  <point x="685" y="409" type="line"/>
	  <point x="685" y="463" type="line"/>
	  <point x="300" y="463" type="line"/>
	</contour>
	<contour>
	  <point x="409" y="758" type="move" name="Accent"/>
	</contour>
	<contour>
	  <point x="424" y="0" type="move" name="bottomaccent"/>
	</contour>
  </outline>
</glyph>
<glyph name="I" format="1">
  <advance width="296"/>
  <unicode hex="0049"/>
  <outline>
	<contour>
	  <point x="120" y="758" type="line"/>
	  <point x="120" y="0" type="line"/>
	  <point x="176" y="0" type="line"/>
	  <point x="176" y="758" type="line"/>
	</contour>
	<contour>
	  <point x="148" y="758" type="move" name="Accent"/>
	</contour>
	<contour>
	  <point x="148" y="0" type="move" name="bottomaccent"/>
	</contour>
  </outline>
</glyph>
<glyph name="J" format="1">
  <advance width="296"/>
  <unicode hex="004A"/>
  <outline>
	<contour>
	  <point x="150" y="-81"/>
	  <point x="176" y="-47"/>
	  <point x="176" y="80" type="curve" smooth="yes"/>
	  <point x="176" y="758" type="line"/>
	  <point x="120" y="758" type="line"/>
	  <point x="120" y="86" type="line" smooth="yes"/>
	  <point x="120" y="-8"/>
	  <point x="106" y="-27"/>
	  <point x="57" y="-27" type="curve" smooth="yes"/>
	  <point x="42" y="-27"/>
	  <point x="26" y="-26"/>
	  <point x="11" y="-23" type="curve"/>
	  <point x="11" y="-77" type="line"/>
	  <point x="26" y="-80"/>
	  <point x="41" y="-81"/>
	  <point x="52" y="-81" type="curve" smooth="yes"/>
	</contour>
	<contour>
	  <point x="148" y="758" type="move" name="Accent"/>
	</contour>
  </outline>
</glyph>
<glyph name="K" format="1">
  <advance width="660"/>
  <unicode hex="004B"/>
  <outline>
	<contour>
	  <point x="615" y="758" type="line"/>
	  <point x="542" y="758" type="line"/>
	  <point x="158" y="371" type="line"/>
	  <point x="156" y="296" type="line"/>
	</contour>
	<contour>
	  <point x="120" y="758" type="line"/>
	  <point x="120" y="0" type="line"/>
	  <point x="176" y="0" type="line"/>
	  <point x="176" y="758" type="line"/>
	</contour>
	<contour>
	  <point x="206" y="413" type="line"/>
	  <point x="545" y="0" type="line"/>
	  <point x="620" y="0" type="line"/>
	  <point x="252" y="450" type="line"/>
	</contour>
	<contour>
	  <point x="338" y="758" type="move" name="Accent"/>
	</contour>
	<contour>
	  <point x="325" y="0" type="move" name="bottomaccent"/>
	</contour>
  </outline>
</glyph>
<glyph name="L" format="1">
  <advance width="554"/>
  <unicode hex="004C"/>
  <outline>
	<contour>
	  <point x="120" y="758" type="line"/>
	  <point x="120" y="0" type="line"/>
	  <point x="176" y="0" type="line"/>
	  <point x="176" y="758" type="line"/>
	</contour>
	<contour>
	  <point x="161" y="0" type="line"/>
	  <point x="514" y="0" type="line"/>
	  <point x="514" y="54" type="line"/>
	  <point x="161" y="54" type="line"/>
	</contour>
	<contour>
	  <point x="148" y="758" type="move" name="Accent"/>
	</contour>
	<contour>
	  <point x="314" y="0" type="move" name="bottomaccent"/>
	</contour>
  </outline>
</glyph>
<glyph name="M" format="1">
  <advance width="906"/>
  <unicode hex="004D"/>
  <outline>
	<contour>
	  <point x="730" y="758" type="line"/>
	  <point x="439" y="360" type="line"/>
	  <point x="467" y="360" type="line"/>
	  <point x="176" y="758" type="line"/>
	  <point x="120" y="758" type="line"/>
	  <point x="120" y="0" type="line"/>
	  <point x="176" y="0" type="line"/>
	  <point x="176" y="687" type="line"/>
	  <point x="162" y="683" type="line"/>
	  <point x="437" y="306" type="line"/>
	  <point x="469" y="306" type="line"/>
	  <point x="744" y="683" type="line"/>
	  <point x="730" y="687" type="line"/>
	  <point x="730" y="0" type="line"/>
	  <point x="786" y="0" type="line"/>
	  <point x="786" y="758" type="line"/>
	</contour>
	<contour>
	  <point x="453" y="758" type="move" name="Accent"/>
	</contour>
  </outline>
</glyph>
<glyph name="N" format="1">
  <advance width="775"/>
  <unicode hex="004E"/>
  <outline>
	<contour>
	  <point x="599" y="758" type="line"/>
	  <point x="599" y="79" type="line"/>
	  <point x="612" y="83" type="line"/>
	  <point x="175" y="758" type="line"/>
	  <point x="120" y="758" type="line"/>
	  <point x="120" y="0" type="line"/>
	  <point x="176" y="0" type="line"/>
	  <point x="176" y="679" type="line"/>
	  <point x="163" y="675" type="line"/>
	  <point x="600" y="0" type="line"/>
	  <point x="655" y="0" type="line"/>
	  <point x="655" y="758" type="line"/>
	</contour>
	<contour>
	  <point x="403" y="758" type="move" name="Accent"/>
	</contour>
	<contour>
	  <point x="366" y="0" type="move" name="bottomaccent"/>
	</contour>
  </outline>
</glyph>
<glyph name="O" format="1">
  <advance width="829"/>
  <unicode hex="004F"/>
  <outline>
	<contour>
	  <point x="182" y="772"/>
	  <point x="67" y="594"/>
	  <point x="67" y="378" type="curve" smooth="yes"/>
	  <point x="67" y="157"/>
	  <point x="182" y="-17"/>
	  <point x="415" y="-17" type="curve" smooth="yes"/>
	  <point x="645" y="-17"/>
	  <point x="762" y="157"/>
	  <point x="762" y="378" type="curve" smooth="yes"/>
	  <point x="762" y="594"/>
	  <point x="645" y="772"/>
	  <point x="415" y="772" type="curve" smooth="yes"/>
	</contour>
	<contour>
	  <point x="600" y="720"/>
	  <point x="705" y="565"/>
	  <point x="704" y="378" type="curve" smooth="yes"/>
	  <point x="703" y="187"/>
	  <point x="600" y="35"/>
	  <point x="415" y="35" type="curve" smooth="yes"/>
	  <point x="224" y="35"/>
	  <point x="125" y="187"/>
	  <point x="125" y="378" type="curve" smooth="yes"/>
	  <point x="125" y="565"/>
	  <point x="224" y="720"/>
	  <point x="415" y="720" type="curve" smooth="yes"/>
	</contour>
	<contour>
	  <point x="415" y="758" type="move" name="Accent"/>
	</contour>
	<contour>
	  <point x="415" y="0" type="move" name="bottomaccent"/>
	</contour>
  </outline>
</glyph>
<glyph name="P" format="1">
  <advance width="642"/>
  <unicode hex="0050"/>
  <outline>
	<contour>
	  <point x="120" y="758" type="line"/>
	  <point x="120" y="0" type="line"/>
	  <point x="176" y="0" type="line"/>
	  <point x="176" y="758" type="line"/>
	</contour>
	<contour>
	  <point x="160" y="758" type="line"/>
	  <point x="160" y="706" type="line"/>
	  <point x="365" y="706" type="line"/>
	  <point x="476" y="706"/>
	  <point x="535" y="659"/>
	  <point x="534" y="545" type="curve" smooth="yes"/>
	  <point x="533" y="438"/>
	  <point x="476" y="386"/>
	  <point x="365" y="386" type="curve"/>
	  <point x="159" y="386" type="line"/>
	  <point x="159" y="334" type="line"/>
	  <point x="365" y="334" type="line"/>
	  <point x="518" y="334"/>
	  <point x="592" y="409"/>
	  <point x="592" y="545" type="curve" smooth="yes"/>
	  <point x="592" y="686"/>
	  <point x="518" y="758"/>
	  <point x="365" y="758" type="curve"/>
	</contour>
	<contour>
	  <point x="365" y="758" type="move" name="Accent"/>
	</contour>
  </outline>
</glyph>
<glyph name="Q" format="1">
  <advance width="829"/>
  <unicode hex="0051"/>
  <outline>
	<contour>
	  <point x="632" y="72" type="line"/>
	  <point x="489" y="237" type="line"/>
	  <point x="419" y="237" type="line"/>
	  <point x="583" y="47" type="line"/>
	  <point x="678" y="-64" type="line"/>
	  <point x="752" y="-64" type="line"/>
	</contour>
	<component base="O"/>
  </outline>
</glyph>
<glyph name="S" format="1">
  <advance width="629"/>
  <unicode hex="0053"/>
  <outline>
	<contour>
	  <point x="557" y="323"/>
	  <point x="468" y="365"/>
	  <point x="366" y="393" type="curve" smooth="yes"/>
	  <point x="297" y="412" type="line" smooth="yes"/>
	  <point x="214" y="435"/>
	  <point x="148" y="467"/>
	  <point x="147" y="562" type="curve"/>
	  <point x="147" y="655"/>
	  <point x="196" y="720"/>
	  <point x="312" y="720" type="curve" smooth="yes"/>
	  <point x="395" y="720"/>
	  <point x="461" y="700"/>
	  <point x="520" y="669" type="curve"/>
	  <point x="520" y="725" type="line"/>
	  <point x="458" y="754"/>
	  <point x="400" y="772"/>
	  <point x="312" y="772" type="curve" smooth="yes"/>
	  <point x="172" y="772"/>
	  <point x="89" y="701"/>
	  <point x="89" y="563" type="curve" smooth="yes"/>
	  <point x="89" y="426"/>
	  <point x="183" y="385"/>
	  <point x="276" y="358" type="curve" smooth="yes"/>
	  <point x="344" y="339" type="line" smooth="yes"/>
	  <point x="422" y="317"/>
	  <point x="499" y="283"/>
	  <point x="499" y="188" type="curve" smooth="yes"/>
	  <point x="498" y="103"/>
	  <point x="449" y="35"/>
	  <point x="315" y="35" type="curve" smooth="yes"/>
	  <point x="233" y="35"/>
	  <point x="146" y="50"/>
	  <point x="66" y="92" type="curve"/>
	  <point x="66" y="36" type="line"/>
	  <point x="141" y="0"/>
	  <point x="221" y="-17"/>
	  <point x="315" y="-17" type="curve" smooth="yes"/>
	  <point x="465" y="-17"/>
	  <point x="556" y="61"/>
	  <point x="557" y="187" type="curve"/>
	</contour>
	<contour>
	  <point x="322" y="758" type="move" name="Accent"/>
	</contour>
	<contour>
	  <point x="315" y="0" type="move" name="bottomaccent"/>
	</contour>
  </outline>
</glyph>
<glyph name="T" format="1">
  <advance width="614"/>
  <unicode hex="0054"/>
  <outline>
	<contour>
	  <point x="335" y="0" type="line"/>
	  <point x="335" y="758" type="line"/>
	  <point x="279" y="758" type="line"/>
	  <point x="279" y="0" type="line"/>
	</contour>
	<contour>
	  <point x="574" y="704" type="line"/>
	  <point x="574" y="758" type="line"/>
	  <point x="319" y="758" type="line"/>
	  <point x="319" y="704" type="line"/>
	</contour>
	<contour>
	  <point x="295" y="758" type="line"/>
	  <point x="40" y="758" type="line"/>
	  <point x="40" y="704" type="line"/>
	  <point x="295" y="704" type="line"/>
	</contour>
	<contour>
	  <point x="307" y="758" type="move" name="Accent"/>
	</contour>
	<contour>
	  <point x="304" y="0" type="move" name="bottomaccent"/>
	</contour>
  </outline>
</glyph>
<glyph name="U" format="1">
  <advance width="766"/>
  <unicode hex="0055"/>
  <outline>
	<contour>
	  <point x="115" y="83"/>
	  <point x="200" y="-17"/>
	  <point x="383" y="-17" type="curve" smooth="yes"/>
	  <point x="567" y="-17"/>
	  <point x="651" y="83"/>
	  <point x="651" y="248" type="curve" smooth="yes"/>
	  <point x="651" y="758" type="line"/>
	  <point x="595" y="758" type="line"/>
	  <point x="595" y="248" type="line" smooth="yes"/>
	  <point x="595" y="108"/>
	  <point x="524" y="35"/>
	  <point x="383" y="35" type="curve" smooth="yes"/>
	  <point x="242" y="35"/>
	  <point x="171" y="108"/>
	  <point x="171" y="248" type="curve" smooth="yes"/>
	  <point x="171" y="758" type="line"/>
	  <point x="115" y="758" type="line"/>
	  <point x="115" y="248" type="line" smooth="yes"/>
	</contour>
	<contour>
	  <point x="383" y="758" type="move" name="Accent"/>
	</contour>
	<contour>
	  <point x="434" y="0" type="move" name="ogonek"/>
	</contour>
  </outline>
</glyph>
<glyph name="V" format="1">
  <advance width="709"/>
  <unicode hex="0056"/>
  <outline>
	<contour>
	  <point x="674" y="758" type="line"/>
	  <point x="614" y="758" type="line"/>
	  <point x="347" y="63" type="line"/>
	  <point x="363" y="63" type="line"/>
	  <point x="95" y="758" type="line"/>
	  <point x="35" y="758" type="line"/>
	  <point x="331" y="-9" type="line"/>
	  <point x="379" y="-9" type="line"/>
	</contour>
	<contour>
	  <point x="355" y="758" type="move" name="Accent"/>
	</contour>
  </outline>
</glyph>
<glyph name="W" format="1">
  <advance width="1048"/>
  <unicode hex="0057"/>
  <outline>
	<contour>
	  <point x="953" y="758" type="line"/>
	  <point x="746" y="63" type="line"/>
	  <point x="762" y="63" type="line"/>
	  <point x="554" y="758" type="line"/>
	  <point x="494" y="758" type="line"/>
	  <point x="288" y="67" type="line"/>
	  <point x="302" y="67" type="line"/>
	  <point x="95" y="758" type="line"/>
	  <point x="35" y="758" type="line"/>
	  <point x="271" y="-9" type="line"/>
	  <point x="319" y="-9" type="line"/>
	  <point x="531" y="684" type="line"/>
	  <point x="517" y="684" type="line"/>
	  <point x="730" y="-9" type="line"/>
	  <point x="778" y="-9" type="line"/>
	  <point x="1013" y="758" type="line"/>
	</contour>
	<contour>
	  <point x="524" y="758" type="move" name="Accent"/>
	</contour>
  </outline>
</glyph>
<glyph name="X" format="1">
  <advance width="706"/>
  <unicode hex="0058"/>
  <outline>
	<contour>
	  <point x="354" y="428" type="line"/>
	  <point x="333" y="413" type="line"/>
	  <point x="49" y="0" type="line"/>
	  <point x="117" y="0" type="line"/>
	  <point x="361" y="360" type="line"/>
	  <point x="385" y="378" type="line"/>
	  <point x="644" y="758" type="line"/>
	  <point x="577" y="758" type="line"/>
	</contour>
	<contour>
	  <point x="67" y="758" type="line"/>
	  <point x="326" y="378" type="line"/>
	  <point x="350" y="360" type="line"/>
	  <point x="593" y="0" type="line"/>
	  <point x="661" y="0" type="line"/>
	  <point x="378" y="413" type="line"/>
	  <point x="357" y="428" type="line"/>
	  <point x="134" y="758" type="line"/>
	</contour>
	<contour>
	  <point x="353" y="758" type="move" name="Accent"/>
	</contour>
  </outline>
</glyph>
<glyph name="Y" format="1">
  <advance width="703"/>
  <unicode hex="0059"/>
  <outline>
	<contour>
	  <point x="668" y="758" type="line"/>
	  <point x="608" y="758" type="line"/>
	  <point x="343" y="328" type="line"/>
	  <point x="359" y="328" type="line"/>
	  <point x="95" y="758" type="line"/>
	  <point x="35" y="758" type="line"/>
	  <point x="327" y="286" type="line"/>
	  <point x="375" y="286" type="line"/>
	</contour>
	<contour>
	  <point x="323" y="339" type="line"/>
	  <point x="323" y="0" type="line"/>
	  <point x="379" y="0" type="line"/>
	  <point x="379" y="339" type="line"/>
	</contour>
	<contour>
	  <point x="351" y="758" type="move" name="Accent"/>
	</contour>
  </outline>
</glyph>
<glyph name="Z" format="1">
  <advance width="708"/>
  <unicode hex="005A"/>
  <outline>
	<contour>
	  <point x="120" y="54" type="line"/>
	  <point x="133" y="34" type="line"/>
	  <point x="595" y="706" type="line"/>
	  <point x="595" y="758" type="line"/>
	  <point x="93" y="758" type="line"/>
	  <point x="93" y="704" type="line"/>
	  <point x="556" y="704" type="line"/>
	  <point x="543" y="724" type="line"/>
	  <point x="80" y="52" type="line"/>
	  <point x="80" y="0" type="line"/>
	  <point x="628" y="0" type="line"/>
	  <point x="628" y="54" type="line"/>
	</contour>
	<contour>
	  <point x="347" y="758" type="move" name="Accent"/>
	</contour>
  </outline>
</glyph>
<glyph name="bracketleft" format="1">
  <advance width="324"/>
  <unicode hex="005B"/>
  <outline>
	<contour>
	  <point x="120" y="847" type="line"/>
	  <point x="120" y="-129" type="line"/>
	  <point x="176" y="-129" type="line"/>
	  <point x="176" y="847" type="line"/>
	</contour>
	<contour>
	  <point x="161" y="-129" type="line"/>
	  <point x="264" y="-129" type="line"/>
	  <point x="264" y="-75" type="line"/>
	  <point x="161" y="-75" type="line"/>
	</contour>
	<contour>
	  <point x="161" y="793" type="line"/>
	  <point x="259" y="793" type="line"/>
	  <point x="259" y="847" type="line"/>
	  <point x="161" y="847" type="line"/>
	</contour>
  </outline>
</glyph>
<glyph name="backslash" format="1">
  <advance width="397"/>
  <unicode hex="005C"/>
  <outline>
	<contour>
	  <point x="71" y="931" type="line"/>
	  <point x="15" y="931" type="line"/>
	  <point x="326" y="-177" type="line"/>
	  <point x="382" y="-177" type="line"/>
	</contour>
  </outline>
</glyph>
<glyph name="bracketright" format="1">
  <advance width="324"/>
  <unicode hex="005D"/>
  <outline>
	<contour>
	  <point x="148" y="-129" type="line"/>
	  <point x="204" y="-129" type="line"/>
	  <point x="204" y="847" type="line"/>
	  <point x="148" y="847" type="line"/>
	</contour>
	<contour>
	  <point x="60" y="-75" type="line"/>
	  <point x="60" y="-129" type="line"/>
	  <point x="163" y="-129" type="line"/>
	  <point x="163" y="-75" type="line"/>
	</contour>
	<contour>
	  <point x="65" y="847" type="line"/>
	  <point x="65" y="793" type="line"/>
	  <point x="163" y="793" type="line"/>
	  <point x="163" y="847" type="line"/>
	</contour>
  </outline>
</glyph>
<glyph name="asciicircum" format="1">
  <advance width="550"/>
  <unicode hex="005E"/>
  <outline>
	<contour>
	  <point x="79" y="138" type="line"/>
	  <point x="290" y="496" type="line"/>
	  <point x="260" y="496" type="line"/>
	  <point x="471" y="138" type="line"/>
	  <point x="516" y="165" type="line"/>
	  <point x="296" y="536" type="line"/>
	  <point x="254" y="536" type="line"/>
	  <point x="34" y="167" type="line"/>
	</contour>
  </outline>
</glyph>
<glyph name="grave" format="1">
  <advance width="649"/>
  <unicode hex="0060"/>
  <outline>
	<contour>
	  <point x="303" y="656" type="line"/>
	  <point x="358" y="656" type="line"/>
	  <point x="250" y="809" type="line"/>
	  <point x="182" y="809" type="line"/>
	</contour>
	<contour>
	  <point x="326" y="546" type="move" name="_accent"/>
	</contour>
  </outline>
</glyph>
<glyph name="a" format="1">
  <advance width="493"/>
  <unicode hex="0061"/>
  <outline>
	<contour>
	  <point x="176" y="546" type="line"/>
	  <point x="176" y="496" type="line"/>
	  <point x="230" y="496" type="line" smooth="yes"/>
	  <point x="366" y="496"/>
	  <point x="374" y="423"/>
	  <point x="374" y="303" type="curve" smooth="yes"/>
	  <point x="374" y="0" type="line"/>
	  <point x="428" y="0" type="line"/>
	  <point x="428" y="313" type="line" smooth="yes"/>
	  <point x="428" y="445"/>
	  <point x="406" y="546"/>
	  <point x="245" y="546" type="curve" smooth="yes"/>
	</contour>
	<contour>
	  <point x="358" y="344"/>
	  <point x="292" y="362"/>
	  <point x="240" y="362" type="curve" smooth="yes"/>
	  <point x="120" y="362"/>
	  <point x="35" y="295"/>
	  <point x="35" y="173" type="curve" smooth="yes"/>
	  <point x="35" y="55"/>
	  <point x="119" y="-13"/>
	  <point x="210" y="-13" type="curve" smooth="yes"/>
	  <point x="279" y="-13"/>
	  <point x="337" y="16"/>
	  <point x="399" y="85" type="curve"/>
	  <point x="398" y="139" type="line"/>
	  <point x="336" y="70"/>
	  <point x="268" y="41"/>
	  <point x="210" y="41" type="curve" smooth="yes"/>
	  <point x="161" y="41"/>
	  <point x="91" y="72"/>
	  <point x="91" y="173" type="curve" smooth="yes"/>
	  <point x="91" y="280"/>
	  <point x="171" y="308"/>
	  <point x="240" y="308" type="curve" smooth="yes"/>
	  <point x="288" y="308"/>
	  <point x="347" y="297"/>
	  <point x="395" y="264" type="curve"/>
	  <point x="401" y="312" type="line"/>
	</contour>
	<contour>
	  <point x="265" y="546" type="move" name="accent"/>
	</contour>
  </outline>
</glyph>
<glyph name="c" format="1">
  <advance width="546"/>
  <unicode hex="0063"/>
  <outline>
	<contour>
	  <point x="67" y="102"/>
	  <point x="156" y="-16"/>
	  <point x="325" y="-17" type="curve" smooth="yes"/>
	  <point x="388" y="-17"/>
	  <point x="450" y="-1"/>
	  <point x="508" y="28" type="curve"/>
	  <point x="488" y="78" type="line"/>
	  <point x="435" y="54"/>
	  <point x="380" y="37"/>
	  <point x="325" y="37" type="curve" smooth="yes"/>
	  <point x="176" y="38"/>
	  <point x="123" y="144"/>
	  <point x="123" y="275" type="curve"/>
	  <point x="123" y="403"/>
	  <point x="176" y="507"/>
	  <point x="325" y="508" type="curve"/>
	  <point x="374" y="508"/>
	  <point x="414" y="501"/>
	  <point x="464" y="477" type="curve"/>
	  <point x="464" y="535" type="line"/>
	  <point x="419" y="553"/>
	  <point x="383" y="562"/>
	  <point x="325" y="562" type="curve"/>
	  <point x="156" y="561"/>
	  <point x="67" y="444"/>
	  <point x="67" y="274" type="curve"/>
	</contour>
	<contour>
	  <point x="305" y="0" type="move" name="bottomaccent"/>
	</contour>
	<contour>
	  <point x="306" y="546" type="move" name="accent"/>
	</contour>
  </outline>
</glyph>
<glyph name="d" format="1">
  <advance width="623"/>
  <unicode hex="0064"/>
  <outline>
	<contour>
	  <point x="469" y="0" type="line"/>
	  <point x="523" y="0" type="line"/>
	  <point x="523" y="846" type="line"/>
	  <point x="469" y="846" type="line"/>
	</contour>
	<contour>
	  <point x="67" y="78"/>
	  <point x="164" y="-17"/>
	  <point x="305" y="-17" type="curve" smooth="yes"/>
	  <point x="376" y="-17"/>
	  <point x="447" y="30"/>
	  <point x="497" y="85" type="curve"/>
	  <point x="497" y="139" type="line"/>
	  <point x="446" y="83"/>
	  <point x="380" y="37"/>
	  <point x="305" y="37" type="curve" smooth="yes"/>
	  <point x="185" y="37"/>
	  <point x="123" y="119"/>
	  <point x="123" y="273" type="curve"/>
	  <point x="123" y="426"/>
	  <point x="185" y="508"/>
	  <point x="305" y="508" type="curve" smooth="yes"/>
	  <point x="380" y="508"/>
	  <point x="446" y="462"/>
	  <point x="497" y="406" type="curve"/>
	  <point x="497" y="460" type="line"/>
	  <point x="447" y="515"/>
	  <point x="376" y="562"/>
	  <point x="305" y="562" type="curve" smooth="yes"/>
	  <point x="164" y="562"/>
	  <point x="67" y="467"/>
	  <point x="67" y="273" type="curve"/>
	</contour>
	<contour>
	  <point x="305" y="546" type="move" name="accent"/>
	</contour>
  </outline>
</glyph>
<glyph name="e" format="1">
  <advance width="572"/>
  <unicode hex="0065"/>
  <outline>
	<contour>
	  <point x="176" y="37"/>
	  <point x="123" y="145"/>
	  <point x="123" y="275" type="curve" smooth="yes"/>
	  <point x="123" y="434"/>
	  <point x="195" y="508"/>
	  <point x="305" y="508" type="curve" smooth="yes"/>
	  <point x="416" y="508"/>
	  <point x="466" y="446"/>
	  <point x="466" y="310" type="curve"/>
	  <point x="466" y="289" type="line"/>
	  <point x="522" y="289" type="line"/>
	  <point x="522" y="310" type="line"/>
	  <point x="521" y="475"/>
	  <point x="437" y="562"/>
	  <point x="305" y="562" type="curve" smooth="yes"/>
	  <point x="173" y="562"/>
	  <point x="67" y="463"/>
	  <point x="67" y="274" type="curve" smooth="yes"/>
	  <point x="67" y="102"/>
	  <point x="156" y="-17"/>
	  <point x="325" y="-17" type="curve"/>
	  <point x="388" y="-17"/>
	  <point x="451" y="-1"/>
	  <point x="508" y="28" type="curve"/>
	  <point x="488" y="78" type="line"/>
	  <point x="435" y="54"/>
	  <point x="380" y="37"/>
	  <point x="325" y="37" type="curve"/>
	</contour>
	<contour>
	  <point x="108" y="289" type="line"/>
	  <point x="477" y="289" type="line"/>
	  <point x="477" y="343" type="line"/>
	  <point x="108" y="343" type="line"/>
	</contour>
	<contour>
	  <point x="305" y="546" type="move" name="accent"/>
	</contour>
  </outline>
</glyph>
<glyph name="f" format="1">
  <advance width="298"/>
  <unicode hex="0066"/>
  <outline>
	<contour>
	  <point x="144" y="859"/>
	  <point x="109" y="833"/>
	  <point x="109" y="738" type="curve" smooth="yes"/>
	  <point x="109" y="0" type="line"/>
	  <point x="163" y="0" type="line"/>
	  <point x="163" y="732" type="line" smooth="yes"/>
	  <point x="163" y="789"/>
	  <point x="177" y="805"/>
	  <point x="227" y="805" type="curve" smooth="yes"/>
	  <point x="242" y="805"/>
	  <point x="258" y="804"/>
	  <point x="273" y="801" type="curve"/>
	  <point x="273" y="855" type="line"/>
	  <point x="258" y="858"/>
	  <point x="243" y="859"/>
	  <point x="232" y="859" type="curve" smooth="yes"/>
	</contour>
	<contour>
	  <point x="41" y="492" type="line"/>
	  <point x="273" y="492" type="line"/>
	  <point x="273" y="546" type="line"/>
	  <point x="41" y="546" type="line"/>
	</contour>
	<contour>
	  <point x="232" y="845" type="move" name="accent"/>
	</contour>
  </outline>
</glyph>
<glyph name="g" format="1">
  <advance width="600"/>
  <unicode hex="0067"/>
  <outline>
	<contour>
	  <point x="496" y="-251"/>
	  <point x="523" y="-150"/>
	  <point x="523" y="-18" type="curve" smooth="yes"/>
	  <point x="523" y="546" type="line"/>
	  <point x="469" y="546" type="line"/>
	  <point x="469" y="-8" type="line" smooth="yes"/>
	  <point x="469" y="-126"/>
	  <point x="459" y="-197"/>
	  <point x="285" y="-197" type="curve" smooth="yes"/>
	  <point x="232" y="-197"/>
	  <point x="175" y="-181"/>
	  <point x="121" y="-155" type="curve"/>
	  <point x="121" y="-215" type="line"/>
	  <point x="182" y="-241"/>
	  <point x="226" y="-251"/>
	  <point x="300" y="-251" type="curve" smooth="yes"/>
	</contour>
	<contour>
	  <point x="67" y="105"/>
	  <point x="164" y="3"/>
	  <point x="305" y="3" type="curve" smooth="yes"/>
	  <point x="376" y="3"/>
	  <point x="447" y="50"/>
	  <point x="497" y="105" type="curve"/>
	  <point x="497" y="159" type="line"/>
	  <point x="446" y="103"/>
	  <point x="380" y="57"/>
	  <point x="305" y="57" type="curve" smooth="yes"/>
	  <point x="185" y="57"/>
	  <point x="123" y="145"/>
	  <point x="123" y="283" type="curve"/>
	  <point x="123" y="419"/>
	  <point x="185" y="508"/>
	  <point x="305" y="508" type="curve" smooth="yes"/>
	  <point x="380" y="508"/>
	  <point x="446" y="462"/>
	  <point x="497" y="406" type="curve"/>
	  <point x="497" y="460" type="line"/>
	  <point x="447" y="515"/>
	  <point x="376" y="562"/>
	  <point x="305" y="562" type="curve" smooth="yes"/>
	  <point x="164" y="562"/>
	  <point x="67" y="470"/>
	  <point x="67" y="283" type="curve"/>
	</contour>
	<contour>
	  <point x="305" y="546" type="move" name="accent"/>
	</contour>
  </outline>
</glyph>
<glyph name="i" format="1">
  <advance width="254"/>
  <unicode hex="0069"/>
  <outline>
	<contour>
	  <point x="100" y="546" type="line"/>
	  <point x="100" y="0" type="line"/>
	  <point x="154" y="0" type="line"/>
	  <point x="154" y="546" type="line"/>
	</contour>
	<contour>
	  <point x="100" y="808" type="line"/>
	  <point x="100" y="657" type="line"/>
	  <point x="154" y="657" type="line"/>
	  <point x="154" y="808" type="line"/>
	</contour>
  </outline>
</glyph>
<glyph name="k" format="1">
  <advance width="547"/>
  <unicode hex="006B"/>
  <outline>
	<contour>
	  <point x="477" y="546" type="line"/>
	  <point x="405" y="546" type="line"/>
	  <point x="146" y="285" type="line"/>
	  <point x="146" y="213" type="line"/>
	</contour>
	<contour>
	  <point x="100" y="846" type="line"/>
	  <point x="100" y="0" type="line"/>
	  <point x="154" y="0" type="line"/>
	  <point x="154" y="846" type="line"/>
	</contour>
	<contour>
	  <point x="210" y="303" type="line"/>
	  <point x="449" y="0" type="line"/>
	  <point x="517" y="0" type="line"/>
	  <point x="249" y="340" type="line"/>
	</contour>
	<contour>
	  <point x="283" y="0" type="move" name="bottomaccent"/>
	</contour>
	<contour>
	  <point x="127" y="846" type="move" name="accent"/>
	</contour>
  </outline>
</glyph>
<glyph name="l" format="1">
  <advance width="289"/>
  <unicode hex="006C"/>
  <outline>
	<contour>
	  <point x="234" y="-13"/>
	  <point x="249" y="-12"/>
	  <point x="264" y="-9" type="curve"/>
	  <point x="264" y="45" type="line"/>
	  <point x="249" y="42"/>
	  <point x="233" y="41"/>
	  <point x="218" y="41" type="curve" smooth="yes"/>
	  <point x="168" y="41"/>
	  <point x="154" y="57"/>
	  <point x="154" y="114" type="curve" smooth="yes"/>
	  <point x="154" y="846" type="line"/>
	  <point x="100" y="846" type="line"/>
	  <point x="100" y="108" type="line" smooth="yes"/>
	  <point x="100" y="13"/>
	  <point x="135" y="-13"/>
	  <point x="223" y="-13" type="curve" smooth="yes"/>
	</contour>
	<contour>
	  <point x="197" y="0" type="move" name="bottomaccent"/>
	</contour>
	<contour>
	  <point x="127" y="846" type="move" name="accent"/>
	</contour>
  </outline>
</glyph>
<glyph name="m" format="1">
  <advance width="950"/>
  <unicode hex="006D"/>
  <outline>
	<contour>
	  <point x="253" y="558"/>
	  <point x="176" y="509"/>
	  <point x="126" y="451" type="curve"/>
	  <point x="126" y="397" type="line"/>
	  <point x="177" y="456"/>
	  <point x="249" y="504"/>
	  <point x="328" y="504" type="curve" smooth="yes"/>
	  <point x="430" y="504"/>
	  <point x="463" y="458"/>
	  <point x="463" y="330" type="curve" smooth="yes"/>
	  <point x="463" y="0" type="line"/>
	  <point x="517" y="0" type="line"/>
	  <point x="517" y="330" type="line" smooth="yes"/>
	  <point x="517" y="499"/>
	  <point x="454" y="558"/>
	  <point x="328" y="558" type="curve" smooth="yes"/>
	</contour>
	<contour>
	  <point x="100" y="546" type="line"/>
	  <point x="100" y="0" type="line"/>
	  <point x="154" y="0" type="line"/>
	  <point x="154" y="546" type="line"/>
	</contour>
	<contour>
	  <point x="616" y="558"/>
	  <point x="539" y="509"/>
	  <point x="489" y="451" type="curve"/>
	  <point x="489" y="387" type="line"/>
	  <point x="540" y="452"/>
	  <point x="612" y="504"/>
	  <point x="691" y="504" type="curve" smooth="yes"/>
	  <point x="793" y="504"/>
	  <point x="826" y="458"/>
	  <point x="826" y="330" type="curve" smooth="yes"/>
	  <point x="826" y="0" type="line"/>
	  <point x="880" y="0" type="line"/>
	  <point x="880" y="330" type="line" smooth="yes"/>
	  <point x="880" y="499"/>
	  <point x="817" y="558"/>
	  <point x="691" y="558" type="curve" smooth="yes"/>
	</contour>
	<contour>
	  <point x="490" y="546" type="move" name="accent"/>
	</contour>
  </outline>
</glyph>
<glyph name="n" format="1">
  <advance width="612"/>
  <unicode hex="006E"/>
  <outline>
	<contour>
	  <point x="253" y="558"/>
	  <point x="176" y="509"/>
	  <point x="126" y="451" type="curve"/>
	  <point x="126" y="397" type="line"/>
	  <point x="177" y="456"/>
	  <point x="249" y="504"/>
	  <point x="328" y="504" type="curve" smooth="yes"/>
	  <point x="430" y="504"/>
	  <point x="463" y="458"/>
	  <point x="463" y="330" type="curve" smooth="yes"/>
	  <point x="463" y="0" type="line"/>
	  <point x="517" y="0" type="line"/>
	  <point x="517" y="330" type="line" smooth="yes"/>
	  <point x="517" y="499"/>
	  <point x="454" y="558"/>
	  <point x="328" y="558" type="curve" smooth="yes"/>
	</contour>
	<contour>
	  <point x="100" y="546" type="line"/>
	  <point x="100" y="0" type="line"/>
	  <point x="154" y="0" type="line"/>
	  <point x="154" y="546" type="line"/>
	</contour>
	<contour>
	  <point x="313" y="0" type="move" name="bottomaccent"/>
	</contour>
	<contour>
	  <point x="308" y="546" type="move" name="accent"/>
	</contour>
  </outline>
</glyph>
<glyph name="o" format="1">
  <advance width="649"/>
  <unicode hex="006F"/>
  <outline>
	<contour>
	  <point x="153" y="562"/>
	  <point x="67" y="433"/>
	  <point x="67" y="273" type="curve" smooth="yes"/>
	  <point x="67" y="112"/>
	  <point x="153" y="-17"/>
	  <point x="325" y="-17" type="curve" smooth="yes"/>
	  <point x="497" y="-17"/>
	  <point x="582" y="112"/>
	  <point x="582" y="273" type="curve" smooth="yes"/>
	  <point x="582" y="433"/>
	  <point x="497" y="562"/>
	  <point x="325" y="562" type="curve" smooth="yes"/>
	</contour>
	<contour>
	  <point x="456" y="508"/>
	  <point x="526" y="403"/>
	  <point x="526" y="273" type="curve" smooth="yes"/>
	  <point x="526" y="143"/>
	  <point x="456" y="37"/>
	  <point x="325" y="37" type="curve" smooth="yes"/>
	  <point x="193" y="37"/>
	  <point x="123" y="143"/>
	  <point x="123" y="273" type="curve" smooth="yes"/>
	  <point x="123" y="403"/>
	  <point x="193" y="508"/>
	  <point x="325" y="508" type="curve" smooth="yes"/>
	</contour>
	<contour>
	  <point x="325" y="0" type="move" name="bottomaccent"/>
	</contour>
	<contour>
	  <point x="325" y="546" type="move" name="accent"/>
	</contour>
  </outline>
</glyph>
<glyph name="r" format="1">
  <advance width="381"/>
  <unicode hex="0072"/>
  <outline>
	<contour>
	  <point x="253" y="558"/>
	  <point x="176" y="509"/>
	  <point x="126" y="451" type="curve"/>
	  <point x="126" y="397" type="line"/>
	  <point x="177" y="456"/>
	  <point x="249" y="504"/>
	  <point x="328" y="504" type="curve"/>
	  <point x="351" y="504" type="line"/>
	  <point x="351" y="558" type="line"/>
	  <point x="328" y="558" type="line"/>
	</contour>
	<contour>
	  <point x="100" y="546" type="line"/>
	  <point x="100" y="0" type="line"/>
	  <point x="154" y="0" type="line"/>
	  <point x="154" y="546" type="line"/>
	</contour>
	<contour>
	  <point x="127" y="0" type="move" name="bottomaccent"/>
	</contour>
	<contour>
	  <point x="235" y="546" type="move" name="accent"/>
	</contour>
  </outline>
</glyph>
<glyph name="s" format="1">
  <advance width="488"/>
  <unicode hex="0073"/>
  <outline>
	<contour>
	  <point x="426" y="252"/>
	  <point x="357" y="278"/>
	  <point x="281" y="299" type="curve" smooth="yes"/>
	  <point x="231" y="313" type="line" smooth="yes"/>
	  <point x="174" y="329"/>
	  <point x="128" y="351"/>
	  <point x="128" y="417" type="curve"/>
	  <point x="128" y="461"/>
	  <point x="156" y="508"/>
	  <point x="242" y="508" type="curve" smooth="yes"/>
	  <point x="320" y="508"/>
	  <point x="360" y="487"/>
	  <point x="400" y="468" type="curve"/>
	  <point x="400" y="526" type="line"/>
	  <point x="354" y="548"/>
	  <point x="311" y="562"/>
	  <point x="242" y="562" type="curve" smooth="yes"/>
	  <point x="128" y="562"/>
	  <point x="72" y="502"/>
	  <point x="72" y="418" type="curve" smooth="yes"/>
	  <point x="72" y="308"/>
	  <point x="150" y="277"/>
	  <point x="215" y="259" type="curve" smooth="yes"/>
	  <point x="265" y="245" type="line" smooth="yes"/>
	  <point x="330" y="227"/>
	  <point x="370" y="207"/>
	  <point x="370" y="141" type="curve"/>
	  <point x="370" y="85"/>
	  <point x="339" y="37"/>
	  <point x="245" y="37" type="curve" smooth="yes"/>
	  <point x="180" y="37"/>
	  <point x="118" y="52"/>
	  <point x="56" y="87" type="curve"/>
	  <point x="56" y="24" type="line"/>
	  <point x="118" y="-5"/>
	  <point x="171" y="-17"/>
	  <point x="245" y="-17" type="curve" smooth="yes"/>
	  <point x="352" y="-17"/>
	  <point x="426" y="40"/>
	  <point x="426" y="140" type="curve"/>
	</contour>
	<contour>
	  <point x="245" y="0" type="move" name="bottomaccent"/>
	</contour>
	<contour>
	  <point x="242" y="546" type="move" name="accent"/>
	</contour>
  </outline>
</glyph>
<glyph name="t" format="1">
  <advance width="339"/>
  <unicode hex="0074"/>
  <outline>
	<contour>
	  <point x="253" y="-13"/>
	  <point x="271" y="-10"/>
	  <point x="293" y="-5" type="curve"/>
	  <point x="293" y="49" type="line"/>
	  <point x="270" y="44"/>
	  <point x="253" y="41"/>
	  <point x="227" y="41" type="curve" smooth="yes"/>
	  <point x="177" y="41"/>
	  <point x="163" y="57"/>
	  <point x="163" y="114" type="curve" smooth="yes"/>
	  <point x="163" y="736" type="line"/>
	  <point x="109" y="736" type="line"/>
	  <point x="109" y="114" type="line" smooth="yes"/>
	  <point x="109" y="19"/>
	  <point x="133" y="-13"/>
	  <point x="227" y="-13" type="curve" smooth="yes"/>
	</contour>
	<contour>
	  <point x="41" y="492" type="line"/>
	  <point x="291" y="492" type="line"/>
	  <point x="291" y="546" type="line"/>
	  <point x="41" y="546" type="line"/>
	</contour>
	<contour>
	  <point x="187" y="0" type="move" name="bottomaccent"/>
	</contour>
	<contour>
	  <point x="136" y="736" type="move" name="accent"/>
	</contour>
  </outline>
</glyph>
<glyph name="u" format="1">
  <advance width="612"/>
  <unicode hex="0075"/>
  <outline>
	<contour>
	  <point x="359" y="-12"/>
	  <point x="436" y="37"/>
	  <point x="486" y="95" type="curve"/>
	  <point x="486" y="149" type="line"/>
	  <point x="435" y="90"/>
	  <point x="363" y="42"/>
	  <point x="284" y="42" type="curve" smooth="yes"/>
	  <point x="182" y="42"/>
	  <point x="149" y="88"/>
	  <point x="149" y="216" type="curve" smooth="yes"/>
	  <point x="149" y="546" type="line"/>
	  <point x="95" y="546" type="line"/>
	  <point x="95" y="216" type="line" smooth="yes"/>
	  <point x="95" y="47"/>
	  <point x="158" y="-12"/>
	  <point x="284" y="-12" type="curve" smooth="yes"/>
	</contour>
	<contour>
	  <point x="512" y="0" type="line"/>
	  <point x="512" y="546" type="line"/>
	  <point x="458" y="546" type="line"/>
	  <point x="458" y="0" type="line"/>
	</contour>
	<contour>
	  <point x="485" y="0" type="move" name="bottomaccent"/>
	</contour>
	<contour>
	  <point x="302" y="546" type="move" name="accent"/>
	</contour>
  </outline>
</glyph>
<glyph name="v" format="1">
  <advance width="535"/>
  <unicode hex="0076"/>
  <outline>
	<contour>
	  <point x="515" y="546" type="line"/>
	  <point x="457" y="546" type="line"/>
	  <point x="263" y="63" type="line"/>
	  <point x="273" y="63" type="line"/>
	  <point x="78" y="546" type="line"/>
	  <point x="20" y="546" type="line"/>
	  <point x="244" y="-9" type="line"/>
	  <point x="292" y="-9" type="line"/>
	</contour>
	<contour>
	  <point x="268" y="546" type="move" name="accent"/>
	</contour>
  </outline>
</glyph>
<glyph name="w" format="1">
  <advance width="812"/>
  <unicode hex="0077"/>
  <outline>
	<contour>
	  <point x="435" y="546" type="line"/>
	  <point x="377" y="546" type="line"/>
	  <point x="223" y="63" type="line"/>
	  <point x="233" y="63" type="line"/>
	  <point x="78" y="546" type="line"/>
	  <point x="20" y="546" type="line"/>
	  <point x="204" y="-9" type="line"/>
	  <point x="252" y="-9" type="line"/>
	</contour>
	<contour>
	  <point x="792" y="546" type="line"/>
	  <point x="734" y="546" type="line"/>
	  <point x="580" y="63" type="line"/>
	  <point x="590" y="63" type="line"/>
	  <point x="435" y="546" type="line"/>
	  <point x="377" y="546" type="line"/>
	  <point x="561" y="-9" type="line"/>
	  <point x="609" y="-9" type="line"/>
	</contour>
	<contour>
	  <point x="406" y="546" type="move" name="accent"/>
	</contour>
  </outline>
</glyph>
<glyph name="x" format="1">
  <advance width="560"/>
  <unicode hex="0078"/>
  <outline>
	<contour>
	  <point x="277" y="319" type="line" smooth="yes"/>
	  <point x="254" y="302" type="line" smooth="yes"/>
	  <point x="42" y="0" type="line" smooth="yes"/>
	  <point x="110" y="0" type="line" smooth="yes"/>
	  <point x="286" y="255" type="line" smooth="yes"/>
	  <point x="309" y="272" type="line" smooth="yes"/>
	  <point x="509" y="546" type="line" smooth="yes"/>
	  <point x="443" y="546" type="line" smooth="yes"/>
	</contour>
	<contour>
	  <point x="52" y="546" type="line" smooth="yes"/>
	  <point x="252" y="272" type="line" smooth="yes"/>
	  <point x="266" y="255" type="line" smooth="yes"/>
	  <point x="450" y="0" type="line" smooth="yes"/>
	  <point x="518" y="0" type="line" smooth="yes"/>
	  <point x="294" y="305" type="line" smooth="yes"/>
	  <point x="284" y="319" type="line" smooth="yes"/>
	  <point x="120" y="546" type="line" smooth="yes"/>
	</contour>
	<contour>
	  <point x="281" y="546" type="move" name="accent"/>
	</contour>
  </outline>
</glyph>
<glyph name="y" format="1">
  <advance width="535"/>
  <unicode hex="0079"/>
  <outline>
	<contour>
	  <point x="273" y="63" type="line"/>
	  <point x="78" y="546" type="line"/>
	  <point x="20" y="546" type="line"/>
	  <point x="244" y="-9" type="line"/>
	</contour>
	<contour>
	  <point x="169" y="-171"/>
	  <point x="157" y="-197"/>
	  <point x="112" y="-197" type="curve" smooth="yes"/>
	  <point x="97" y="-197"/>
	  <point x="81" y="-196"/>
	  <point x="66" y="-193" type="curve"/>
	  <point x="66" y="-247" type="line"/>
	  <point x="81" y="-250"/>
	  <point x="96" y="-251"/>
	  <point x="107" y="-251" type="curve" smooth="yes"/>
	  <point x="199" y="-251"/>
	  <point x="209" y="-217"/>
	  <point x="260" y="-89" type="curve" smooth="yes"/>
	  <point x="515" y="546" type="line"/>
	  <point x="457" y="546" type="line"/>
	  <point x="204" y="-84" type="line" smooth="yes"/>
	</contour>
	<contour>
	  <point x="268" y="546" type="move" name="accent"/>
	</contour>
  </outline>
</glyph>
<glyph name="z" format="1">
  <advance width="517"/>
  <unicode hex="007A"/>
  <outline>
	<contour>
	  <point x="109" y="52" type="line"/>
	  <point x="118" y="34" type="line"/>
	  <point x="435" y="494" type="line"/>
	  <point x="435" y="546" type="line"/>
	  <point x="85" y="546" type="line"/>
	  <point x="85" y="494" type="line"/>
	  <point x="394" y="494" type="line"/>
	  <point x="385" y="512" type="line"/>
	  <point x="67" y="52" type="line"/>
	  <point x="67" y="0" type="line"/>
	  <point x="457" y="0" type="line"/>
	  <point x="457" y="52" type="line"/>
	</contour>
	<contour>
	  <point x="248" y="546" type="move" name="accent"/>
	</contour>
  </outline>
</glyph>
<glyph name="bar" format="1">
  <advance width="296"/>
  <unicode hex="007C"/>
  <outline>
	<contour>
	  <point x="120" y="847" type="line"/>
	  <point x="120" y="-129" type="line"/>
	  <point x="176" y="-129" type="line"/>
	  <point x="176" y="847" type="line"/>
	</contour>
  </outline>
</glyph>
<glyph name="asciitilde" format="1">
  <advance width="550"/>
  <unicode hex="007E"/>
  <outline>
	<contour>
	  <point x="71" y="297" type="line"/>
	  <point x="97" y="324"/>
	  <point x="137" y="367"/>
	  <point x="187" y="367" type="curve" smooth="yes"/>
	  <point x="254" y="367"/>
	  <point x="277" y="276"/>
	  <point x="370" y="276" type="curve" smooth="yes"/>
	  <point x="432" y="276"/>
	  <point x="472" y="316"/>
	  <point x="506" y="354" type="curve"/>
	  <point x="480" y="387" type="line"/>
	  <point x="454" y="362"/>
	  <point x="420" y="330"/>
	  <point x="370" y="330" type="curve" smooth="yes"/>
	  <point x="304" y="330"/>
	  <point x="286" y="419"/>
	  <point x="187" y="419" type="curve" smooth="yes"/>
	  <point x="121" y="419"/>
	  <point x="79" y="373"/>
	  <point x="44" y="331" type="curve"/>
	</contour>
  </outline>
</glyph>
<glyph name="exclamdown" format="1">
  <advance width="284"/>
  <unicode hex="00A1"/>
  <outline>
	<contour>
	  <point x="174" y="758" type="line"/>
	  <point x="110" y="758" type="line"/>
	  <point x="110" y="607" type="line"/>
	  <point x="174" y="607" type="line"/>
	</contour>
	<contour>
	  <point x="166" y="528" type="line"/>
	  <point x="118" y="528" type="line"/>
	  <point x="106" y="0" type="line"/>
	  <point x="178" y="0" type="line"/>
	</contour>
  </outline>
</glyph>
<glyph name="cent" format="1">
  <advance width="550"/>
  <unicode hex="00A2"/>
  <outline>
	<contour>
	  <point x="69" y="102"/>
	  <point x="158" y="-16"/>
	  <point x="327" y="-17" type="curve" smooth="yes"/>
	  <point x="390" y="-17"/>
	  <point x="452" y="-1"/>
	  <point x="510" y="28" type="curve"/>
	  <point x="490" y="78" type="line"/>
	  <point x="437" y="54"/>
	  <point x="382" y="37"/>
	  <point x="327" y="37" type="curve" smooth="yes"/>
	  <point x="178" y="38"/>
	  <point x="125" y="144"/>
	  <point x="125" y="275" type="curve"/>
	  <point x="125" y="403"/>
	  <point x="178" y="507"/>
	  <point x="327" y="508" type="curve"/>
	  <point x="376" y="508"/>
	  <point x="416" y="501"/>
	  <point x="466" y="477" type="curve"/>
	  <point x="466" y="535" type="line"/>
	  <point x="421" y="553"/>
	  <point x="385" y="562"/>
	  <point x="327" y="562" type="curve"/>
	  <point x="158" y="561"/>
	  <point x="69" y="444"/>
	  <point x="69" y="274" type="curve"/>
	</contour>
	<contour>
	  <point x="298" y="-96" type="line"/>
	  <point x="354" y="-96" type="line"/>
	  <point x="354" y="641" type="line"/>
	  <point x="298" y="641" type="line"/>
	</contour>
  </outline>
</glyph>
<glyph name="sterling" format="1">
  <advance width="550"/>
  <unicode hex="00A3"/>
  <outline>
	<contour>
	  <point x="47" y="0" type="line"/>
	  <point x="502" y="0" type="line"/>
	  <point x="502" y="54" type="line"/>
	  <point x="47" y="54" type="line"/>
	</contour>
	<contour>
	  <point x="193" y="688"/>
	  <point x="142" y="648"/>
	  <point x="142" y="497" type="curve" smooth="yes"/>
	  <point x="142" y="0" type="line"/>
	  <point x="196" y="0" type="line"/>
	  <point x="196" y="491" type="line" smooth="yes"/>
	  <point x="196" y="605"/>
	  <point x="221" y="634"/>
	  <point x="320" y="634" type="curve" smooth="yes"/>
	  <point x="351" y="634"/>
	  <point x="387" y="632"/>
	  <point x="426" y="613" type="curve"/>
	  <point x="426" y="670" type="line"/>
	  <point x="394" y="685"/>
	  <point x="349" y="688"/>
	  <point x="325" y="688" type="curve" smooth="yes"/>
	</contour>
	<contour>
	  <point x="77" y="324" type="line"/>
	  <point x="378" y="324" type="line"/>
	  <point x="378" y="378" type="line"/>
	  <point x="77" y="378" type="line"/>
	</contour>
  </outline>
</glyph>
<glyph name="currency" format="1">
  <advance width="550"/>
  <unicode hex="00A4"/>
  <outline>
	<contour>
	  <point x="40" y="537" type="line"/>
	  <point x="126" y="450" type="line"/>
	  <point x="101" y="419"/>
	  <point x="87" y="379"/>
	  <point x="87" y="336" type="curve" smooth="yes"/>
	  <point x="87" y="291"/>
	  <point x="102" y="250"/>
	  <point x="128" y="219" type="curve"/>
	  <point x="43" y="133" type="line"/>
	  <point x="75" y="100" type="line"/>
	  <point x="162" y="187" type="line"/>
	  <point x="193" y="164"/>
	  <point x="231" y="151"/>
	  <point x="272" y="151" type="curve" smooth="yes"/>
	  <point x="315" y="151"/>
	  <point x="354" y="165"/>
	  <point x="386" y="190" type="curve"/>
	  <point x="472" y="103" type="line"/>
	  <point x="506" y="136" type="line"/>
	  <point x="419" y="222" type="line"/>
	  <point x="444" y="253"/>
	  <point x="458" y="293"/>
	  <point x="458" y="336" type="curve" smooth="yes"/>
	  <point x="458" y="376"/>
	  <point x="445" y="412"/>
	  <point x="423" y="443" type="curve"/>
	  <point x="511" y="531" type="line"/>
	  <point x="479" y="564" type="line"/>
	  <point x="392" y="478" type="line"/>
	  <point x="359" y="505"/>
	  <point x="318" y="521"/>
	  <point x="272" y="521" type="curve" smooth="yes"/>
	  <point x="229" y="521"/>
	  <point x="191" y="507"/>
	  <point x="159" y="483" type="curve"/>
	  <point x="72" y="570" type="line"/>
	</contour>
	<contour>
	  <point x="344" y="473"/>
	  <point x="404" y="411"/>
	  <point x="404" y="336" type="curve" smooth="yes"/>
	  <point x="404" y="260"/>
	  <point x="344" y="199"/>
	  <point x="272" y="199" type="curve" smooth="yes"/>
	  <point x="199" y="199"/>
	  <point x="141" y="260"/>
	  <point x="141" y="336" type="curve" smooth="yes"/>
	  <point x="141" y="411"/>
	  <point x="199" y="473"/>
	  <point x="272" y="473" type="curve" smooth="yes"/>
	</contour>
  </outline>
</glyph>
<glyph name="yen" format="1">
  <advance width="550"/>
  <unicode hex="00A5"/>
  <outline>
	<contour>
	  <point x="247" y="339" type="line"/>
	  <point x="247" y="0" type="line"/>
	  <point x="303" y="0" type="line"/>
	  <point x="303" y="339" type="line"/>
	</contour>
	<contour>
	  <point x="540" y="674" type="line"/>
	  <point x="480" y="674" type="line"/>
	  <point x="267" y="328" type="line"/>
	  <point x="283" y="328" type="line"/>
	  <point x="71" y="674" type="line"/>
	  <point x="11" y="674" type="line"/>
	  <point x="251" y="286" type="line"/>
	  <point x="299" y="286" type="line"/>
	</contour>
	<contour>
	  <point x="100" y="287" type="line"/>
	  <point x="450" y="287" type="line"/>
	  <point x="450" y="341" type="line"/>
	  <point x="100" y="341" type="line"/>
	</contour>
	<contour>
	  <point x="100" y="133" type="line"/>
	  <point x="450" y="133" type="line"/>
	  <point x="450" y="187" type="line"/>
	  <point x="100" y="187" type="line"/>
	</contour>
  </outline>
</glyph>
<glyph name="brokenbar" format="1">
  <advance width="296"/>
  <unicode hex="00A6"/>
  <outline>
	<contour>
	  <point x="120" y="847" type="line"/>
	  <point x="120" y="471" type="line"/>
	  <point x="176" y="471" type="line"/>
	  <point x="176" y="847" type="line"/>
	</contour>
	<contour>
	  <point x="120" y="247" type="line"/>
	  <point x="120" y="-129" type="line"/>
	  <point x="176" y="-129" type="line"/>
	  <point x="176" y="247" type="line"/>
	</contour>
  </outline>
</glyph>
<glyph name="section" format="1">
  <advance width="550"/>
  <unicode hex="00A7"/>
  <outline>
	<contour>
	  <point x="498" y="386"/>
	  <point x="406" y="424"/>
	  <point x="316" y="449" type="curve" smooth="yes"/>
	  <point x="266" y="463" type="line" smooth="yes"/>
	  <point x="211" y="478"/>
	  <point x="164" y="497"/>
	  <point x="164" y="555" type="curve"/>
	  <point x="164" y="605"/>
	  <point x="202" y="636"/>
	  <point x="279" y="636" type="curve" smooth="yes"/>
	  <point x="344" y="636"/>
	  <point x="388" y="622"/>
	  <point x="442" y="595" type="curve"/>
	  <point x="442" y="651" type="line"/>
	  <point x="391" y="676"/>
	  <point x="348" y="688"/>
	  <point x="279" y="688" type="curve" smooth="yes"/>
	  <point x="173" y="688"/>
	  <point x="106" y="648"/>
	  <point x="106" y="556" type="curve" smooth="yes"/>
	  <point x="106" y="468"/>
	  <point x="166" y="433"/>
	  <point x="250" y="409" type="curve" smooth="yes"/>
	  <point x="300" y="395" type="line" smooth="yes"/>
	  <point x="373" y="375"/>
	  <point x="441" y="349"/>
	  <point x="441" y="298" type="curve" smooth="yes"/>
	  <point x="441" y="236"/>
	  <point x="380" y="198"/>
	  <point x="283" y="184" type="curve"/>
	  <point x="350" y="152" type="line"/>
	  <point x="440" y="178"/>
	  <point x="497" y="219"/>
	  <point x="499" y="297" type="curve"/>
	</contour>
	<contour>
	  <point x="454" y="132"/>
	  <point x="376" y="170"/>
	  <point x="297" y="193" type="curve" smooth="yes"/>
	  <point x="247" y="207" type="line" smooth="yes"/>
	  <point x="146" y="236"/>
	  <point x="111" y="255"/>
	  <point x="109" y="314" type="curve"/>
	  <point x="110" y="374"/>
	  <point x="170" y="408"/>
	  <point x="267" y="418" type="curve"/>
	  <point x="200" y="450" type="line"/>
	  <point x="126" y="433"/>
	  <point x="51" y="397"/>
	  <point x="51" y="315" type="curve" smooth="yes"/>
	  <point x="51" y="214"/>
	  <point x="127" y="181"/>
	  <point x="231" y="153" type="curve" smooth="yes"/>
	  <point x="281" y="139" type="line" smooth="yes"/>
	  <point x="343" y="122"/>
	  <point x="396" y="96"/>
	  <point x="396" y="38" type="curve" smooth="yes"/>
	  <point x="396" y="-10"/>
	  <point x="359" y="-49"/>
	  <point x="267" y="-49" type="curve" smooth="yes"/>
	  <point x="208" y="-49"/>
	  <point x="156" y="-38"/>
	  <point x="105" y="-14" type="curve"/>
	  <point x="105" y="-72" type="line"/>
	  <point x="157" y="-93"/>
	  <point x="207" y="-101"/>
	  <point x="267" y="-101" type="curve" smooth="yes"/>
	  <point x="382" y="-101"/>
	  <point x="453" y="-49"/>
	  <point x="454" y="37" type="curve"/>
	</contour>
  </outline>
</glyph>
<glyph name="dieresis" format="1">
  <advance width="649"/>
  <unicode hex="00A8"/>
  <outline>
	<contour>
	  <point x="200" y="788" type="line"/>
	  <point x="200" y="677" type="line"/>
	  <point x="254" y="677" type="line"/>
	  <point x="254" y="788" type="line"/>
	</contour>
	<contour>
	  <point x="395" y="788" type="line"/>
	  <point x="395" y="677" type="line"/>
	  <point x="449" y="677" type="line"/>
	  <point x="449" y="788" type="line"/>
	</contour>
	<contour>
	  <point x="326" y="546" type="move" name="_accent"/>
	</contour>
  </outline>
</glyph>
<glyph name="logicalnot" format="1">
  <advance width="550"/>
  <unicode hex="00AC"/>
  <outline>
	<contour>
	  <point x="67" y="310" type="line"/>
	  <point x="483" y="310" type="line"/>
	  <point x="483" y="364" type="line"/>
	  <point x="67" y="364" type="line"/>
	</contour>
	<contour>
	  <point x="483" y="129" type="line"/>
	  <point x="483" y="345" type="line"/>
	  <point x="427" y="344" type="line"/>
	  <point x="427" y="128" type="line"/>
	</contour>
  </outline>
</glyph>
<glyph name="registered" format="1">
  <advance width="721"/>
  <unicode hex="00AE"/>
  <outline>
	<contour>
	  <point x="200" y="769"/>
	  <point x="71" y="638"/>
	  <point x="71" y="483" type="curve" smooth="yes"/>
	  <point x="71" y="317"/>
	  <point x="200" y="196"/>
	  <point x="361" y="196" type="curve" smooth="yes"/>
	  <point x="519" y="196"/>
	  <point x="650" y="317"/>
	  <point x="650" y="483" type="curve" smooth="yes"/>
	  <point x="650" y="638"/>
	  <point x="519" y="769"/>
	  <point x="361" y="769" type="curve"/>
	</contour>
	<contour>
	  <point x="489" y="722"/>
	  <point x="602" y="613"/>
	  <point x="601" y="483" type="curve" smooth="yes"/>
	  <point x="600" y="344"/>
	  <point x="489" y="243"/>
	  <point x="361" y="243" type="curve" smooth="yes"/>
	  <point x="228" y="243"/>
	  <point x="120" y="344"/>
	  <point x="120" y="483" type="curve" smooth="yes"/>
	  <point x="120" y="613"/>
	  <point x="228" y="722"/>
	  <point x="361" y="722" type="curve" smooth="yes"/>
	</contour>
	<contour>
	  <point x="265" y="628" type="line" smooth="yes"/>
	  <point x="265" y="338" type="line" smooth="yes"/>
	  <point x="312" y="338" type="line" smooth="yes"/>
	  <point x="312" y="628" type="line" smooth="yes"/>
	</contour>
	<contour>
	  <point x="293" y="628" type="line" smooth="yes"/>
	  <point x="293" y="585" type="line" smooth="yes"/>
	  <point x="373" y="585" type="line" smooth="yes"/>
	  <point x="412" y="585"/>
	  <point x="424" y="572"/>
	  <point x="424" y="537" type="curve" smooth="yes"/>
	  <point x="424" y="499"/>
	  <point x="412" y="487"/>
	  <point x="373" y="487" type="curve" smooth="yes"/>
	  <point x="293" y="487" type="line" smooth="yes"/>
	  <point x="293" y="444" type="line" smooth="yes"/>
	  <point x="372" y="444" type="line" smooth="yes"/>
	  <point x="441" y="444"/>
	  <point x="473" y="473"/>
	  <point x="473" y="537" type="curve" smooth="yes"/>
	  <point x="473" y="602"/>
	  <point x="441" y="628"/>
	  <point x="372" y="628" type="curve" smooth="yes"/>
	</contour>
	<contour>
	  <point x="350" y="475" type="line" smooth="yes"/>
	  <point x="433" y="338" type="line" smooth="yes"/>
	  <point x="487" y="338" type="line" smooth="yes"/>
	  <point x="394" y="486" type="line" smooth="yes"/>
	</contour>
  </outline>
</glyph>
<glyph name="macron" format="1">
  <advance width="649"/>
  <unicode hex="00AF"/>
  <outline>
	<contour>
	  <point x="170" y="709" type="line"/>
	  <point x="479" y="709" type="line"/>
	  <point x="479" y="757" type="line"/>
	  <point x="170" y="757" type="line"/>
	</contour>
	<contour>
	  <point x="326" y="546" type="move" name="_accent"/>
	</contour>
  </outline>
</glyph>
<glyph name="degree" format="1">
  <advance width="473"/>
  <unicode hex="00B0"/>
  <outline>
	<contour>
	  <point x="342" y="309"/>
	  <point x="426" y="394"/>
	  <point x="426" y="499" type="curve" smooth="yes"/>
	  <point x="426" y="604"/>
	  <point x="342" y="688"/>
	  <point x="237" y="688" type="curve" smooth="yes"/>
	  <point x="132" y="688"/>
	  <point x="47" y="604"/>
	  <point x="47" y="499" type="curve" smooth="yes"/>
	  <point x="47" y="394"/>
	  <point x="132" y="309"/>
	  <point x="237" y="309" type="curve" smooth="yes"/>
	</contour>
	<contour>
	  <point x="159" y="361"/>
	  <point x="105" y="423"/>
	  <point x="105" y="499" type="curve" smooth="yes"/>
	  <point x="105" y="575"/>
	  <point x="159" y="636"/>
	  <point x="237" y="636" type="curve" smooth="yes"/>
	  <point x="315" y="636"/>
	  <point x="368" y="575"/>
	  <point x="368" y="499" type="curve" smooth="yes"/>
	  <point x="368" y="423"/>
	  <point x="315" y="361"/>
	  <point x="237" y="361" type="curve" smooth="yes"/>
	</contour>
  </outline>
</glyph>
<glyph name="twosuperior" format="1">
  <advance width="390"/>
  <unicode hex="00B2"/>
  <outline>
	<contour>
	  <point x="44" y="131" type="line"/>
	  <point x="351" y="131" type="line"/>
	  <point x="351" y="185" type="line"/>
	  <point x="107" y="185" type="line"/>
	  <point x="218" y="312"/>
	  <point x="337" y="435"/>
	  <point x="337" y="544" type="curve" smooth="yes"/>
	  <point x="337" y="636"/>
	  <point x="276" y="683"/>
	  <point x="186" y="683" type="curve" smooth="yes"/>
	  <point x="145" y="683"/>
	  <point x="106" y="676"/>
	  <point x="61" y="656" type="curve"/>
	  <point x="61" y="601" type="line"/>
	  <point x="99" y="620"/>
	  <point x="142" y="631"/>
	  <point x="186" y="631" type="curve" smooth="yes"/>
	  <point x="248" y="631"/>
	  <point x="281" y="600"/>
	  <point x="281" y="543" type="curve" smooth="yes"/>
	  <point x="281" y="461"/>
	  <point x="206" y="366"/>
	  <point x="44" y="185" type="curve"/>
	</contour>
  </outline>
</glyph>
<glyph name="acute" format="1">
  <advance width="649"/>
  <unicode hex="00B4"/>
  <outline>
	<contour>
	  <point x="401" y="809" type="line"/>
	  <point x="293" y="656" type="line"/>
	  <point x="348" y="656" type="line"/>
	  <point x="469" y="809" type="line"/>
	</contour>
	<contour>
	  <point x="326" y="546" type="move" name="_accent"/>
	</contour>
  </outline>
</glyph>
<glyph name="paragraph" format="1">
  <advance width="642"/>
  <unicode hex="00B6"/>
  <outline>
	<contour>
	  <point x="277" y="758" type="line" smooth="yes"/>
	  <point x="124" y="758"/>
	  <point x="50" y="686"/>
	  <point x="50" y="545" type="curve" smooth="yes"/>
	  <point x="50" y="409"/>
	  <point x="124" y="334"/>
	  <point x="277" y="334" type="curve" smooth="yes"/>
	  <point x="306" y="334" type="line"/>
	  <point x="306" y="-100" type="line"/>
	  <point x="362" y="-100" type="line"/>
	  <point x="362" y="706" type="line"/>
	  <point x="466" y="706" type="line"/>
	  <point x="466" y="-100" type="line"/>
	  <point x="522" y="-100" type="line"/>
	  <point x="522" y="758" type="line"/>
	</contour>
  </outline>
</glyph>
<glyph name="cedilla" format="1">
  <advance width="649"/>
  <unicode hex="00B8"/>
  <outline>
	<contour>
	  <point x="413" y="-263"/>
	  <point x="455" y="-222"/>
	  <point x="455" y="-165" type="curve" smooth="yes"/>
	  <point x="455" y="-111"/>
	  <point x="418" y="-72"/>
	  <point x="346" y="-72" type="curve" smooth="yes"/>
	  <point x="324" y="-72"/>
	  <point x="304" y="-81"/>
	  <point x="286" y="-90" type="curve"/>
	  <point x="261" y="-136" type="line"/>
	  <point x="288" y="-127"/>
	  <point x="316" y="-119"/>
	  <point x="346" y="-119" type="curve" smooth="yes"/>
	  <point x="389" y="-119"/>
	  <point x="404" y="-139"/>
	  <point x="404" y="-165" type="curve" smooth="yes"/>
	  <point x="404" y="-189"/>
	  <point x="385" y="-216"/>
	  <point x="333" y="-216" type="curve" smooth="yes"/>
	  <point x="303" y="-216"/>
	  <point x="274" y="-210"/>
	  <point x="241" y="-195" type="curve"/>
	  <point x="241" y="-243" type="line"/>
	  <point x="274" y="-258"/>
	  <point x="303" y="-263"/>
	  <point x="333" y="-263" type="curve"/>
	</contour>
	<contour>
	  <point x="303" y="1" type="line"/>
	  <point x="261" y="-136" type="line"/>
	  <point x="321" y="-106" type="line"/>
	  <point x="354" y="1" type="line"/>
	</contour>
	<contour>
	  <point x="325" y="0" type="move" name="_bottomaccent"/>
	</contour>
  </outline>
</glyph>
<glyph name="onesuperior" format="1">
  <advance width="390"/>
  <unicode hex="00B9"/>
  <outline>
	<contour>
	  <point x="168" y="673" type="line"/>
	  <point x="168" y="131" type="line"/>
	  <point x="222" y="131" type="line"/>
	  <point x="222" y="673" type="line"/>
	</contour>
	<contour>
	  <point x="99" y="619" type="line"/>
	  <point x="191" y="619" type="line"/>
	  <point x="191" y="673" type="line"/>
	  <point x="99" y="673" type="line"/>
	</contour>
	<contour>
	  <point x="85" y="131" type="line"/>
	  <point x="305" y="131" type="line"/>
	  <point x="305" y="185" type="line"/>
	  <point x="85" y="185" type="line"/>
	</contour>
  </outline>
</glyph>
<glyph name="ordmasculine" format="1">
  <advance width="517"/>
  <unicode hex="00BA"/>
  <outline>
	<contour>
	  <point x="136" y="688"/>
	  <point x="67" y="596"/>
	  <point x="67" y="482" type="curve" smooth="yes"/>
	  <point x="67" y="367"/>
	  <point x="136" y="275"/>
	  <point x="259" y="275" type="curve" smooth="yes"/>
	  <point x="382" y="275"/>
	  <point x="450" y="367"/>
	  <point x="450" y="482" type="curve" smooth="yes"/>
	  <point x="450" y="596"/>
	  <point x="382" y="688"/>
	  <point x="259" y="688" type="curve" smooth="yes"/>
	</contour>
	<contour>
	  <point x="356" y="634"/>
	  <point x="394" y="565"/>
	  <point x="394" y="482" type="curve" smooth="yes"/>
	  <point x="394" y="399"/>
	  <point x="356" y="329"/>
	  <point x="259" y="329" type="curve" smooth="yes"/>
	  <point x="161" y="329"/>
	  <point x="123" y="399"/>
	  <point x="123" y="482" type="curve" smooth="yes"/>
	  <point x="123" y="565"/>
	  <point x="161" y="634"/>
	  <point x="259" y="634" type="curve" smooth="yes"/>
	</contour>
  </outline>
</glyph>
<glyph name="AE" format="1">
  <advance width="1060"/>
  <unicode hex="00C6"/>
  <outline>
	<contour>
	  <point x="35" y="0" type="line"/>
	  <point x="97" y="0" type="line"/>
	  <point x="555" y="704" type="line"/>
	  <point x="557" y="704" type="line"/>
	  <point x="580" y="758" type="line"/>
	  <point x="531" y="758" type="line"/>
	</contour>
	<contour>
	  <point x="229" y="254" type="line"/>
	  <point x="585" y="254" type="line"/>
	  <point x="585" y="308" type="line"/>
	  <point x="269" y="308" type="line"/>
	</contour>
	<contour>
	  <point x="556" y="758" type="line"/>
	  <point x="556" y="0" type="line"/>
	  <point x="612" y="0" type="line"/>
	  <point x="612" y="758" type="line"/>
	</contour>
	<contour>
	  <point x="597" y="0" type="line"/>
	  <point x="1000" y="0" type="line"/>
	  <point x="1000" y="54" type="line"/>
	  <point x="597" y="54" type="line"/>
	</contour>
	<contour>
	  <point x="597" y="354" type="line"/>
	  <point x="945" y="354" type="line"/>
	  <point x="945" y="408" type="line"/>
	  <point x="597" y="408" type="line"/>
	</contour>
	<contour>
	  <point x="597" y="704" type="line"/>
	  <point x="995" y="704" type="line"/>
	  <point x="995" y="758" type="line"/>
	  <point x="597" y="758" type="line"/>
	</contour>
  </outline>
</glyph>
<glyph name="Eth" format="1">
  <advance width="794"/>
  <unicode hex="00D0"/>
  <outline>
	<contour>
	  <point x="27" y="355" type="line"/>
	  <point x="382" y="355" type="line"/>
	  <point x="382" y="407" type="line"/>
	  <point x="27" y="407" type="line"/>
	</contour>
	<component base="D"/>
  </outline>
</glyph>
<glyph name="Oslash" format="1">
  <advance width="829"/>
  <unicode hex="00D8"/>
  <outline>
	<contour>
	  <point x="63" y="0" type="line"/>
	  <point x="800" y="723" type="line"/>
	  <point x="766" y="758" type="line"/>
	  <point x="28" y="34" type="line"/>
	</contour>
	<component base="O"/>
  </outline>
</glyph>
<glyph name="Thorn" format="1">
  <advance width="642"/>
  <unicode hex="00DE"/>
  <outline>
	<contour>
	  <point x="120" y="758" type="line"/>
	  <point x="120" y="0" type="line"/>
	  <point x="176" y="0" type="line"/>
	  <point x="176" y="758" type="line"/>
	</contour>
	<contour>
	  <point x="160" y="596" type="line"/>
	  <point x="160" y="544" type="line"/>
	  <point x="365" y="544" type="line"/>
	  <point x="476" y="544"/>
	  <point x="535" y="497"/>
	  <point x="534" y="383" type="curve" smooth="yes"/>
	  <point x="533" y="276"/>
	  <point x="476" y="224"/>
	  <point x="365" y="224" type="curve"/>
	  <point x="159" y="224" type="line"/>
	  <point x="159" y="172" type="line"/>
	  <point x="365" y="172" type="line"/>
	  <point x="518" y="172"/>
	  <point x="592" y="247"/>
	  <point x="592" y="383" type="curve" smooth="yes"/>
	  <point x="592" y="524"/>
	  <point x="518" y="596"/>
	  <point x="365" y="596" type="curve"/>
	</contour>
	<contour>
	  <point x="365" y="758" type="move" name="Accent"/>
	</contour>
  </outline>
</glyph>
<glyph name="germandbls" format="1">
  <advance width="595"/>
  <unicode hex="00DF"/>
  <outline>
	<contour>
	  <point x="156" y="859"/>
	  <point x="100" y="820"/>
	  <point x="100" y="698" type="curve" smooth="yes"/>
	  <point x="100" y="0" type="line"/>
	  <point x="154" y="0" type="line"/>
	  <point x="154" y="698" type="line" smooth="yes"/>
	  <point x="154" y="778"/>
	  <point x="186" y="805"/>
	  <point x="258" y="805" type="curve" smooth="yes"/>
	  <point x="327" y="805"/>
	  <point x="362" y="774"/>
	  <point x="362" y="698" type="curve" smooth="yes"/>
	  <point x="362" y="558"/>
	  <point x="251" y="531"/>
	  <point x="251" y="410" type="curve" smooth="yes"/>
	  <point x="251" y="232"/>
	  <point x="490" y="282"/>
	  <point x="492" y="141" type="curve"/>
	  <point x="490" y="72"/>
	  <point x="447" y="37"/>
	  <point x="366" y="37" type="curve" smooth="yes"/>
	  <point x="332" y="37"/>
	  <point x="302" y="42"/>
	  <point x="247" y="65" type="curve"/>
	  <point x="247" y="8" type="line"/>
	  <point x="291" y="-11"/>
	  <point x="326" y="-17"/>
	  <point x="366" y="-17" type="curve" smooth="yes"/>
	  <point x="472" y="-17"/>
	  <point x="543" y="33"/>
	  <point x="548" y="140" type="curve"/>
	  <point x="546" y="320"/>
	  <point x="307" y="291"/>
	  <point x="307" y="409" type="curve" smooth="yes"/>
	  <point x="307" y="499"/>
	  <point x="416" y="535"/>
	  <point x="416" y="698" type="curve" smooth="yes"/>
	  <point x="416" y="804"/>
	  <point x="358" y="859"/>
	  <point x="263" y="859" type="curve" smooth="yes"/>
	</contour>
  </outline>
</glyph>
<glyph name="ae" format="1">
  <advance width="879"/>
  <unicode hex="00E6"/>
  <outline>
	<contour>
	  <point x="176" y="546" type="line"/>
	  <point x="176" y="496" type="line"/>
	  <point x="230" y="496" type="line" smooth="yes"/>
	  <point x="366" y="496"/>
	  <point x="374" y="423"/>
	  <point x="374" y="303" type="curve" smooth="yes"/>
	  <point x="374" y="274" type="line"/>
	  <point x="426" y="274" type="line"/>
	  <point x="426" y="313" type="line" smooth="yes"/>
	  <point x="426" y="445"/>
	  <point x="404" y="546"/>
	  <point x="245" y="546" type="curve" smooth="yes"/>
	</contour>
	<contour>
	  <point x="358" y="344"/>
	  <point x="292" y="362"/>
	  <point x="240" y="362" type="curve" smooth="yes"/>
	  <point x="120" y="362"/>
	  <point x="35" y="295"/>
	  <point x="35" y="173" type="curve" smooth="yes"/>
	  <point x="35" y="55"/>
	  <point x="119" y="-13"/>
	  <point x="210" y="-13" type="curve" smooth="yes"/>
	  <point x="291" y="-13"/>
	  <point x="359" y="26"/>
	  <point x="432" y="96" type="curve"/>
	  <point x="398" y="139" type="line"/>
	  <point x="336" y="70"/>
	  <point x="268" y="41"/>
	  <point x="210" y="41" type="curve" smooth="yes"/>
	  <point x="161" y="41"/>
	  <point x="91" y="72"/>
	  <point x="91" y="173" type="curve" smooth="yes"/>
	  <point x="91" y="280"/>
	  <point x="171" y="308"/>
	  <point x="240" y="308" type="curve" smooth="yes"/>
	  <point x="288" y="308"/>
	  <point x="347" y="297"/>
	  <point x="395" y="264" type="curve"/>
	  <point x="401" y="312" type="line"/>
	</contour>
	<contour>
	  <point x="483" y="37"/>
	  <point x="430" y="145"/>
	  <point x="430" y="275" type="curve" smooth="yes"/>
	  <point x="430" y="434"/>
	  <point x="502" y="508"/>
	  <point x="612" y="508" type="curve" smooth="yes"/>
	  <point x="723" y="508"/>
	  <point x="773" y="446"/>
	  <point x="773" y="310" type="curve"/>
	  <point x="773" y="289" type="line"/>
	  <point x="829" y="289" type="line"/>
	  <point x="829" y="310" type="line"/>
	  <point x="828" y="475"/>
	  <point x="744" y="562"/>
	  <point x="612" y="562" type="curve" smooth="yes"/>
	  <point x="480" y="562"/>
	  <point x="374" y="463"/>
	  <point x="374" y="274" type="curve" smooth="yes"/>
	  <point x="374" y="102"/>
	  <point x="463" y="-17"/>
	  <point x="632" y="-17" type="curve"/>
	  <point x="695" y="-17"/>
	  <point x="758" y="-1"/>
	  <point x="815" y="28" type="curve"/>
	  <point x="795" y="78" type="line"/>
	  <point x="742" y="54"/>
	  <point x="687" y="37"/>
	  <point x="632" y="37" type="curve"/>
	</contour>
	<contour>
	  <point x="415" y="289" type="line"/>
	  <point x="784" y="289" type="line"/>
	  <point x="784" y="343" type="line"/>
	  <point x="415" y="343" type="line"/>
	</contour>
  </outline>
</glyph>
<glyph name="eth" format="1">
  <advance width="617"/>
  <unicode hex="00F0"/>
  <outline>
	<contour>
	  <point x="468" y="-17"/>
	  <point x="550" y="120"/>
	  <point x="550" y="313" type="curve" smooth="yes"/>
	  <point x="550" y="531"/>
	  <point x="442" y="759"/>
	  <point x="258" y="862" type="curve"/>
	  <point x="227" y="823" type="line"/>
	  <point x="401" y="727"/>
	  <point x="496" y="507"/>
	  <point x="494" y="313" type="curve" smooth="yes"/>
	  <point x="492" y="133"/>
	  <point x="423" y="37"/>
	  <point x="309" y="37" type="curve" smooth="yes"/>
	  <point x="204" y="37"/>
	  <point x="123" y="95"/>
	  <point x="123" y="272" type="curve" smooth="yes"/>
	  <point x="123" y="465"/>
	  <point x="219" y="508"/>
	  <point x="308" y="508" type="curve" smooth="yes"/>
	  <point x="388" y="508"/>
	  <point x="455" y="451"/>
	  <point x="497" y="406" type="curve"/>
	  <point x="497" y="460" type="line"/>
	  <point x="445" y="518"/>
	  <point x="372" y="562"/>
	  <point x="308" y="562" type="curve" smooth="yes"/>
	  <point x="179" y="562"/>
	  <point x="67" y="485"/>
	  <point x="67" y="272" type="curve" smooth="yes"/>
	  <point x="67" y="80"/>
	  <point x="163" y="-17"/>
	  <point x="309" y="-17" type="curve" smooth="yes"/>
	</contour>
	<contour>
	  <point x="437" y="847" type="line"/>
	  <point x="402" y="874" type="line"/>
	  <point x="204" y="689" type="line"/>
	  <point x="237" y="664" type="line"/>
	</contour>
  </outline>
</glyph>
<glyph name="oslash" format="1">
  <advance width="649"/>
  <unicode hex="00F8"/>
  <outline>
	<contour>
	  <point x="63" y="0" type="line"/>
	  <point x="621" y="511" type="line"/>
	  <point x="587" y="546" type="line"/>
	  <point x="28" y="34" type="line"/>
	</contour>
	<component base="o"/>
  </outline>
</glyph>
<glyph name="thorn" format="1">
  <advance width="623"/>
  <unicode hex="00FE"/>
  <outline>
	<contour>
	  <point x="154" y="846" type="line"/>
	  <point x="100" y="846" type="line"/>
	  <point x="100" y="-234" type="line"/>
	  <point x="154" y="-234" type="line"/>
	</contour>
	<contour>
	  <point x="556" y="467"/>
	  <point x="459" y="562"/>
	  <point x="318" y="562" type="curve" smooth="yes"/>
	  <point x="247" y="562"/>
	  <point x="176" y="515"/>
	  <point x="126" y="460" type="curve"/>
	  <point x="126" y="406" type="line"/>
	  <point x="177" y="462"/>
	  <point x="243" y="508"/>
	  <point x="318" y="508" type="curve" smooth="yes"/>
	  <point x="438" y="508"/>
	  <point x="500" y="426"/>
	  <point x="500" y="272" type="curve"/>
	  <point x="500" y="119"/>
	  <point x="438" y="37"/>
	  <point x="318" y="37" type="curve" smooth="yes"/>
	  <point x="243" y="37"/>
	  <point x="177" y="83"/>
	  <point x="126" y="139" type="curve"/>
	  <point x="126" y="85" type="line"/>
	  <point x="176" y="30"/>
	  <point x="247" y="-17"/>
	  <point x="318" y="-17" type="curve" smooth="yes"/>
	  <point x="459" y="-17"/>
	  <point x="556" y="78"/>
	  <point x="556" y="272" type="curve"/>
	</contour>
  </outline>
</glyph>
<glyph name="dcroat" format="1">
  <advance width="623"/>
  <unicode hex="0111"/>
  <outline>
	<contour>
	  <point x="285" y="666" type="line"/>
	  <point x="586" y="666" type="line"/>
	  <point x="586" y="714" type="line"/>
	  <point x="285" y="714" type="line"/>
	</contour>
	<component base="d"/>
  </outline>
</glyph>
<glyph name="eogonek" format="1">
  <advance width="572"/>
  <unicode hex="0119"/>
  <outline>
	<contour>
	  <point x="439" y="-223"/>
	  <point x="456" y="-220"/>
	  <point x="474" y="-212" type="curve"/>
	  <point x="474" y="-164" type="line"/>
	  <point x="455" y="-174"/>
	  <point x="437" y="-176"/>
	  <point x="422" y="-176" type="curve" smooth="yes"/>
	  <point x="386" y="-176"/>
	  <point x="371" y="-157"/>
	  <point x="371" y="-135" type="curve" smooth="yes"/>
	  <point x="371" y="-75"/>
	  <point x="434" y="-25"/>
	  <point x="508" y="28" type="curve"/>
	  <point x="409" y="0" type="line"/>
	  <point x="352" y="-46"/>
	  <point x="320" y="-88"/>
	  <point x="320" y="-140" type="curve" smooth="yes"/>
	  <point x="320" y="-188"/>
	  <point x="353" y="-223"/>
	  <point x="422" y="-223" type="curve"/>
	</contour>
	<component base="e"/>
  </outline>
</glyph>
<glyph name="Hbar" format="1">
  <advance width="775"/>
  <unicode hex="0126"/>
  <outline>
	<contour>
	  <point x="120" y="758" type="line"/>
	  <point x="120" y="0" type="line"/>
	  <point x="176" y="0" type="line"/>
	  <point x="176" y="758" type="line"/>
	</contour>
	<contour>
	  <point x="599" y="758" type="line"/>
	  <point x="599" y="0" type="line"/>
	  <point x="655" y="0" type="line"/>
	  <point x="655" y="758" type="line"/>
	</contour>
	<contour>
	  <point x="157" y="354" type="line"/>
	  <point x="612" y="354" type="line"/>
	  <point x="612" y="408" type="line"/>
	  <point x="157" y="408" type="line"/>
	</contour>
	<contour>
	  <point x="157" y="556" type="line"/>
	  <point x="618" y="556" type="line"/>
	  <point x="618" y="608" type="line"/>
	  <point x="157" y="608" type="line"/>
	</contour>
  </outline>
</glyph>
<glyph name="hbar" format="1">
  <advance width="612"/>
  <unicode hex="0127"/>
  <outline>
	<contour>
	  <point x="37" y="666" type="line"/>
	  <point x="338" y="666" type="line"/>
	  <point x="338" y="714" type="line"/>
	  <point x="37" y="714" type="line"/>
	</contour>
	<component base="h"/>
  </outline>
</glyph>
<glyph name="Iogonek" format="1">
  <advance width="296"/>
  <unicode hex="012E"/>
  <outline>
	<contour>
	  <point x="141" y="-223"/>
	  <point x="158" y="-220"/>
	  <point x="176" y="-212" type="curve"/>
	  <point x="176" y="-164" type="line"/>
	  <point x="157" y="-174"/>
	  <point x="139" y="-176"/>
	  <point x="124" y="-176" type="curve" smooth="yes"/>
	  <point x="88" y="-176"/>
	  <point x="73" y="-157"/>
	  <point x="73" y="-135" type="curve" smooth="yes"/>
	  <point x="73" y="-85"/>
	  <point x="120" y="-44"/>
	  <point x="176" y="0" type="curve"/>
	  <point x="176" y="10" type="line"/>
	  <point x="120" y="10" type="line"/>
	  <point x="120" y="0" type="line"/>
	  <point x="58" y="-46"/>
	  <point x="22" y="-88"/>
	  <point x="22" y="-140" type="curve" smooth="yes"/>
	  <point x="22" y="-188"/>
	  <point x="55" y="-223"/>
	  <point x="124" y="-223" type="curve"/>
	</contour>
	<component base="I"/>
  </outline>
</glyph>
<glyph name="iogonek" format="1">
  <advance width="254"/>
  <unicode hex="012F"/>
  <outline>
	<contour>
	  <point x="119" y="-223"/>
	  <point x="136" y="-220"/>
	  <point x="154" y="-212" type="curve"/>
	  <point x="154" y="-164" type="line"/>
	  <point x="135" y="-174"/>
	  <point x="117" y="-176"/>
	  <point x="102" y="-176" type="curve" smooth="yes"/>
	  <point x="67" y="-176"/>
	  <point x="53" y="-157"/>
	  <point x="53" y="-135" type="curve" smooth="yes"/>
	  <point x="53" y="-85"/>
	  <point x="99" y="-44"/>
	  <point x="154" y="0" type="curve"/>
	  <point x="154" y="10" type="line"/>
	  <point x="100" y="10" type="line"/>
	  <point x="100" y="0" type="line"/>
	  <point x="38" y="-46"/>
	  <point x="2" y="-88"/>
	  <point x="2" y="-140" type="curve" smooth="yes"/>
	  <point x="2" y="-188"/>
	  <point x="34" y="-223"/>
	  <point x="102" y="-223" type="curve"/>
	</contour>
	<component base="idotless"/>
	<component base="dotaccent" xOffset="-199"/>
  </outline>
</glyph>
<glyph name="idotless" format="1">
  <advance width="254"/>
  <unicode hex="0131"/>
  <outline>
	<contour>
	  <point x="100" y="546" type="line"/>
	  <point x="100" y="0" type="line"/>
	  <point x="154" y="0" type="line"/>
	  <point x="154" y="546" type="line"/>
	</contour>
	<contour>
	  <point x="127" y="546" type="move" name="accent"/>
	</contour>
  </outline>
</glyph>
<glyph name="Lslash" format="1">
  <advance width="554"/>
  <unicode hex="0141"/>
  <outline>
	<contour>
	  <point x="15" y="250" type="line"/>
	  <point x="447" y="424" type="line"/>
	  <point x="447" y="476" type="line"/>
	  <point x="15" y="302" type="line"/>
	</contour>
	<component base="L"/>
  </outline>
</glyph>
<glyph name="lslash" format="1">
  <advance width="289"/>
  <unicode hex="0142"/>
  <outline>
	<contour>
	  <point x="11" y="357" type="line"/>
	  <point x="260" y="456" type="line"/>
	  <point x="260" y="506" type="line"/>
	  <point x="11" y="407" type="line"/>
	</contour>
	<component base="l"/>
  </outline>
</glyph>
<glyph name="Eng" format="1">
  <advance width="775"/>
  <unicode hex="014A"/>
  <outline>
	<contour>
	  <point x="599" y="758" type="line"/>
	  <point x="599" y="79" type="line"/>
	  <point x="612" y="83" type="line"/>
	  <point x="175" y="758" type="line"/>
	  <point x="120" y="758" type="line"/>
	  <point x="120" y="0" type="line"/>
	  <point x="176" y="0" type="line"/>
	  <point x="176" y="679" type="line"/>
	  <point x="163" y="675" type="line"/>
	  <point x="600" y="0" type="line"/>
	  <point x="655" y="87" type="line"/>
	  <point x="655" y="758" type="line"/>
	</contour>
	<contour>
	  <point x="629" y="-166"/>
	  <point x="655" y="-132"/>
	  <point x="655" y="-5" type="curve" smooth="yes"/>
	  <point x="655" y="588" type="line"/>
	  <point x="599" y="588" type="line"/>
	  <point x="599" y="1" type="line" smooth="yes"/>
	  <point x="599" y="-93"/>
	  <point x="585" y="-112"/>
	  <point x="536" y="-112" type="curve" smooth="yes"/>
	  <point x="521" y="-112"/>
	  <point x="505" y="-111"/>
	  <point x="490" y="-108" type="curve"/>
	  <point x="490" y="-162" type="line"/>
	  <point x="505" y="-165"/>
	  <point x="520" y="-166"/>
	  <point x="531" y="-166" type="curve" smooth="yes"/>
	</contour>
	<contour>
	  <point x="403" y="758" type="move" name="Accent"/>
	</contour>
	<contour>
	  <point x="366" y="0" type="move" name="bottomaccent"/>
	</contour>
  </outline>
</glyph>
<glyph name="eng" format="1">
  <advance width="600"/>
  <unicode hex="014B"/>
  <outline>
	<contour>
	  <point x="491" y="-251"/>
	  <point x="517" y="-217"/>
	  <point x="517" y="-90" type="curve" smooth="yes"/>
	  <point x="517" y="146" type="line"/>
	  <point x="463" y="146" type="line"/>
	  <point x="463" y="-84" type="line" smooth="yes"/>
	  <point x="463" y="-178"/>
	  <point x="449" y="-197"/>
	  <point x="399" y="-197" type="curve" smooth="yes"/>
	  <point x="384" y="-197"/>
	  <point x="368" y="-196"/>
	  <point x="353" y="-193" type="curve"/>
	  <point x="353" y="-247" type="line"/>
	  <point x="368" y="-250"/>
	  <point x="383" y="-251"/>
	  <point x="394" y="-251" type="curve" smooth="yes"/>
	</contour>
	<component base="n"/>
  </outline>
</glyph>
<glyph name="OE" format="1">
  <advance width="1122"/>
  <unicode hex="0152"/>
  <outline>
	<contour>
	  <point x="644" y="0" type="line"/>
	  <point x="644" y="52" type="line"/>
	  <point x="429" y="52" type="line"/>
	  <point x="237" y="52"/>
	  <point x="129" y="151"/>
	  <point x="130" y="380" type="curve" smooth="yes"/>
	  <point x="131" y="611"/>
	  <point x="237" y="706"/>
	  <point x="429" y="706" type="curve"/>
	  <point x="645" y="706" type="line"/>
	  <point x="645" y="758" type="line"/>
	  <point x="429" y="758" type="line"/>
	  <point x="192" y="758"/>
	  <point x="72" y="631"/>
	  <point x="72" y="380" type="curve" smooth="yes"/>
	  <point x="72" y="132"/>
	  <point x="192" y="0"/>
	  <point x="429" y="0" type="curve"/>
	</contour>
	<contour>
	  <point x="618" y="758" type="line"/>
	  <point x="618" y="0" type="line"/>
	  <point x="674" y="0" type="line"/>
	  <point x="674" y="758" type="line"/>
	</contour>
	<contour>
	  <point x="659" y="0" type="line"/>
	  <point x="1062" y="0" type="line"/>
	  <point x="1062" y="54" type="line"/>
	  <point x="659" y="54" type="line"/>
	</contour>
	<contour>
	  <point x="659" y="354" type="line"/>
	  <point x="1007" y="354" type="line"/>
	  <point x="1007" y="408" type="line"/>
	  <point x="659" y="408" type="line"/>
	</contour>
	<contour>
	  <point x="659" y="704" type="line"/>
	  <point x="1057" y="704" type="line"/>
	  <point x="1057" y="758" type="line"/>
	  <point x="659" y="758" type="line"/>
	</contour>
	<contour>
	  <point x="853" y="758" type="move" name="Accent"/>
	</contour>
  </outline>
</glyph>
<glyph name="Tbar" format="1">
  <advance width="614"/>
  <unicode hex="0166"/>
  <outline>
	<contour>
	  <point x="100" y="494" type="line"/>
	  <point x="514" y="494" type="line"/>
	  <point x="514" y="546" type="line"/>
	  <point x="100" y="546" type="line"/>
	</contour>
	<component base="T"/>
  </outline>
</glyph>
<glyph name="tbar" format="1">
  <advance width="339"/>
  <unicode hex="0167"/>
  <outline>
	<contour>
	  <point x="41" y="253" type="line"/>
	  <point x="291" y="253" type="line"/>
	  <point x="291" y="301" type="line"/>
	  <point x="41" y="301" type="line"/>
	</contour>
	<component base="t"/>
  </outline>
</glyph>
<glyph name="florin" format="1">
  <advance width="550"/>
  <unicode hex="0192"/>
  <outline>
	<contour>
	  <point x="283" y="859"/>
	  <point x="258" y="833"/>
	  <point x="248" y="738" type="curve" smooth="yes"/>
	  <point x="148" y="-234" type="line"/>
	  <point x="202" y="-234" type="line"/>
	  <point x="302" y="732" type="line" smooth="yes"/>
	  <point x="308" y="789"/>
	  <point x="316" y="805"/>
	  <point x="366" y="805" type="curve" smooth="yes"/>
	  <point x="381" y="805"/>
	  <point x="397" y="804"/>
	  <point x="412" y="801" type="curve"/>
	  <point x="412" y="855" type="line"/>
	  <point x="397" y="858"/>
	  <point x="382" y="859"/>
	  <point x="371" y="859" type="curve" smooth="yes"/>
	</contour>
	<contour>
	  <point x="120" y="492" type="line"/>
	  <point x="382" y="492" type="line"/>
	  <point x="392" y="546" type="line"/>
	  <point x="120" y="546" type="line"/>
	</contour>
  </outline>
</glyph>
<glyph name="jdotless" format="1">
  <advance width="254"/>
  <unicode hex="0237"/>
  <outline>
	<contour>
	  <point x="128" y="-251"/>
	  <point x="154" y="-217"/>
	  <point x="154" y="-90" type="curve" smooth="yes"/>
	  <point x="154" y="546" type="line"/>
	  <point x="100" y="546" type="line"/>
	  <point x="100" y="-84" type="line" smooth="yes"/>
	  <point x="100" y="-178"/>
	  <point x="86" y="-197"/>
	  <point x="36" y="-197" type="curve" smooth="yes"/>
	  <point x="21" y="-197"/>
	  <point x="5" y="-196"/>
	  <point x="-10" y="-193" type="curve"/>
	  <point x="-10" y="-247" type="line"/>
	  <point x="5" y="-250"/>
	  <point x="20" y="-251"/>
	  <point x="31" y="-251" type="curve" smooth="yes"/>
	</contour>
	<contour>
	  <point x="127" y="546" type="move" name="accent"/>
	</contour>
  </outline>
</glyph>
<glyph name="circumflex" format="1">
  <advance width="649"/>
  <unicode hex="02C6"/>
  <outline>
	<contour>
	  <point x="244" y="656" type="line"/>
	  <point x="352" y="809" type="line"/>
	  <point x="297" y="809" type="line"/>
	  <point x="176" y="656" type="line"/>
	</contour>
	<contour>
	  <point x="352" y="809" type="line"/>
	  <point x="297" y="809" type="line"/>
	  <point x="405" y="656" type="line"/>
	  <point x="473" y="656" type="line"/>
	</contour>
	<contour>
	  <point x="244" y="656" type="line"/>
	  <point x="352" y="809" type="line"/>
	  <point x="297" y="809" type="line"/>
	  <point x="176" y="656" type="line"/>
	</contour>
	<contour>
	  <point x="352" y="809" type="line"/>
	  <point x="297" y="809" type="line"/>
	  <point x="405" y="656" type="line"/>
	  <point x="473" y="656" type="line"/>
	</contour>
	<contour>
	  <point x="326" y="546" type="move" name="_accent"/>
	</contour>
  </outline>
</glyph>
<glyph name="caron" format="1">
  <advance width="649"/>
  <unicode hex="02C7"/>
  <outline>
	<contour>
	  <point x="297" y="656" type="line"/>
	  <point x="352" y="656" type="line"/>
	  <point x="244" y="809" type="line"/>
	  <point x="176" y="809" type="line"/>
	</contour>
	<contour>
	  <point x="405" y="809" type="line"/>
	  <point x="297" y="656" type="line"/>
	  <point x="352" y="656" type="line"/>
	  <point x="473" y="809" type="line"/>
	</contour>
	<contour>
	  <point x="326" y="546" type="move" name="_accent"/>
	</contour>
  </outline>
</glyph>
<glyph name="breve" format="1">
  <advance width="649"/>
  <unicode hex="02D8"/>
  <outline>
	<contour>
	  <point x="417" y="658"/>
	  <point x="480" y="707"/>
	  <point x="476" y="801" type="curve"/>
	  <point x="476" y="807" type="line"/>
	  <point x="426" y="807" type="line"/>
	  <point x="426" y="801" type="line"/>
	  <point x="426" y="736"/>
	  <point x="396" y="706"/>
	  <point x="326" y="706" type="curve" smooth="yes"/>
	  <point x="256" y="706"/>
	  <point x="226" y="736"/>
	  <point x="226" y="801" type="curve"/>
	  <point x="226" y="807" type="line"/>
	  <point x="176" y="807" type="line"/>
	  <point x="176" y="801" type="line"/>
	  <point x="176" y="707"/>
	  <point x="237" y="658"/>
	  <point x="326" y="658" type="curve" smooth="yes"/>
	</contour>
	<contour>
	  <point x="326" y="546" type="move" name="_accent"/>
	</contour>
  </outline>
</glyph>
<glyph name="dotaccent" format="1">
  <advance width="649"/>
  <unicode hex="02D9"/>
  <outline>
	<contour>
	  <point x="299" y="788" type="line"/>
	  <point x="299" y="677" type="line"/>
	  <point x="353" y="677" type="line"/>
	  <point x="353" y="788" type="line"/>
	</contour>
	<contour>
	  <point x="326" y="546" type="move" name="_accent"/>
	</contour>
  </outline>
</glyph>
<glyph name="ring" format="1">
  <advance width="649"/>
  <unicode hex="02DA"/>
  <outline>
	<contour>
	  <point x="377" y="640"/>
	  <point x="417" y="680"/>
	  <point x="417" y="732" type="curve" smooth="yes"/>
	  <point x="417" y="784"/>
	  <point x="377" y="823"/>
	  <point x="325" y="823" type="curve" smooth="yes"/>
	  <point x="271" y="823"/>
	  <point x="232" y="784"/>
	  <point x="232" y="732" type="curve" smooth="yes"/>
	  <point x="232" y="680"/>
	  <point x="273" y="640"/>
	  <point x="325" y="640" type="curve" smooth="yes"/>
	</contour>
	<contour>
	  <point x="273" y="699"/>
	  <point x="273" y="732" type="curve" smooth="yes"/>
	  <point x="273" y="765"/>
	  <point x="296" y="786"/>
	  <point x="325" y="786" type="curve" smooth="yes"/>
	  <point x="355" y="786"/>
	  <point x="376" y="765"/>
	  <point x="376" y="732" type="curve" smooth="yes"/>
	  <point x="376" y="699"/>
	  <point x="354" y="678"/>
	  <point x="325" y="678" type="curve" smooth="yes"/>
	  <point x="296" y="678"/>
	</contour>
	<contour>
	  <point x="326" y="546" type="move" name="_accent"/>
	</contour>
  </outline>
</glyph>
<glyph name="ogonek" format="1">
  <advance width="649"/>
  <unicode hex="02DB"/>
  <outline>
	<contour>
	  <point x="329" y="-223"/>
	  <point x="346" y="-220"/>
	  <point x="364" y="-212" type="curve"/>
	  <point x="364" y="-164" type="line"/>
	  <point x="345" y="-174"/>
	  <point x="327" y="-176"/>
	  <point x="312" y="-176" type="curve" smooth="yes"/>
	  <point x="276" y="-176"/>
	  <point x="261" y="-157"/>
	  <point x="261" y="-135" type="curve" smooth="yes"/>
	  <point x="261" y="-85"/>
	  <point x="308" y="-44"/>
	  <point x="364" y="0" type="curve"/>
	  <point x="304" y="0" type="line"/>
	  <point x="245" y="-46"/>
	  <point x="210" y="-88"/>
	  <point x="210" y="-140" type="curve" smooth="yes"/>
	  <point x="210" y="-188"/>
	  <point x="243" y="-223"/>
	  <point x="312" y="-223" type="curve"/>
	</contour>
	<contour>
	  <point x="334" y="0" type="move" name="_ogonek"/>
	</contour>
  </outline>
</glyph>
<glyph name="tilde" format="1">
  <advance width="649"/>
  <unicode hex="02DC"/>
  <outline>
	<contour>
	  <point x="277" y="729"/>
	  <point x="287" y="725"/>
	  <point x="298" y="719" type="curve" smooth="yes"/>
	  <point x="335" y="699" type="line" smooth="yes"/>
	  <point x="353" y="689"/>
	  <point x="373" y="682"/>
	  <point x="393" y="682" type="curve" smooth="yes"/>
	  <point x="427" y="682"/>
	  <point x="462" y="706"/>
	  <point x="465" y="777" type="curve"/>
	  <point x="415" y="777" type="line"/>
	  <point x="415" y="741"/>
	  <point x="401" y="730"/>
	  <point x="383" y="730" type="curve"/>
	  <point x="372" y="730"/>
	  <point x="364" y="733"/>
	  <point x="352" y="740" type="curve" smooth="yes"/>
	  <point x="315" y="760" type="line" smooth="yes"/>
	  <point x="297" y="770"/>
	  <point x="278" y="777"/>
	  <point x="256" y="777" type="curve"/>
	  <point x="222" y="777"/>
	  <point x="187" y="753"/>
	  <point x="184" y="682" type="curve"/>
	  <point x="234" y="682" type="line"/>
	  <point x="234" y="718"/>
	  <point x="248" y="729"/>
	  <point x="266" y="729" type="curve"/>
	</contour>
	<contour>
	  <point x="326" y="546" type="move" name="_accent"/>
	</contour>
  </outline>
</glyph>
<glyph name="hungarumlaut" format="1">
  <advance width="649"/>
  <unicode hex="02DD"/>
  <outline>
	<contour>
	  <point x="486" y="809" type="line"/>
	  <point x="378" y="656" type="line"/>
	  <point x="433" y="656" type="line"/>
	  <point x="554" y="809" type="line"/>
	</contour>
	<contour>
	  <point x="316" y="809" type="line"/>
	  <point x="208" y="656" type="line"/>
	  <point x="263" y="656" type="line"/>
	  <point x="384" y="809" type="line"/>
	</contour>
	<contour>
	  <point x="326" y="546" type="move" name="_accent"/>
	</contour>
  </outline>
</glyph>
<glyph name="commaaccent" format="1">
  <advance width="649"/>
  <unicode hex="0326"/>
  <outline>
	<contour>
	  <point x="289" y="-80" type="line"/>
	  <point x="257" y="-246" type="line"/>
	  <point x="311" y="-246" type="line"/>
	  <point x="349" y="-80" type="line"/>
	</contour>
	<contour>
	  <point x="325" y="0" type="move" name="_bottomaccent"/>
	</contour>
  </outline>
</glyph>
<glyph name="candraBindu-deva" format="1">
  <advance width="0"/>
  <unicode hex="0901"/>
  <outline>
	<component base="eCandraMatra-deva"/>
	<component base="anusvara-deva" yOffset="150"/>
	<contour>
	  <point x="-138" y="634" type="move" name="_top"/>
	</contour>
  </outline>
</glyph>
<glyph name="anusvara-deva" format="1">
  <advance width="0"/>
  <unicode hex="0902"/>
  <outline>
	<contour>
	  <point x="-195" y="757" type="line"/>
	  <point x="-138" y="701" type="line"/>
	  <point x="-81" y="757" type="line"/>
	  <point x="-138" y="814" type="line"/>
	</contour>
	<contour>
	  <point x="-138" y="634" type="move" name="_top"/>
	</contour>
  </outline>
</glyph>
<glyph name="visarga-deva" format="1">
  <advance width="302"/>
  <unicode hex="0903"/>
  <outline>
	<contour>
	  <point x="94" y="433" type="line"/>
	  <point x="151" y="377" type="line"/>
	  <point x="208" y="433" type="line"/>
	  <point x="151" y="490" type="line"/>
	</contour>
	<contour>
	  <point x="94" y="97" type="line"/>
	  <point x="151" y="41" type="line"/>
	  <point x="208" y="97" type="line"/>
	  <point x="151" y="154" type="line"/>
	</contour>
  </outline>
</glyph>
<glyph name="a-deva" format="1">
  <advance width="712"/>
  <unicode hex="0905"/>
  <outline>
	<contour>
	  <point x="417" y="634" type="line"/>
	  <point x="417" y="590" type="line"/>
	  <point x="548" y="590" type="line"/>
	  <point x="548" y="0" type="line"/>
	  <point x="602" y="0" type="line"/>
	  <point x="602" y="590" type="line"/>
	  <point x="722" y="590" type="line"/>
	  <point x="722" y="634" type="line"/>
	</contour>
	<contour>
	  <point x="319" y="363"/>
	  <point x="357" y="412"/>
	  <point x="357" y="486" type="curve" smooth="yes"/>
	  <point x="357" y="595"/>
	  <point x="288" y="634"/>
	  <point x="153" y="634" type="curve" smooth="yes"/>
	  <point x="96" y="634" type="line"/>
	  <point x="96" y="590" type="line"/>
	  <point x="153" y="590" type="line" smooth="yes"/>
	  <point x="248" y="590"/>
	  <point x="303" y="569"/>
	  <point x="303" y="486" type="curve" smooth="yes"/>
	  <point x="303" y="420"/>
	  <point x="262" y="365"/>
	  <point x="163" y="365" type="curve" smooth="yes"/>
	  <point x="111" y="365" type="line"/>
	  <point x="111" y="321" type="line"/>
	  <point x="162" y="321" type="line" smooth="yes"/>
	  <point x="262" y="321"/>
	  <point x="303" y="284"/>
	  <point x="303" y="211" type="curve" smooth="yes"/>
	  <point x="303" y="102"/>
	  <point x="206" y="84"/>
	  <point x="123" y="84" type="curve" smooth="yes"/>
	  <point x="65" y="84" type="line"/>
	  <point x="65" y="40" type="line"/>
	  <point x="123" y="40" type="line" smooth="yes"/>
	  <point x="243" y="40"/>
	  <point x="357" y="80"/>
	  <point x="357" y="211" type="curve" smooth="yes"/>
	  <point x="357" y="280"/>
	  <point x="322" y="335"/>
	  <point x="241" y="350" type="curve"/>
	  <point x="241" y="333" type="line"/>
	</contour>
	<contour>
	  <point x="326" y="251" type="line"/>
	  <point x="571" y="251" type="line"/>
	  <point x="571" y="295" type="line"/>
	  <point x="326" y="295" type="line"/>
	</contour>
	<contour>
	  <point x="574" y="634" type="move" name="top"/>
	</contour>
	<contour>
	  <point x="574" y="0" type="move" name="bottom"/>
	</contour>
  </outline>
</glyph>
<glyph name="i-deva" format="1">
  <advance width="502"/>
  <unicode hex="0907"/>
  <outline>
	<contour>
	  <point x="217" y="470" type="line" smooth="yes"/>
	  <point x="121" y="470"/>
	  <point x="73" y="440"/>
	  <point x="73" y="358" type="curve" smooth="yes"/>
	  <point x="73" y="304"/>
	  <point x="110" y="262"/>
	  <point x="131" y="246" type="curve"/>
	  <point x="287" y="246" type="line" smooth="yes"/>
	  <point x="356" y="246"/>
	  <point x="395" y="224"/>
	  <point x="397" y="157" type="curve" smooth="yes"/>
	  <point x="399" y="94"/>
	  <point x="356" y="67"/>
	  <point x="287" y="67" type="curve" smooth="yes"/>
	  <point x="272" y="67" type="line" smooth="yes"/>
	  <point x="204" y="67"/>
	  <point x="155" y="85"/>
	  <point x="108" y="115" type="curve"/>
	  <point x="90" y="73" type="line"/>
	  <point x="140" y="42"/>
	  <point x="196" y="23"/>
	  <point x="272" y="23" type="curve" smooth="yes"/>
	  <point x="287" y="23" type="line" smooth="yes"/>
	  <point x="389" y="23"/>
	  <point x="451" y="69"/>
	  <point x="451" y="157" type="curve" smooth="yes"/>
	  <point x="451" y="248"/>
	  <point x="389" y="290"/>
	  <point x="287" y="290" type="curve" smooth="yes"/>
	  <point x="157" y="290" type="line"/>
	  <point x="142" y="300"/>
	  <point x="127" y="323"/>
	  <point x="127" y="358" type="curve"/>
	  <point x="127" y="412"/>
	  <point x="159" y="426"/>
	  <point x="217" y="426" type="curve" smooth="yes"/>
	  <point x="381" y="426" type="line"/>
	  <point x="381" y="470" type="line"/>
	</contour>
	<contour>
	  <point x="73" y="174" type="line"/>
	  <point x="73" y="-55" type="line"/>
	  <point x="127" y="-55" type="line"/>
	  <point x="127" y="174" type="line"/>
	</contour>
	<contour>
	  <point x="-10" y="634" type="line"/>
	  <point x="-10" y="590" type="line"/>
	  <point x="327" y="590" type="line"/>
	  <point x="327" y="440" type="line"/>
	  <point x="381" y="440" type="line"/>
	  <point x="381" y="590" type="line"/>
	  <point x="512" y="590" type="line"/>
	  <point x="512" y="634" type="line"/>
	</contour>
	<contour>
	  <point x="353" y="634" type="move" name="top"/>
	</contour>
  </outline>
</glyph>
<glyph name="u-deva" format="1">
  <advance width="551"/>
  <unicode hex="0909"/>
  <outline>
	<contour>
	  <point x="68" y="43"/>
	  <point x="156" y="0"/>
	  <point x="272" y="0" type="curve" smooth="yes"/>
	  <point x="388" y="0"/>
	  <point x="476" y="43"/>
	  <point x="476" y="181" type="curve" smooth="yes"/>
	  <point x="476" y="264"/>
	  <point x="441" y="334"/>
	  <point x="360" y="350" type="curve"/>
	  <point x="360" y="333" type="line"/>
	  <point x="438" y="363"/>
	  <point x="476" y="410"/>
	  <point x="476" y="485" type="curve" smooth="yes"/>
	  <point x="476" y="572"/>
	  <point x="436" y="598"/>
	  <point x="388" y="626" type="curve"/>
	  <point x="357" y="590" type="line"/>
	  <point x="403" y="562"/>
	  <point x="422" y="540"/>
	  <point x="422" y="485" type="curve" smooth="yes"/>
	  <point x="422" y="421"/>
	  <point x="381" y="365"/>
	  <point x="282" y="365" type="curve" smooth="yes"/>
	  <point x="210" y="365" type="line"/>
	  <point x="210" y="321" type="line"/>
	  <point x="281" y="321" type="line" smooth="yes"/>
	  <point x="381" y="321"/>
	  <point x="422" y="273"/>
	  <point x="422" y="181" type="curve" smooth="yes"/>
	  <point x="422" y="64"/>
	  <point x="353" y="44"/>
	  <point x="272" y="44" type="curve" smooth="yes"/>
	  <point x="191" y="44"/>
	  <point x="122" y="64"/>
	  <point x="122" y="181" type="curve"/>
	  <point x="122" y="231" type="line"/>
	  <point x="68" y="231" type="line"/>
	  <point x="68" y="181" type="line" smooth="yes"/>
	</contour>
	<contour>
	  <point x="561" y="590" type="line"/>
	  <point x="561" y="634" type="line"/>
	  <point x="-10" y="634" type="line"/>
	  <point x="-10" y="590" type="line"/>
	</contour>
  </outline>
</glyph>
<glyph name="uu-deva" format="1">
  <advance width="806"/>
  <unicode hex="090A"/>
  <outline>
	<contour>
	  <point x="68" y="43"/>
	  <point x="156" y="0"/>
	  <point x="272" y="0" type="curve" smooth="yes"/>
	  <point x="388" y="0"/>
	  <point x="476" y="43"/>
	  <point x="476" y="181" type="curve" smooth="yes"/>
	  <point x="476" y="264"/>
	  <point x="441" y="334"/>
	  <point x="360" y="350" type="curve"/>
	  <point x="360" y="333" type="line"/>
	  <point x="438" y="363"/>
	  <point x="476" y="410"/>
	  <point x="476" y="485" type="curve" smooth="yes"/>
	  <point x="476" y="572"/>
	  <point x="436" y="598"/>
	  <point x="388" y="626" type="curve"/>
	  <point x="357" y="590" type="line"/>
	  <point x="403" y="562"/>
	  <point x="422" y="540"/>
	  <point x="422" y="485" type="curve" smooth="yes"/>
	  <point x="422" y="421"/>
	  <point x="381" y="365"/>
	  <point x="282" y="365" type="curve" smooth="yes"/>
	  <point x="210" y="365" type="line"/>
	  <point x="210" y="321" type="line"/>
	  <point x="281" y="321" type="line" smooth="yes"/>
	  <point x="381" y="321"/>
	  <point x="422" y="273"/>
	  <point x="422" y="181" type="curve" smooth="yes"/>
	  <point x="422" y="64"/>
	  <point x="353" y="44"/>
	  <point x="272" y="44" type="curve" smooth="yes"/>
	  <point x="191" y="44"/>
	  <point x="122" y="64"/>
	  <point x="122" y="181" type="curve"/>
	  <point x="122" y="231" type="line"/>
	  <point x="68" y="231" type="line"/>
	  <point x="68" y="181" type="line" smooth="yes"/>
	</contour>
	<contour>
	  <point x="759" y="286"/>
	  <point x="700" y="321"/>
	  <point x="592" y="321" type="curve" smooth="yes"/>
	  <point x="532" y="321"/>
	  <point x="491" y="302"/>
	  <point x="450" y="272" type="curve"/>
	  <point x="450" y="215" type="line"/>
	  <point x="483" y="244"/>
	  <point x="518" y="277"/>
	  <point x="592" y="277" type="curve" smooth="yes"/>
	  <point x="676" y="277"/>
	  <point x="705" y="236"/>
	  <point x="705" y="161" type="curve" smooth="yes"/>
	  <point x="705" y="67"/>
	  <point x="662" y="44"/>
	  <point x="592" y="44" type="curve" smooth="yes"/>
	  <point x="580" y="44" type="line" smooth="yes"/>
	  <point x="562" y="44"/>
	  <point x="538" y="46"/>
	  <point x="520" y="50" type="curve"/>
	  <point x="520" y="5" type="line"/>
	  <point x="531" y="3"/>
	  <point x="562" y="0"/>
	  <point x="580" y="0" type="curve" smooth="yes"/>
	  <point x="592" y="0" type="line" smooth="yes"/>
	  <point x="700" y="0"/>
	  <point x="759" y="42"/>
	  <point x="759" y="161" type="curve" smooth="yes"/>
	</contour>
	<contour>
	  <point x="816" y="590" type="line"/>
	  <point x="816" y="634" type="line"/>
	  <point x="-10" y="634" type="line"/>
	  <point x="-10" y="590" type="line"/>
	</contour>
  </outline>
</glyph>
<glyph name="rVocalic-deva" format="1">
  <advance width="826"/>
  <unicode hex="090B"/>
  <outline>
	<contour>
	  <point x="69" y="37" type="line"/>
	  <point x="102" y="0" type="line"/>
	  <point x="433" y="295" type="line"/>
	  <point x="401" y="333" type="line"/>
	</contour>
	<contour>
	  <point x="173" y="456"/>
	  <point x="107" y="439"/>
	  <point x="60" y="428" type="curve"/>
	  <point x="60" y="377" type="line"/>
	  <point x="106" y="388"/>
	  <point x="172" y="406"/>
	  <point x="211" y="406" type="curve" smooth="yes"/>
	  <point x="273" y="406"/>
	  <point x="324" y="382"/>
	  <point x="391" y="312" type="curve"/>
	  <point x="390" y="372" type="line"/>
	  <point x="326" y="430"/>
	  <point x="282" y="456"/>
	  <point x="211" y="456" type="curve" smooth="yes"/>
	</contour>
	<contour>
	  <point x="628" y="302" type="line"/>
	  <point x="688" y="262"/>
	  <point x="725" y="216"/>
	  <point x="725" y="157" type="curve" smooth="yes"/>
	  <point x="725" y="78"/>
	  <point x="666" y="44"/>
	  <point x="592" y="44" type="curve"/>
	  <point x="562" y="44" type="line"/>
	  <point x="562" y="0" type="line"/>
	  <point x="592" y="0" type="line"/>
	  <point x="696" y="0"/>
	  <point x="779" y="49"/>
	  <point x="779" y="157" type="curve" smooth="yes"/>
	  <point x="779" y="229"/>
	  <point x="725" y="289"/>
	  <point x="664" y="339" type="curve"/>
	</contour>
	<contour>
	  <point x="423" y="341" type="line"/>
	  <point x="423" y="297" type="line"/>
	  <point x="664" y="297" type="line"/>
	  <point x="664" y="341" type="line"/>
	</contour>
	<contour>
	  <point x="610" y="341" type="line"/>
	  <point x="664" y="341" type="line"/>
	  <point x="664" y="477" type="line"/>
	  <point x="610" y="477" type="line"/>
	</contour>
	<contour>
	  <point x="-10" y="634" type="line"/>
	  <point x="-10" y="590" type="line"/>
	  <point x="386" y="590" type="line"/>
	  <point x="386" y="0" type="line"/>
	  <point x="440" y="0" type="line"/>
	  <point x="440" y="590" type="line"/>
	  <point x="836" y="590" type="line"/>
	  <point x="836" y="634" type="line"/>
	</contour>
  </outline>
</glyph>
<glyph name="e-deva" format="1">
  <advance width="569"/>
  <unicode hex="090F"/>
  <outline>
	<contour>
	  <point x="423" y="613" type="line"/>
	  <point x="423" y="399" type="line"/>
	  <point x="423" y="309"/>
	  <point x="387" y="297"/>
	  <point x="323" y="296" type="curve" smooth="yes"/>
	  <point x="301" y="296" type="line"/>
	  <point x="301" y="252" type="line"/>
	  <point x="323" y="252" type="line" smooth="yes"/>
	  <point x="425" y="253"/>
	  <point x="477" y="286"/>
	  <point x="477" y="399" type="curve"/>
	  <point x="477" y="613" type="line"/>
	</contour>
	<contour>
	  <point x="-10" y="634" type="line"/>
	  <point x="-10" y="590" type="line"/>
	  <point x="579" y="590" type="line"/>
	  <point x="579" y="634" type="line"/>
	</contour>
	<contour>
	  <point x="164" y="609" type="line"/>
	  <point x="110" y="609" type="line"/>
	  <point x="110" y="295" type="line" smooth="yes"/>
	  <point x="110" y="70"/>
	  <point x="239" y="40"/>
	  <point x="409" y="40" type="curve"/>
	  <point x="487" y="40" type="line"/>
	  <point x="487" y="84" type="line"/>
	  <point x="409" y="84" type="line"/>
	  <point x="281" y="84"/>
	  <point x="164" y="88"/>
	  <point x="164" y="295" type="curve"/>
	</contour>
	<contour>
	  <point x="449" y="634" type="move" name="top"/>
	</contour>
  </outline>
</glyph>
<glyph name="ka-deva" format="1">
  <advance width="796"/>
  <unicode hex="0915"/>
  <outline>
	<contour>
	  <point x="101" y="368"/>
	  <point x="149" y="385"/>
	  <point x="231" y="385" type="curve" smooth="yes"/>
	  <point x="243" y="385" type="line" smooth="yes"/>
	  <point x="261" y="385"/>
	  <point x="285" y="383"/>
	  <point x="303" y="379" type="curve"/>
	  <point x="303" y="424" type="line"/>
	  <point x="292" y="426"/>
	  <point x="261" y="429"/>
	  <point x="243" y="429" type="curve" smooth="yes"/>
	  <point x="231" y="429" type="line" smooth="yes"/>
	  <point x="109" y="429"/>
	  <point x="47" y="392"/>
	  <point x="47" y="282" type="curve" smooth="yes"/>
	  <point x="47" y="169"/>
	  <point x="109" y="136"/>
	  <point x="231" y="135" type="curve" smooth="yes"/>
	  <point x="249" y="135" type="line" smooth="yes"/>
	  <point x="287" y="135"/>
	  <point x="350" y="140"/>
	  <point x="398" y="180" type="curve"/>
	  <point x="398" y="229" type="line"/>
	  <point x="350" y="189"/>
	  <point x="299" y="179"/>
	  <point x="249" y="179" type="curve" smooth="yes"/>
	  <point x="231" y="179" type="line" smooth="yes"/>
	  <point x="148" y="180"/>
	  <point x="101" y="192"/>
	  <point x="101" y="282" type="curve"/>
	</contour>
	<contour>
	  <point x="695" y="196"/>
	  <point x="647" y="179"/>
	  <point x="565" y="179" type="curve" smooth="yes"/>
	  <point x="553" y="179" type="line" smooth="yes"/>
	  <point x="535" y="179"/>
	  <point x="511" y="181"/>
	  <point x="493" y="185" type="curve"/>
	  <point x="493" y="140" type="line"/>
	  <point x="504" y="138"/>
	  <point x="535" y="135"/>
	  <point x="553" y="135" type="curve" smooth="yes"/>
	  <point x="565" y="135" type="line" smooth="yes"/>
	  <point x="687" y="135"/>
	  <point x="749" y="172"/>
	  <point x="749" y="282" type="curve" smooth="yes"/>
	  <point x="749" y="395"/>
	  <point x="687" y="428"/>
	  <point x="565" y="429" type="curve" smooth="yes"/>
	  <point x="547" y="429" type="line" smooth="yes"/>
	  <point x="509" y="429"/>
	  <point x="446" y="424"/>
	  <point x="398" y="384" type="curve"/>
	  <point x="398" y="335" type="line"/>
	  <point x="446" y="375"/>
	  <point x="497" y="385"/>
	  <point x="547" y="385" type="curve" smooth="yes"/>
	  <point x="565" y="385" type="line" smooth="yes"/>
	  <point x="648" y="384"/>
	  <point x="695" y="372"/>
	  <point x="695" y="282" type="curve"/>
	</contour>
	<contour>
	  <point x="-10" y="634" type="line"/>
	  <point x="-10" y="590" type="line"/>
	  <point x="371" y="590" type="line"/>
	  <point x="371" y="0" type="line"/>
	  <point x="425" y="0" type="line"/>
	  <point x="425" y="590" type="line"/>
	  <point x="806" y="590" type="line"/>
	  <point x="806" y="634" type="line"/>
	</contour>
	<contour>
	  <point x="231" y="0" type="move" name="nukta"/>
	</contour>
	<contour>
	  <point x="397" y="0" type="move" name="bottom"/>
	</contour>
	<contour>
	  <point x="397" y="634" type="move" name="top"/>
	</contour>
  </outline>
</glyph>
<glyph name="gha-deva" format="1">
  <advance width="591"/>
  <unicode hex="0918"/>
  <outline>
	<contour>
	  <point x="-10" y="634" type="line"/>
	  <point x="-10" y="590" type="line"/>
	  <point x="427" y="590" type="line"/>
	  <point x="427" y="0" type="line"/>
	  <point x="481" y="0" type="line"/>
	  <point x="481" y="590" type="line"/>
	  <point x="601" y="590" type="line"/>
	  <point x="601" y="634" type="line"/>
	</contour>
	<contour>
	  <point x="157" y="365"/>
	  <point x="205" y="382"/>
	  <point x="287" y="382" type="curve" smooth="yes"/>
	  <point x="316" y="382" type="line"/>
	  <point x="316" y="426" type="line"/>
	  <point x="287" y="426" type="line" smooth="yes"/>
	  <point x="165" y="426"/>
	  <point x="103" y="389"/>
	  <point x="103" y="279" type="curve" smooth="yes"/>
	  <point x="103" y="166"/>
	  <point x="165" y="133"/>
	  <point x="287" y="132" type="curve" smooth="yes"/>
	  <point x="305" y="132" type="line" smooth="yes"/>
	  <point x="355" y="132"/>
	  <point x="411" y="142"/>
	  <point x="454" y="169" type="curve"/>
	  <point x="454" y="228" type="line"/>
	  <point x="409" y="185"/>
	  <point x="350" y="176"/>
	  <point x="305" y="176" type="curve" smooth="yes"/>
	  <point x="287" y="176" type="line" smooth="yes"/>
	  <point x="204" y="177"/>
	  <point x="157" y="189"/>
	  <point x="157" y="279" type="curve"/>
	</contour>
	<contour>
	  <point x="121" y="573"/>
	  <point x="136" y="592"/>
	  <point x="149" y="602" type="curve"/>
	  <point x="104" y="630" type="line"/>
	  <point x="77" y="606"/>
	  <point x="67" y="570"/>
	  <point x="67" y="525" type="curve" smooth="yes"/>
	  <point x="67" y="415"/>
	  <point x="141" y="382"/>
	  <point x="287" y="382" type="curve" smooth="yes"/>
	  <point x="305" y="382" type="line"/>
	  <point x="305" y="426" type="line"/>
	  <point x="287" y="426" type="line" smooth="yes"/>
	  <point x="181" y="426"/>
	  <point x="122" y="439"/>
	  <point x="121" y="525" type="curve"/>
	</contour>
	<contour>
	  <point x="143" y="0" type="move" name="nukta"/>
	</contour>
	<contour>
	  <point x="453" y="0" type="move" name="bottom"/>
	</contour>
	<contour>
	  <point x="453" y="634" type="move" name="top"/>
	</contour>
  </outline>
</glyph>
<glyph name="ca-deva" format="1">
  <advance width="606"/>
  <unicode hex="091A"/>
  <outline>
	<contour>
	  <point x="-10" y="634" type="line"/>
	  <point x="-10" y="590" type="line"/>
	  <point x="442" y="590" type="line"/>
	  <point x="442" y="0" type="line"/>
	  <point x="496" y="0" type="line"/>
	  <point x="496" y="590" type="line"/>
	  <point x="616" y="590" type="line"/>
	  <point x="616" y="634" type="line"/>
	</contour>
	<contour>
	  <point x="158" y="365"/>
	  <point x="203" y="391"/>
	  <point x="262" y="411" type="curve"/>
	  <point x="208" y="429" type="line"/>
	  <point x="146" y="411"/>
	  <point x="104" y="374"/>
	  <point x="104" y="277" type="curve" smooth="yes"/>
	  <point x="104" y="155"/>
	  <point x="173" y="119"/>
	  <point x="302" y="119" type="curve" smooth="yes"/>
	  <point x="320" y="119" type="line" smooth="yes"/>
	  <point x="358" y="119"/>
	  <point x="421" y="124"/>
	  <point x="469" y="164" type="curve"/>
	  <point x="469" y="213" type="line"/>
	  <point x="421" y="173"/>
	  <point x="370" y="163"/>
	  <point x="320" y="163" type="curve" smooth="yes"/>
	  <point x="302" y="163" type="line" smooth="yes"/>
	  <point x="214" y="163"/>
	  <point x="158" y="177"/>
	  <point x="158" y="277" type="curve"/>
	</contour>
	<contour>
	  <point x="345" y="396" type="line"/>
	  <point x="345" y="440" type="line"/>
	  <point x="24" y="440" type="line"/>
	  <point x="24" y="396" type="line"/>
	</contour>
	<contour>
	  <point x="110" y="0" type="move" name="nukta"/>
	</contour>
	<contour>
	  <point x="468" y="0" type="move" name="bottom"/>
	</contour>
	<contour>
	  <point x="468" y="634" type="move" name="top"/>
	</contour>
  </outline>
</glyph>
<glyph name="jha-deva" format="1">
  <advance width="732"/>
  <unicode hex="091D"/>
  <outline>
	<contour>
	  <point x="568" y="610" type="line"/>
	  <point x="568" y="0" type="line"/>
	  <point x="622" y="0" type="line"/>
	  <point x="622" y="610" type="line"/>
	</contour>
	<contour>
	  <point x="217" y="490" type="line" smooth="yes"/>
	  <point x="121" y="490"/>
	  <point x="73" y="460"/>
	  <point x="73" y="378" type="curve" smooth="yes"/>
	  <point x="73" y="324"/>
	  <point x="110" y="282"/>
	  <point x="131" y="266" type="curve"/>
	  <point x="272" y="266" type="line" smooth="yes"/>
	  <point x="331" y="266"/>
	  <point x="365" y="244"/>
	  <point x="367" y="177" type="curve" smooth="yes"/>
	  <point x="369" y="114"/>
	  <point x="331" y="87"/>
	  <point x="272" y="87" type="curve" smooth="yes"/>
	  <point x="257" y="87" type="line" smooth="yes"/>
	  <point x="189" y="87"/>
	  <point x="140" y="105"/>
	  <point x="93" y="135" type="curve"/>
	  <point x="75" y="93" type="line"/>
	  <point x="125" y="62"/>
	  <point x="181" y="43"/>
	  <point x="257" y="43" type="curve" smooth="yes"/>
	  <point x="272" y="43" type="line" smooth="yes"/>
	  <point x="364" y="43"/>
	  <point x="421" y="89"/>
	  <point x="421" y="177" type="curve" smooth="yes"/>
	  <point x="421" y="268"/>
	  <point x="364" y="310"/>
	  <point x="272" y="310" type="curve" smooth="yes"/>
	  <point x="157" y="310" type="line"/>
	  <point x="142" y="320"/>
	  <point x="127" y="343"/>
	  <point x="127" y="378" type="curve"/>
	  <point x="127" y="432"/>
	  <point x="159" y="446"/>
	  <point x="217" y="446" type="curve" smooth="yes"/>
	  <point x="351" y="446" type="line"/>
	  <point x="351" y="490" type="line"/>
	</contour>
	<contour>
	  <point x="73" y="194" type="line"/>
	  <point x="73" y="-35" type="line"/>
	  <point x="127" y="-35" type="line"/>
	  <point x="127" y="194" type="line"/>
	</contour>
	<contour>
	  <point x="-10" y="634" type="line"/>
	  <point x="-10" y="590" type="line"/>
	  <point x="297" y="590" type="line"/>
	  <point x="297" y="460" type="line"/>
	  <point x="351" y="460" type="line"/>
	  <point x="351" y="590" type="line"/>
	  <point x="742" y="590" type="line"/>
	  <point x="742" y="634" type="line"/>
	</contour>
	<contour>
	  <point x="375" y="252" type="line"/>
	  <point x="375" y="208" type="line"/>
	  <point x="593" y="208" type="line"/>
	  <point x="593" y="252" type="line"/>
	</contour>
	<contour>
	  <point x="267" y="-62" type="move" name="nukta"/>
	</contour>
	<contour>
	  <point x="595" y="0" type="move" name="bottom"/>
	</contour>
	<contour>
	  <point x="595" y="634" type="move" name="top"/>
	</contour>
  </outline>
</glyph>
<glyph name="nya-deva" format="1">
  <advance width="564"/>
  <unicode hex="091E"/>
  <outline>
	<contour>
	  <point x="-10" y="634" type="line"/>
	  <point x="-10" y="590" type="line"/>
	  <point x="400" y="590" type="line"/>
	  <point x="400" y="0" type="line"/>
	  <point x="454" y="0" type="line"/>
	  <point x="454" y="590" type="line"/>
	  <point x="574" y="590" type="line"/>
	  <point x="574" y="634" type="line"/>
	</contour>
	<contour>
	  <point x="231" y="186"/>
	  <point x="184" y="157"/>
	  <point x="101" y="157" type="curve" smooth="yes"/>
	  <point x="38" y="157" type="line"/>
	  <point x="38" y="113" type="line"/>
	  <point x="101" y="113" type="line" smooth="yes"/>
	  <point x="223" y="113"/>
	  <point x="285" y="161"/>
	  <point x="285" y="286" type="curve" smooth="yes"/>
	  <point x="285" y="417"/>
	  <point x="223" y="459"/>
	  <point x="101" y="459" type="curve" smooth="yes"/>
	  <point x="38" y="459" type="line"/>
	  <point x="38" y="415" type="line"/>
	  <point x="101" y="415" type="line" smooth="yes"/>
	  <point x="185" y="415"/>
	  <point x="231" y="393"/>
	  <point x="231" y="286" type="curve"/>
	</contour>
	<contour>
	  <point x="426" y="266" type="line"/>
	  <point x="426" y="310" type="line"/>
	  <point x="258" y="310" type="line"/>
	  <point x="258" y="266" type="line"/>
	</contour>
	<contour>
	  <point x="243" y="0" type="move" name="nukta"/>
	</contour>
	<contour>
	  <point x="426" y="0" type="move" name="bottom"/>
	</contour>
	<contour>
	  <point x="426" y="634" type="move" name="top"/>
	</contour>
  </outline>
</glyph>
<glyph name="tta-deva" format="1">
  <advance width="509"/>
  <unicode hex="091F"/>
  <outline>
	<contour>
	  <point x="257" y="78" type="line"/>
	  <point x="166" y="78"/>
	  <point x="116" y="106"/>
	  <point x="116" y="247" type="curve"/>
	  <point x="116" y="388"/>
	  <point x="173" y="416"/>
	  <point x="267" y="416" type="curve" smooth="yes"/>
	  <point x="399" y="416" type="line"/>
	  <point x="399" y="460" type="line" smooth="yes"/>
	  <point x="267" y="460" type="line" smooth="yes"/>
	  <point x="132" y="460"/>
	  <point x="62" y="407"/>
	  <point x="62" y="247" type="curve" smooth="yes"/>
	  <point x="62" y="87"/>
	  <point x="127" y="34"/>
	  <point x="257" y="34" type="curve"/>
	  <point x="276" y="34" type="line"/>
	  <point x="407" y="34"/>
	  <point x="467" y="87"/>
	  <point x="467" y="217" type="curve"/>
	  <point x="467" y="247" type="line"/>
	  <point x="413" y="247" type="line"/>
	  <point x="413" y="217" type="line"/>
	  <point x="413" y="106"/>
	  <point x="368" y="78"/>
	  <point x="276" y="78" type="curve"/>
	</contour>
	<contour>
	  <point x="-10" y="634" type="line"/>
	  <point x="-10" y="590" type="line"/>
	  <point x="345" y="590" type="line"/>
	  <point x="345" y="431" type="line"/>
	  <point x="399" y="431" type="line"/>
	  <point x="399" y="590" type="line"/>
	  <point x="519" y="590" type="line"/>
	  <point x="519" y="634" type="line"/>
	</contour>
	<contour>
	  <point x="268" y="-80" type="move" name="nukta"/>
	</contour>
	<contour>
	  <point x="353" y="0" type="move" name="bottom"/>
	</contour>
	<contour>
	  <point x="372" y="634" type="move" name="top"/>
	</contour>
  </outline>
</glyph>
<glyph name="ttha-deva" format="1">
  <advance width="535"/>
  <unicode hex="0920"/>
  <outline>
	<contour>
	  <point x="132" y="460"/>
	  <point x="62" y="407"/>
	  <point x="62" y="247" type="curve" smooth="yes"/>
	  <point x="62" y="87"/>
	  <point x="127" y="34"/>
	  <point x="257" y="34" type="curve"/>
	  <point x="272" y="34" type="line"/>
	  <point x="403" y="34"/>
	  <point x="467" y="87"/>
	  <point x="467" y="247" type="curve" smooth="yes"/>
	  <point x="467" y="398"/>
	  <point x="405" y="460"/>
	  <point x="267" y="460" type="curve"/>
	</contour>
	<contour>
	  <point x="-10" y="634" type="line"/>
	  <point x="-10" y="590" type="line"/>
	  <point x="371" y="590" type="line"/>
	  <point x="371" y="541" type="line"/>
	  <point x="371" y="479"/>
	  <point x="341" y="460"/>
	  <point x="267" y="460" type="curve"/>
	  <point x="267" y="420" type="line"/>
	  <point x="356" y="420"/>
	  <point x="425" y="449"/>
	  <point x="425" y="541" type="curve"/>
	  <point x="425" y="590" type="line"/>
	  <point x="545" y="590" type="line"/>
	  <point x="545" y="634" type="line"/>
	</contour>
	<contour>
	  <point x="357" y="416"/>
	  <point x="413" y="386"/>
	  <point x="413" y="247" type="curve"/>
	  <point x="413" y="106"/>
	  <point x="364" y="78"/>
	  <point x="272" y="78" type="curve"/>
	  <point x="263" y="78" type="line"/>
	  <point x="166" y="78"/>
	  <point x="116" y="106"/>
	  <point x="116" y="247" type="curve"/>
	  <point x="116" y="388"/>
	  <point x="173" y="416"/>
	  <point x="267" y="416" type="curve"/>
	</contour>
	<contour>
	  <point x="268" y="-80" type="move" name="nukta"/>
	</contour>
	<contour>
	  <point x="268" y="6" type="move" name="bottom"/>
	</contour>
	<contour>
	  <point x="398" y="634" type="move" name="top"/>
	</contour>
  </outline>
</glyph>
<glyph name="ta-deva" format="1">
  <advance width="550"/>
  <unicode hex="0924"/>
  <outline>
	<contour>
	  <point x="-10" y="634" type="line"/>
	  <point x="-10" y="590" type="line"/>
	  <point x="386" y="590" type="line"/>
	  <point x="386" y="0" type="line"/>
	  <point x="440" y="0" type="line"/>
	  <point x="440" y="590" type="line"/>
	  <point x="560" y="590" type="line"/>
	  <point x="560" y="634" type="line"/>
	</contour>
	<contour>
	  <point x="118" y="374"/>
	  <point x="153" y="406"/>
	  <point x="220" y="406" type="curve" smooth="yes"/>
	  <point x="414" y="406" type="line"/>
	  <point x="414" y="450" type="line"/>
	  <point x="220" y="450" type="line" smooth="yes"/>
	  <point x="115" y="450"/>
	  <point x="62" y="393"/>
	  <point x="62" y="227" type="curve" smooth="yes"/>
	  <point x="62" y="60"/>
	  <point x="131" y="0"/>
	  <point x="240" y="0" type="curve" smooth="yes"/>
	  <point x="252" y="0" type="line"/>
	  <point x="252" y="44" type="line"/>
	  <point x="240" y="44" type="line" smooth="yes"/>
	  <point x="164" y="44"/>
	  <point x="118" y="80"/>
	  <point x="116" y="227" type="curve"/>
	</contour>
	<contour>
	  <point x="128" y="-103" type="move" name="nukta"/>
	</contour>
	<contour>
	  <point x="416" y="0" type="move" name="bottom"/>
	</contour>
	<contour>
	  <point x="412" y="634" type="move" name="top"/>
	</contour>
  </outline>
</glyph>
<glyph name="tha-deva" format="1">
  <advance width="580"/>
  <unicode hex="0925"/>
  <outline>
	<contour>
	  <point x="326" y="634" type="line"/>
	  <point x="326" y="590" type="line"/>
	  <point x="416" y="590" type="line"/>
	  <point x="416" y="0" type="line"/>
	  <point x="470" y="0" type="line"/>
	  <point x="470" y="590" type="line"/>
	  <point x="590" y="590" type="line"/>
	  <point x="590" y="634" type="line"/>
	</contour>
	<contour>
	  <point x="260" y="604"/>
	  <point x="232" y="647"/>
	  <point x="156" y="647" type="curve" smooth="yes"/>
	  <point x="80" y="647"/>
	  <point x="52" y="602"/>
	  <point x="52" y="523" type="curve"/>
	  <point x="52" y="485" type="line"/>
	  <point x="106" y="485" type="line"/>
	  <point x="106" y="523" type="line"/>
	  <point x="106" y="582"/>
	  <point x="117" y="603"/>
	  <point x="156" y="603" type="curve" smooth="yes"/>
	  <point x="195" y="603"/>
	  <point x="206" y="584"/>
	  <point x="206" y="523" type="curve"/>
	  <point x="206" y="485" type="line"/>
	  <point x="206" y="367"/>
	  <point x="165" y="341"/>
	  <point x="65" y="301" type="curve"/>
	  <point x="117" y="190"/>
	  <point x="172" y="156"/>
	  <point x="278" y="156" type="curve" smooth="yes"/>
	  <point x="318" y="156"/>
	  <point x="390" y="169"/>
	  <point x="443" y="210" type="curve"/>
	  <point x="443" y="263" type="line"/>
	  <point x="390" y="221"/>
	  <point x="329" y="200"/>
	  <point x="278" y="200" type="curve" smooth="yes"/>
	  <point x="221" y="200"/>
	  <point x="167" y="211"/>
	  <point x="132" y="273" type="curve"/>
	  <point x="208" y="314"/>
	  <point x="260" y="354"/>
	  <point x="260" y="485" type="curve"/>
	  <point x="260" y="523" type="line"/>
	</contour>
	<contour>
	  <point x="125" y="60" type="move" name="nukta"/>
	</contour>
	<contour>
	  <point x="442" y="0" type="move" name="bottom"/>
	</contour>
	<contour>
	  <point x="442" y="634" type="move" name="top"/>
	</contour>
  </outline>
</glyph>
<glyph name="da-deva" format="1">
  <advance width="509"/>
  <unicode hex="0926"/>
  <outline>
	<contour>
	  <point x="369" y="214" type="line"/>
	  <point x="369" y="-15" type="line"/>
	  <point x="423" y="-15" type="line"/>
	  <point x="423" y="214" type="line"/>
	</contour>
	<contour>
	  <point x="330" y="74"/>
	  <point x="356" y="77"/>
	  <point x="384" y="84" type="curve"/>
	  <point x="384" y="130" type="line"/>
	  <point x="352" y="121"/>
	  <point x="328" y="118"/>
	  <point x="295" y="118" type="curve"/>
	  <point x="277" y="118" type="line" smooth="yes"/>
	  <point x="174" y="118"/>
	  <point x="116" y="145"/>
	  <point x="116" y="277" type="curve"/>
	  <point x="116" y="410"/>
	  <point x="181" y="436"/>
	  <point x="287" y="436" type="curve" smooth="yes"/>
	  <point x="399" y="436" type="line"/>
	  <point x="399" y="480" type="line" smooth="yes"/>
	  <point x="287" y="480" type="line" smooth="yes"/>
	  <point x="139" y="480"/>
	  <point x="62" y="430"/>
	  <point x="62" y="277" type="curve" smooth="yes"/>
	  <point x="62" y="125"/>
	  <point x="134" y="74"/>
	  <point x="277" y="74" type="curve" smooth="yes"/>
	  <point x="295" y="74" type="line"/>
	</contour>
	<contour>
	  <point x="-10" y="634" type="line"/>
	  <point x="-10" y="590" type="line"/>
	  <point x="345" y="590" type="line"/>
	  <point x="345" y="451" type="line"/>
	  <point x="399" y="451" type="line"/>
	  <point x="399" y="590" type="line"/>
	  <point x="519" y="590" type="line"/>
	  <point x="519" y="634" type="line"/>
	</contour>
	<contour>
	  <point x="268" y="-80" type="move" name="nukta"/>
	</contour>
	<contour>
	  <point x="395" y="-15" type="move" name="bottom"/>
	</contour>
	<contour>
	  <point x="371" y="634" type="move" name="top"/>
	</contour>
  </outline>
</glyph>
<glyph name="pa-deva" format="1">
  <advance width="535"/>
  <unicode hex="092A"/>
  <outline>
	<contour>
	  <point x="-10" y="634" type="line"/>
	  <point x="-10" y="590" type="line"/>
	  <point x="90" y="590" type="line"/>
	  <point x="90" y="382" type="line" smooth="yes"/>
	  <point x="90" y="252"/>
	  <point x="149" y="214"/>
	  <point x="257" y="214" type="curve" smooth="yes"/>
	  <point x="317" y="214"/>
	  <point x="358" y="235"/>
	  <point x="399" y="267" type="curve"/>
	  <point x="399" y="320" type="line"/>
	  <point x="366" y="291"/>
	  <point x="331" y="258"/>
	  <point x="257" y="258" type="curve" smooth="yes"/>
	  <point x="173" y="258"/>
	  <point x="144" y="291"/>
	  <point x="144" y="382" type="curve" smooth="yes"/>
	  <point x="144" y="590" type="line"/>
	  <point x="371" y="590" type="line"/>
	  <point x="371" y="0" type="line"/>
	  <point x="425" y="0" type="line"/>
	  <point x="425" y="590" type="line"/>
	  <point x="545" y="590" type="line"/>
	  <point x="545" y="634" type="line"/>
	</contour>
	<contour>
	  <point x="128" y="100" type="move" name="nukta"/>
	</contour>
	<contour>
	  <point x="397" y="0" type="move" name="bottom"/>
	</contour>
	<contour>
	  <point x="397" y="634" type="move" name="top"/>
	</contour>
  </outline>
</glyph>
<glyph name="pha-deva" format="1">
  <advance width="796"/>
  <unicode hex="092B"/>
  <outline>
	<contour>
	  <point x="695" y="196"/>
	  <point x="647" y="179"/>
	  <point x="565" y="179" type="curve" smooth="yes"/>
	  <point x="553" y="179" type="line" smooth="yes"/>
	  <point x="535" y="179"/>
	  <point x="511" y="181"/>
	  <point x="493" y="185" type="curve"/>
	  <point x="493" y="140" type="line"/>
	  <point x="504" y="138"/>
	  <point x="535" y="135"/>
	  <point x="553" y="135" type="curve" smooth="yes"/>
	  <point x="565" y="135" type="line" smooth="yes"/>
	  <point x="687" y="135"/>
	  <point x="749" y="172"/>
	  <point x="749" y="282" type="curve" smooth="yes"/>
	  <point x="749" y="395"/>
	  <point x="687" y="428"/>
	  <point x="565" y="429" type="curve" smooth="yes"/>
	  <point x="547" y="429" type="line" smooth="yes"/>
	  <point x="509" y="429"/>
	  <point x="446" y="424"/>
	  <point x="398" y="384" type="curve"/>
	  <point x="398" y="335" type="line"/>
	  <point x="446" y="375"/>
	  <point x="497" y="385"/>
	  <point x="547" y="385" type="curve" smooth="yes"/>
	  <point x="565" y="385" type="line" smooth="yes"/>
	  <point x="648" y="384"/>
	  <point x="695" y="372"/>
	  <point x="695" y="282" type="curve"/>
	</contour>
	<contour>
	  <point x="-10" y="634" type="line"/>
	  <point x="-10" y="590" type="line"/>
	  <point x="90" y="590" type="line"/>
	  <point x="90" y="382" type="line" smooth="yes"/>
	  <point x="90" y="252"/>
	  <point x="149" y="214"/>
	  <point x="257" y="214" type="curve" smooth="yes"/>
	  <point x="317" y="214"/>
	  <point x="358" y="235"/>
	  <point x="399" y="267" type="curve"/>
	  <point x="399" y="320" type="line"/>
	  <point x="366" y="291"/>
	  <point x="331" y="258"/>
	  <point x="257" y="258" type="curve" smooth="yes"/>
	  <point x="173" y="258"/>
	  <point x="144" y="291"/>
	  <point x="144" y="382" type="curve" smooth="yes"/>
	  <point x="144" y="590" type="line"/>
	  <point x="371" y="590" type="line"/>
	  <point x="371" y="0" type="line"/>
	  <point x="425" y="0" type="line"/>
	  <point x="425" y="590" type="line"/>
	  <point x="806" y="590" type="line"/>
	  <point x="806" y="634" type="line"/>
	</contour>
	<contour>
	  <point x="128" y="100" type="move" name="nukta"/>
	</contour>
	<contour>
	  <point x="397" y="0" type="move" name="bottom"/>
	</contour>
	<contour>
	  <point x="397" y="634" type="move" name="top"/>
	</contour>
  </outline>
</glyph>
<glyph name="ba-deva" format="1">
  <advance width="535"/>
  <unicode hex="092C"/>
  <outline>
	<contour>
	  <point x="156" y="394" type="line"/>
	  <point x="108" y="394" type="line"/>
	  <point x="306" y="168" type="line"/>
	  <point x="354" y="168" type="line" smooth="yes"/>
	</contour>
	<component base="va-deva"/>
	<contour>
	  <point x="231" y="0" type="move" name="nukta"/>
	</contour>
  </outline>
</glyph>
<glyph name="bha-deva" format="1">
  <advance width="606"/>
  <unicode hex="092D"/>
  <outline>
	<contour>
	  <point x="147" y="160" type="line"/>
	  <point x="201" y="160" type="line"/>
	  <point x="201" y="563" type="line" smooth="yes"/>
	  <point x="201" y="615"/>
	  <point x="177" y="647"/>
	  <point x="111" y="647" type="curve" smooth="yes"/>
	  <point x="45" y="647"/>
	  <point x="21" y="615"/>
	  <point x="21" y="563" type="curve"/>
	  <point x="21" y="525" type="line"/>
	  <point x="75" y="525" type="line"/>
	  <point x="75" y="563" type="line"/>
	  <point x="75" y="591"/>
	  <point x="84" y="603"/>
	  <point x="111" y="603" type="curve" smooth="yes"/>
	  <point x="140" y="603"/>
	  <point x="147" y="591"/>
	  <point x="147" y="563" type="curve"/>
	</contour>
	<contour>
	  <point x="177" y="301" type="line"/>
	  <point x="177" y="257" type="line"/>
	  <point x="470" y="257" type="line"/>
	  <point x="470" y="301" type="line"/>
	</contour>
	<contour>
	  <point x="442" y="590" type="line"/>
	  <point x="442" y="0" type="line"/>
	  <point x="496" y="0" type="line"/>
	  <point x="496" y="590" type="line"/>
	  <point x="616" y="590" type="line"/>
	  <point x="616" y="634" type="line"/>
	  <point x="338" y="634" type="line"/>
	  <point x="338" y="590" type="line"/>
	</contour>
	<contour>
	  <point x="169" y="0" type="move" name="nukta"/>
	</contour>
	<contour>
	  <point x="468" y="0" type="move" name="bottom"/>
	</contour>
	<contour>
	  <point x="468" y="634" type="move" name="top"/>
	</contour>
  </outline>
</glyph>
<glyph name="ma-deva" format="1">
  <advance width="564"/>
  <unicode hex="092E"/>
  <outline>
	<contour>
	  <point x="-10" y="634" type="line"/>
	  <point x="-10" y="590" type="line"/>
	  <point x="105" y="590" type="line"/>
	  <point x="105" y="182" type="line"/>
	  <point x="159" y="182" type="line"/>
	  <point x="159" y="590" type="line"/>
	  <point x="400" y="590" type="line"/>
	  <point x="400" y="0" type="line"/>
	  <point x="454" y="0" type="line"/>
	  <point x="454" y="590" type="line"/>
	  <point x="574" y="590" type="line"/>
	  <point x="574" y="634" type="line"/>
	</contour>
	<contour>
	  <point x="135" y="323" type="line"/>
	  <point x="135" y="279" type="line"/>
	  <point x="428" y="279" type="line"/>
	  <point x="428" y="323" type="line"/>
	</contour>
	<contour>
	  <point x="130" y="0" type="move" name="nukta"/>
	</contour>
	<contour>
	  <point x="426" y="0" type="move" name="bottom"/>
	</contour>
	<contour>
	  <point x="426" y="634" type="move" name="top"/>
	</contour>
  </outline>
</glyph>
<glyph name="ya-deva" format="1">
  <advance width="580"/>
  <unicode hex="092F"/>
  <outline>
	<contour>
	  <point x="-10" y="634" type="line"/>
	  <point x="-10" y="590" type="line"/>
	  <point x="416" y="590" type="line"/>
	  <point x="416" y="0" type="line"/>
	  <point x="470" y="0" type="line"/>
	  <point x="470" y="590" type="line"/>
	  <point x="590" y="590" type="line"/>
	  <point x="590" y="634" type="line"/>
	</contour>
	<contour>
	  <point x="218" y="338"/>
	  <point x="254" y="388"/>
	  <point x="254" y="464" type="curve" smooth="yes"/>
	  <point x="254" y="504"/>
	  <point x="233" y="576"/>
	  <point x="191" y="629" type="curve"/>
	  <point x="137" y="629" type="line"/>
	  <point x="179" y="576"/>
	  <point x="200" y="516"/>
	  <point x="200" y="464" type="curve" smooth="yes"/>
	  <point x="200" y="400"/>
	  <point x="171" y="362"/>
	  <point x="65" y="322" type="curve"/>
	  <point x="116" y="211"/>
	  <point x="172" y="177"/>
	  <point x="278" y="177" type="curve" smooth="yes"/>
	  <point x="318" y="177"/>
	  <point x="390" y="190"/>
	  <point x="443" y="231" type="curve"/>
	  <point x="443" y="284" type="line"/>
	  <point x="390" y="242"/>
	  <point x="330" y="221"/>
	  <point x="278" y="221" type="curve" smooth="yes"/>
	  <point x="221" y="221"/>
	  <point x="167" y="232"/>
	  <point x="132" y="294" type="curve"/>
	</contour>
	<contour>
	  <point x="125" y="70" type="move" name="nukta"/>
	</contour>
	<contour>
	  <point x="442" y="0" type="move" name="bottom"/>
	</contour>
	<contour>
	  <point x="442" y="634" type="move" name="top"/>
	</contour>
  </outline>
</glyph>
<glyph name="ra-deva" format="1">
  <advance width="426"/>
  <unicode hex="0930"/>
  <outline>
	<contour>
	  <point x="-10" y="634" type="line"/>
	  <point x="-10" y="590" type="line"/>
	  <point x="436" y="590" type="line"/>
	  <point x="436" y="634" type="line"/>
	</contour>
	<contour>
	  <point x="262" y="613" type="line"/>
	  <point x="262" y="395" type="line"/>
	  <point x="262" y="313"/>
	  <point x="210" y="302"/>
	  <point x="122" y="302" type="curve" smooth="yes"/>
	  <point x="100" y="302" type="line"/>
	  <point x="100" y="258" type="line"/>
	  <point x="122" y="258" type="line" smooth="yes"/>
	  <point x="250" y="258"/>
	  <point x="316" y="289"/>
	  <point x="316" y="395" type="curve"/>
	  <point x="316" y="613" type="line"/>
	</contour>
	<contour>
	  <point x="121" y="429" type="line"/>
	  <point x="67" y="429" type="line"/>
	  <point x="67" y="195" type="line" smooth="yes"/>
	  <point x="67" y="34"/>
	  <point x="157" y="0"/>
	  <point x="278" y="0" type="curve"/>
	  <point x="378" y="0" type="line"/>
	  <point x="378" y="44" type="line"/>
	  <point x="278" y="44" type="line"/>
	  <point x="165" y="44"/>
	  <point x="121" y="80"/>
	  <point x="121" y="195" type="curve"/>
	</contour>
	<contour>
	  <point x="56" y="-77" type="move" name="nukta"/>
	</contour>
	<contour>
	  <point x="187" y="0" type="move" name="bottom"/>
	</contour>
	<contour>
	  <point x="289" y="634" type="move" name="top"/>
	</contour>
  </outline>
</glyph>
<glyph name="la-deva" format="1">
  <advance width="772"/>
  <unicode hex="0932"/>
  <outline>
	<contour>
	  <point x="-10" y="634" type="line"/>
	  <point x="-10" y="590" type="line"/>
	  <point x="608" y="590" type="line"/>
	  <point x="605" y="0" type="line"/>
	  <point x="659" y="0" type="line"/>
	  <point x="662" y="590" type="line"/>
	  <point x="782" y="590" type="line"/>
	  <point x="782" y="634" type="line"/>
	</contour>
	<contour>
	  <point x="418" y="350"/>
	  <point x="359" y="430"/>
	  <point x="240" y="430" type="curve"/>
	  <point x="121" y="430"/>
	  <point x="62" y="350"/>
	  <point x="62" y="237" type="curve" smooth="yes"/>
	  <point x="62" y="122"/>
	  <point x="120" y="0"/>
	  <point x="320" y="0" type="curve" smooth="yes"/>
	  <point x="332" y="0" type="line"/>
	  <point x="332" y="44" type="line"/>
	  <point x="320" y="44" type="line" smooth="yes"/>
	  <point x="152" y="44"/>
	  <point x="119" y="142"/>
	  <point x="116" y="237" type="curve"/>
	  <point x="118" y="329"/>
	  <point x="158" y="386"/>
	  <point x="240" y="386" type="curve"/>
	  <point x="322" y="386"/>
	  <point x="362" y="329"/>
	  <point x="364" y="237" type="curve"/>
	  <point x="364" y="198" type="line"/>
	  <point x="418" y="198" type="line"/>
	  <point x="418" y="237" type="line"/>
	</contour>
	<contour>
	  <point x="364" y="208" type="line"/>
	  <point x="418" y="208" type="line"/>
	  <point x="418" y="247" type="line"/>
	  <point x="420" y="339"/>
	  <point x="460" y="396"/>
	  <point x="542" y="396" type="curve"/>
	  <point x="579" y="396"/>
	  <point x="610" y="384"/>
	  <point x="631" y="360" type="curve"/>
	  <point x="631" y="421" type="line"/>
	  <point x="606" y="433"/>
	  <point x="578" y="440"/>
	  <point x="542" y="440" type="curve"/>
	  <point x="423" y="440"/>
	  <point x="364" y="360"/>
	  <point x="364" y="247" type="curve"/>
	</contour>
	<contour>
	  <point x="114" y="-87" type="move" name="nukta"/>
	</contour>
	<contour>
	  <point x="634" y="0" type="move" name="bottom"/>
	</contour>
	<contour>
	  <point x="634" y="634" type="move" name="top"/>
	</contour>
  </outline>
</glyph>
<glyph name="lla-deva" format="1">
  <advance width="746"/>
  <unicode hex="0933"/>
  <outline>
	<contour>
	  <point x="338" y="99"/>
	  <point x="395" y="178"/>
	  <point x="395" y="276" type="curve" smooth="yes"/>
	  <point x="395" y="373"/>
	  <point x="338" y="452"/>
	  <point x="224" y="452" type="curve" smooth="yes"/>
	  <point x="106" y="452"/>
	  <point x="47" y="373"/>
	  <point x="47" y="276" type="curve" smooth="yes"/>
	  <point x="47" y="178"/>
	  <point x="106" y="99"/>
	  <point x="224" y="99" type="curve" smooth="yes"/>
	</contour>
	<contour>
	  <point x="551" y="420" type="line"/>
	  <point x="551" y="610" type="line"/>
	  <point x="497" y="610" type="line"/>
	  <point x="497" y="420" type="line"/>
	</contour>
	<contour>
	  <point x="756" y="590" type="line"/>
	  <point x="756" y="634" type="line"/>
	  <point x="-10" y="634" type="line"/>
	  <point x="-10" y="590" type="line"/>
	</contour>
	<contour>
	  <point x="640" y="99"/>
	  <point x="699" y="178"/>
	  <point x="699" y="276" type="curve" smooth="yes"/>
	  <point x="699" y="373"/>
	  <point x="640" y="452"/>
	  <point x="523" y="452" type="curve" smooth="yes"/>
	  <point x="408" y="452"/>
	  <point x="351" y="373"/>
	  <point x="351" y="276" type="curve" smooth="yes"/>
	  <point x="351" y="178"/>
	  <point x="408" y="99"/>
	  <point x="523" y="99" type="curve" smooth="yes"/>
	</contour>
	<contour>
	  <point x="434" y="143"/>
	  <point x="400" y="202"/>
	  <point x="400" y="276" type="curve" smooth="yes"/>
	  <point x="400" y="349"/>
	  <point x="434" y="408"/>
	  <point x="523" y="408" type="curve" smooth="yes"/>
	  <point x="610" y="408"/>
	  <point x="645" y="349"/>
	  <point x="645" y="276" type="curve" smooth="yes"/>
	  <point x="645" y="202"/>
	  <point x="610" y="143"/>
	  <point x="523" y="143" type="curve" smooth="yes"/>
	</contour>
	<contour>
	  <point x="135" y="143"/>
	  <point x="101" y="202"/>
	  <point x="101" y="276" type="curve" smooth="yes"/>
	  <point x="101" y="349"/>
	  <point x="135" y="408"/>
	  <point x="224" y="408" type="curve" smooth="yes"/>
	  <point x="311" y="408"/>
	  <point x="346" y="349"/>
	  <point x="346" y="276" type="curve" smooth="yes"/>
	  <point x="346" y="202"/>
	  <point x="311" y="143"/>
	  <point x="224" y="143" type="curve" smooth="yes"/>
	</contour>
	<contour>
	  <point x="372" y="0" type="move" name="nukta"/>
	</contour>
	<contour>
	  <point x="372" y="100" type="move" name="bottom"/>
	</contour>
	<contour>
	  <point x="524" y="634" type="move" name="top"/>
	</contour>
  </outline>
</glyph>
<glyph name="va-deva" format="1">
  <advance width="535"/>
  <unicode hex="0935"/>
  <outline>
	<contour>
	  <point x="-10" y="634" type="line"/>
	  <point x="-10" y="590" type="line"/>
	  <point x="371" y="590" type="line"/>
	  <point x="371" y="0" type="line"/>
	  <point x="425" y="0" type="line"/>
	  <point x="425" y="590" type="line"/>
	  <point x="545" y="590" type="line"/>
	  <point x="545" y="634" type="line"/>
	</contour>
	<contour>
	  <point x="101" y="368"/>
	  <point x="149" y="385"/>
	  <point x="231" y="385" type="curve" smooth="yes"/>
	  <point x="243" y="385" type="line" smooth="yes"/>
	  <point x="261" y="385"/>
	  <point x="285" y="383"/>
	  <point x="303" y="379" type="curve"/>
	  <point x="303" y="424" type="line"/>
	  <point x="292" y="426"/>
	  <point x="261" y="429"/>
	  <point x="243" y="429" type="curve" smooth="yes"/>
	  <point x="231" y="429" type="line" smooth="yes"/>
	  <point x="109" y="429"/>
	  <point x="47" y="392"/>
	  <point x="47" y="282" type="curve" smooth="yes"/>
	  <point x="47" y="169"/>
	  <point x="109" y="136"/>
	  <point x="231" y="135" type="curve" smooth="yes"/>
	  <point x="249" y="135" type="line" smooth="yes"/>
	  <point x="287" y="135"/>
	  <point x="350" y="140"/>
	  <point x="398" y="180" type="curve"/>
	  <point x="398" y="229" type="line"/>
	  <point x="350" y="189"/>
	  <point x="299" y="179"/>
	  <point x="249" y="179" type="curve" smooth="yes"/>
	  <point x="231" y="179" type="line" smooth="yes"/>
	  <point x="148" y="180"/>
	  <point x="101" y="192"/>
	  <point x="101" y="282" type="curve"/>
	</contour>
	<contour>
	  <point x="231" y="0" type="move" name="nukta"/>
	</contour>
	<contour>
	  <point x="397" y="0" type="move" name="bottom"/>
	</contour>
	<contour>
	  <point x="397" y="634" type="move" name="top"/>
	</contour>
  </outline>
</glyph>
<glyph name="sha-deva" format="1">
  <advance width="702"/>
  <unicode hex="0936"/>
  <outline>
	<contour>
	  <point x="538" y="610" type="line"/>
	  <point x="538" y="0" type="line"/>
	  <point x="592" y="0" type="line"/>
	  <point x="592" y="610" type="line"/>
	</contour>
	<contour>
	  <point x="538" y="634" type="line"/>
	  <point x="538" y="590" type="line"/>
	  <point x="712" y="590" type="line"/>
	  <point x="712" y="634" type="line"/>
	</contour>
	<contour>
	  <point x="393" y="583"/>
	  <point x="350" y="647"/>
	  <point x="235" y="647" type="curve" smooth="yes"/>
	  <point x="125" y="647"/>
	  <point x="78" y="584"/>
	  <point x="77" y="467" type="curve"/>
	  <point x="77" y="429" type="line"/>
	  <point x="131" y="429" type="line"/>
	  <point x="131" y="467" type="line"/>
	  <point x="132" y="569"/>
	  <point x="167" y="603"/>
	  <point x="235" y="603" type="curve" smooth="yes"/>
	  <point x="314" y="603"/>
	  <point x="339" y="570"/>
	  <point x="339" y="467" type="curve"/>
	  <point x="338" y="351"/>
	  <point x="267" y="281"/>
	  <point x="147" y="281" type="curve" smooth="yes"/>
	  <point x="57" y="281" type="line"/>
	  <point x="57" y="237" type="line"/>
	  <point x="147" y="237" type="line" smooth="yes"/>
	  <point x="295" y="237"/>
	  <point x="392" y="332"/>
	  <point x="393" y="467" type="curve"/>
	</contour>
	<contour>
	  <point x="112" y="265" type="line"/>
	  <point x="112" y="66"/>
	  <point x="217" y="0"/>
	  <point x="357" y="0" type="curve"/>
	  <point x="417" y="0" type="line"/>
	  <point x="417" y="44" type="line"/>
	  <point x="357" y="44" type="line"/>
	  <point x="255" y="44"/>
	  <point x="167" y="82"/>
	  <point x="166" y="265" type="curve"/>
	</contour>
	<contour>
	  <point x="102" y="-50" type="move" name="nukta"/>
	</contour>
	<contour>
	  <point x="564" y="0" type="move" name="bottom"/>
	</contour>
	<contour>
	  <point x="564" y="634" type="move" name="top"/>
	</contour>
  </outline>
</glyph>
<glyph name="oeMatra-deva" format="1">
  <advance width="0"/>
  <unicode hex="093A"/>
  <outline>
	<contour>
	  <point x="-164" y="903" type="line"/>
	  <point x="-164" y="613" type="line"/>
	  <point x="-110" y="613" type="line"/>
	  <point x="-110" y="903" type="line"/>
	</contour>
	<contour>
	  <point x="-138" y="634" type="move" name="_top"/>
	</contour>
  </outline>
</glyph>
<glyph name="ooeMatra-deva" format="1">
  <advance width="274"/>
  <unicode hex="093B"/>
  <outline>
	<contour>
	  <point x="110" y="903" type="line"/>
	  <point x="110" y="613" type="line"/>
	  <point x="164" y="613" type="line"/>
	  <point x="164" y="903" type="line"/>
	</contour>
	<component base="aaMatra-deva"/>
  </outline>
</glyph>
<glyph name="nukta-deva" format="1">
  <advance width="0"/>
  <unicode hex="093C"/>
  <outline>
	<contour>
	  <point x="-195" y="-117" type="line"/>
	  <point x="-138" y="-173" type="line"/>
	  <point x="-81" y="-117" type="line"/>
	  <point x="-138" y="-60" type="line"/>
	</contour>
	<contour>
	  <point x="-138" y="-117" type="move" name="_nukta"/>
	</contour>
  </outline>
</glyph>
<glyph name="avagraha-deva" format="1">
  <advance width="485"/>
  <unicode hex="093D"/>
  <outline>
	<contour>
	  <point x="164" y="387"/>
	  <point x="164" y="510" type="curve" smooth="yes"/>
	  <point x="164" y="559"/>
	  <point x="191" y="590"/>
	  <point x="268" y="590" type="curve" smooth="yes"/>
	  <point x="422" y="590" type="line"/>
	  <point x="422" y="634" type="line"/>
	  <point x="268" y="634" type="line"/>
	  <point x="154" y="634"/>
	  <point x="110" y="585"/>
	  <point x="110" y="510" type="curve" smooth="yes"/>
	  <point x="110" y="358"/>
	  <point x="308" y="301"/>
	  <point x="308" y="162" type="curve" smooth="yes"/>
	  <point x="308" y="94"/>
	  <point x="266" y="44"/>
	  <point x="157" y="44" type="curve" smooth="yes"/>
	  <point x="30" y="44" type="line"/>
	  <point x="30" y="0" type="line"/>
	  <point x="157" y="0" type="line"/>
	  <point x="303" y="0"/>
	  <point x="362" y="66"/>
	  <point x="362" y="162" type="curve" smooth="yes"/>
	  <point x="362" y="324"/>
	</contour>
  </outline>
</glyph>
<glyph name="aaMatra-deva" format="1">
  <advance width="274"/>
  <unicode hex="093E"/>
  <outline>
	<contour>
	  <point x="110" y="610" type="line"/>
	  <point x="110" y="0" type="line"/>
	  <point x="164" y="0" type="line"/>
	  <point x="164" y="610" type="line"/>
	</contour>
	<contour>
	  <point x="-10" y="634" type="line"/>
	  <point x="-10" y="590" type="line"/>
	  <point x="284" y="590" type="line"/>
	  <point x="284" y="634" type="line"/>
	</contour>
	<contour>
	  <point x="136" y="634" type="move" name="top"/>
	</contour>
	<contour>
	  <point x="136" y="0" type="move" name="bottom"/>
	</contour>
  </outline>
</glyph>
<glyph name="iMatra-deva" format="1">
  <advance width="274"/>
  <unicode hex="093F"/>
  <outline>
	<contour>
	  <point x="397" y="923" type="line"/>
	  <point x="201" y="923"/>
	  <point x="111" y="868"/>
	  <point x="111" y="695" type="curve" smooth="yes"/>
	  <point x="111" y="618" type="line"/>
	  <point x="165" y="618" type="line"/>
	  <point x="165" y="695" type="line" smooth="yes"/>
	  <point x="165" y="862"/>
	  <point x="254" y="879"/>
	  <point x="397" y="879" type="curve"/>
	  <point x="413" y="879" type="line"/>
	  <point x="555" y="879"/>
	  <point x="645" y="862"/>
	  <point x="645" y="695" type="curve" smooth="yes"/>
	  <point x="645" y="608" type="line"/>
	  <point x="699" y="608" type="line"/>
	  <point x="699" y="695" type="line"/>
	  <point x="696" y="868"/>
	  <point x="608" y="923"/>
	  <point x="413" y="923" type="curve"/>
	</contour>
	<contour>
	  <point x="111" y="610" type="line"/>
	  <point x="111" y="0" type="line"/>
	  <point x="165" y="0" type="line"/>
	  <point x="165" y="610" type="line"/>
	</contour>
	<contour>
	  <point x="-10" y="634" type="line"/>
	  <point x="-10" y="590" type="line"/>
	  <point x="285" y="590" type="line"/>
	  <point x="285" y="634" type="line"/>
	</contour>
	<contour>
	  <point x="699" y="608" type="move" name="imatra"/>
	</contour>
	<contour>
	  <point x="797" y="608" type="move" name="top"/>
	</contour>
  </outline>
</glyph>
<glyph name="iiMatra-deva" format="1">
  <advance width="274"/>
  <unicode hex="0940"/>
  <outline>
	<contour>
	  <point x="-119" y="923"/>
	  <point x="-164" y="876"/>
	  <point x="-164" y="725" type="curve"/>
	  <point x="-164" y="608" type="line"/>
	  <point x="-110" y="608" type="line"/>
	  <point x="-110" y="725" type="line" smooth="yes"/>
	  <point x="-110" y="865"/>
	  <point x="-74" y="879"/>
	  <point x="-11" y="879" type="curve"/>
	  <point x="11" y="879" type="line"/>
	  <point x="74" y="879"/>
	  <point x="110" y="865"/>
	  <point x="110" y="725" type="curve" smooth="yes"/>
	  <point x="110" y="618" type="line"/>
	  <point x="164" y="618" type="line"/>
	  <point x="164" y="725" type="line" smooth="yes"/>
	  <point x="164" y="876"/>
	  <point x="118" y="923"/>
	  <point x="11" y="923" type="curve"/>
	  <point x="-11" y="923" type="line"/>
	</contour>
	<contour>
	  <point x="110" y="0" type="line"/>
	  <point x="164" y="0" type="line"/>
	  <point x="164" y="610" type="line"/>
	  <point x="110" y="610" type="line"/>
	</contour>
	<contour>
	  <point x="-10" y="590" type="line"/>
	  <point x="284" y="590" type="line"/>
	  <point x="284" y="634" type="line"/>
	  <point x="-10" y="634" type="line"/>
	</contour>
	<contour>
	  <point x="-164" y="608" type="move" name="iimatra"/>
	</contour>
	<contour>
	  <point x="274" y="608" type="move" name="top"/>
	</contour>
  </outline>
</glyph>
<glyph name="uMatra-deva" format="1">
  <advance width="0"/>
  <unicode hex="0941"/>
  <outline>
	<contour>
	  <point x="-182" y="-43" type="line"/>
	  <point x="-128" y="-43" type="line"/>
	  <point x="-68" y="-43"/>
	  <point x="-33" y="-75"/>
	  <point x="-33" y="-131" type="curve"/>
	  <point x="-33" y="-190"/>
	  <point x="-74" y="-223"/>
	  <point x="-150" y="-223" type="curve"/>
	  <point x="-259" y="-223"/>
	  <point x="-343" y="-171"/>
	  <point x="-413" y="-108" type="curve"/>
	  <point x="-442" y="-139" type="line"/>
	  <point x="-378" y="-195"/>
	  <point x="-287" y="-267"/>
	  <point x="-150" y="-267" type="curve"/>
	  <point x="-49" y="-267"/>
	  <point x="21" y="-223"/>
	  <point x="21" y="-131" type="curve"/>
	  <point x="19" y="-46"/>
	  <point x="-41" y="1"/>
	  <point x="-128" y="1" type="curve"/>
	  <point x="-182" y="1" type="line"/>
	</contour>
	<contour>
	  <point x="-156" y="0" type="move" name="_bottom"/>
	</contour>
  </outline>
</glyph>
<glyph name="uuMatra-deva" format="1">
  <advance width="0"/>
  <unicode hex="0942"/>
  <outline>
	<contour>
	  <point x="-124" y="-219" type="line"/>
	  <point x="-178" y="-219" type="line"/>
	  <point x="-238" y="-219"/>
	  <point x="-273" y="-187"/>
	  <point x="-273" y="-131" type="curve"/>
	  <point x="-273" y="-72"/>
	  <point x="-232" y="-39"/>
	  <point x="-156" y="-39" type="curve"/>
	  <point x="-28" y="-39"/>
	  <point x="39" y="-144"/>
	  <point x="111" y="-254" type="curve"/>
	  <point x="146" y="-229" type="line"/>
	  <point x="78" y="-119"/>
	  <point x="-6" y="5"/>
	  <point x="-156" y="5" type="curve"/>
	  <point x="-257" y="5"/>
	  <point x="-327" y="-39"/>
	  <point x="-327" y="-131" type="curve"/>
	  <point x="-325" y="-216"/>
	  <point x="-265" y="-263"/>
	  <point x="-178" y="-263" type="curve"/>
	  <point x="-124" y="-263" type="line"/>
	</contour>
	<contour>
	  <point x="-156" y="0" type="move" name="_bottom"/>
	</contour>
  </outline>
</glyph>
<glyph name="eCandraMatra-deva" format="1">
  <advance width="0"/>
  <unicode hex="0945"/>
  <outline>
	<contour>
	  <point x="-30" y="710"/>
	  <point x="41" y="764"/>
	  <point x="41" y="859" type="curve"/>
	  <point x="41" y="869" type="line"/>
	  <point x="-3" y="869" type="line"/>
	  <point x="-3" y="859" type="line"/>
	  <point x="-3" y="794"/>
	  <point x="-47" y="754"/>
	  <point x="-138" y="754" type="curve" smooth="yes"/>
	  <point x="-229" y="754"/>
	  <point x="-273" y="794"/>
	  <point x="-273" y="859" type="curve"/>
	  <point x="-273" y="869" type="line"/>
	  <point x="-317" y="869" type="line"/>
	  <point x="-317" y="859" type="line"/>
	  <point x="-317" y="764"/>
	  <point x="-246" y="710"/>
	  <point x="-138" y="710" type="curve" smooth="yes"/>
	</contour>
	<contour>
	  <point x="-138" y="784" type="move" name="top"/>
	</contour>
	<contour>
	  <point x="-138" y="634" type="move" name="_top"/>
	</contour>
  </outline>
</glyph>
<glyph name="eShortMatra-deva" format="1">
  <advance width="600"/>
  <unicode hex="0946"/>
  <outline>
	<contour>
	  <point x="-591" y="837"/>
	  <point x="-600" y="875"/>
	  <point x="-600" y="956" type="curve" smooth="yes"/>
	  <point x="-600" y="971" type="line"/>
	  <point x="-654" y="971" type="line"/>
	  <point x="-654" y="956" type="line" smooth="yes"/>
	  <point x="-654" y="844"/>
	  <point x="-614" y="793"/>
	  <point x="-463" y="793" type="curve" smooth="yes"/>
	  <point x="-296" y="793" type="line" smooth="yes"/>
	  <point x="-181" y="793"/>
	  <point x="-164" y="755"/>
	  <point x="-164" y="674" type="curve" smooth="yes"/>
	  <point x="-164" y="624" type="line"/>
	  <point x="-110" y="624" type="line"/>
	  <point x="-110" y="674" type="line" smooth="yes"/>
	  <point x="-110" y="786"/>
	  <point x="-138" y="837"/>
	  <point x="-296" y="837" type="curve" smooth="yes"/>
	  <point x="-463" y="837" type="line"/>
	</contour>
	<contour>
	  <point x="-138" y="634" type="move" name="_top"/>
	</contour>
  </outline>
</glyph>
<glyph name="eMatra-deva" format="1">
  <advance width="0"/>
  <unicode hex="0947"/>
  <outline>
	<contour>
	  <point x="-109" y="624" type="line"/>
	  <point x="-142" y="769" type="line" smooth="yes"/>
	  <point x="-168" y="884"/>
	  <point x="-217" y="903"/>
	  <point x="-317" y="903" type="curve" smooth="yes"/>
	  <point x="-392" y="903" type="line"/>
	  <point x="-392" y="859" type="line"/>
	  <point x="-317" y="859" type="line"/>
	  <point x="-245" y="859"/>
	  <point x="-212" y="841"/>
	  <point x="-196" y="769" type="curve" smooth="yes"/>
	  <point x="-163" y="624" type="line"/>
	</contour>
	<contour>
	  <point x="-42" y="634" type="move" name="top"/>
	</contour>
	<contour>
	  <point x="-138" y="634" type="move" name="_top"/>
	</contour>
  </outline>
</glyph>
<glyph name="aiMatra-deva" format="1">
  <advance width="0"/>
  <unicode hex="0948"/>
  <outline>
	<contour>
	  <point x="-109" y="624" type="line"/>
	  <point x="-160" y="850" type="line" smooth="yes"/>
	  <point x="-186" y="965"/>
	  <point x="-235" y="984"/>
	  <point x="-335" y="984" type="curve" smooth="yes"/>
	  <point x="-410" y="984" type="line"/>
	  <point x="-410" y="940" type="line"/>
	  <point x="-335" y="940" type="line"/>
	  <point x="-263" y="940"/>
	  <point x="-230" y="922"/>
	  <point x="-214" y="850" type="curve" smooth="yes"/>
	  <point x="-163" y="624" type="line"/>
	</contour>
	<contour>
	  <point x="-116" y="624" type="line"/>
	  <point x="-171" y="699" type="line" smooth="yes"/>
	  <point x="-247" y="802"/>
	  <point x="-274" y="834"/>
	  <point x="-415" y="834" type="curve" smooth="yes"/>
	  <point x="-500" y="834" type="line"/>
	  <point x="-500" y="790" type="line"/>
	  <point x="-415" y="790" type="line"/>
	  <point x="-308" y="790"/>
	  <point x="-272" y="761"/>
	  <point x="-223" y="699" type="curve" smooth="yes"/>
	  <point x="-163" y="624" type="line"/>
	</contour>
	<contour>
	  <point x="-37" y="634" type="move" name="top"/>
	</contour>
	<contour>
	  <point x="-138" y="634" type="move" name="_top"/>
	</contour>
  </outline>
</glyph>
<glyph name="halant-deva" format="1">
  <advance width="0"/>
  <unicode hex="094D"/>
  <outline>
	<contour>
	  <point x="11" y="-253" type="line"/>
	  <point x="-191" y="-97" type="line"/>
	  <point x="-158" y="-60" type="line"/>
	  <point x="44" y="-216" type="line"/>
	</contour>
	<contour>
	  <point x="-156" y="0" type="move" name="_bottom"/>
	</contour>
  </outline>
</glyph>
<glyph name="prishthaMatraE-deva" format="1">
  <advance width="247"/>
  <unicode hex="094E"/>
  <outline>
	<contour>
	  <point x="83" y="610" type="line"/>
	  <point x="83" y="0" type="line"/>
	  <point x="137" y="0" type="line"/>
	  <point x="137" y="610" type="line"/>
	</contour>
	<contour>
	  <point x="83" y="634" type="line"/>
	  <point x="83" y="590" type="line"/>
	  <point x="257" y="590" type="line"/>
	  <point x="257" y="634" type="line"/>
	</contour>
  </outline>
</glyph>
<glyph name="udatta-deva" format="1">
  <advance width="0"/>
  <unicode hex="0951"/>
  <outline>
	<contour>
	  <point x="-164" y="739" type="line"/>
	  <point x="-110" y="739" type="line"/>
	  <point x="-110" y="1002" type="line"/>
	  <point x="-164" y="1002" type="line"/>
	</contour>
	<contour>
	  <point x="-138" y="634" type="move" name="_top"/>
	</contour>
  </outline>
</glyph>
<glyph name="grave-deva" format="1">
  <advance width="0"/>
  <unicode hex="0953"/>
  <outline>
	<contour>
	  <point x="-220" y="766" type="line"/>
	  <point x="-167" y="766" type="line"/>
	  <point x="-322" y="991" type="line"/>
	  <point x="-399" y="991" type="line"/>
	</contour>
	<contour>
	  <point x="-153" y="650" type="move" name="_top"/>
	</contour>
  </outline>
</glyph>
<glyph name="acute-deva" format="1">
  <advance width="0"/>
  <unicode hex="0954"/>
  <outline>
	<contour>
	  <point x="-26" y="991" type="line"/>
	  <point x="-181" y="766" type="line"/>
	  <point x="-128" y="766" type="line"/>
	  <point x="51" y="991" type="line"/>
	</contour>
	<contour>
	  <point x="-153" y="650" type="move" name="_top"/>
	</contour>
  </outline>
</glyph>
<glyph name="ueMatra-deva" format="1">
  <advance width="0"/>
  <unicode hex="0956"/>
  <outline>
	<contour>
	  <point x="-226" y="-145"/>
	  <point x="-282" y="-101"/>
	  <point x="-318" y="-51" type="curve"/>
	  <point x="-350" y="-76" type="line"/>
	  <point x="-311" y="-138"/>
	  <point x="-240" y="-190"/>
	  <point x="-138" y="-190" type="curve" smooth="yes"/>
	  <point x="-37" y="-190"/>
	  <point x="35" y="-138"/>
	  <point x="74" y="-76" type="curve"/>
	  <point x="42" y="-51" type="line"/>
	  <point x="6" y="-101"/>
	  <point x="-50" y="-145"/>
	  <point x="-138" y="-146" type="curve"/>
	</contour>
	<contour>
	  <point x="-138" y="0" type="move" name="_bottom"/>
	</contour>
  </outline>
</glyph>
<glyph name="uueMatra-deva" format="1">
  <advance width="0"/>
  <unicode hex="0957"/>
  <outline>
	<contour>
	  <point x="-226" y="-145"/>
	  <point x="-282" y="-101"/>
	  <point x="-318" y="-51" type="curve"/>
	  <point x="-350" y="-76" type="line"/>
	  <point x="-311" y="-138"/>
	  <point x="-240" y="-190"/>
	  <point x="-138" y="-190" type="curve" smooth="yes"/>
	  <point x="-37" y="-190"/>
	  <point x="35" y="-138"/>
	  <point x="74" y="-76" type="curve"/>
	  <point x="42" y="-51" type="line"/>
	  <point x="6" y="-101"/>
	  <point x="-50" y="-145"/>
	  <point x="-138" y="-146" type="curve"/>
	</contour>
	<contour>
	  <point x="-226" y="-305"/>
	  <point x="-282" y="-261"/>
	  <point x="-318" y="-211" type="curve"/>
	  <point x="-350" y="-236" type="line"/>
	  <point x="-311" y="-298"/>
	  <point x="-240" y="-350"/>
	  <point x="-138" y="-350" type="curve" smooth="yes"/>
	  <point x="-37" y="-350"/>
	  <point x="35" y="-298"/>
	  <point x="74" y="-236" type="curve"/>
	  <point x="42" y="-211" type="line"/>
	  <point x="6" y="-261"/>
	  <point x="-50" y="-305"/>
	  <point x="-138" y="-306" type="curve"/>
	</contour>
	<contour>
	  <point x="-138" y="0" type="move" name="_bottom"/>
	</contour>
  </outline>
</glyph>
<glyph name="rrVocalic-deva" format="1">
  <advance width="796"/>
  <unicode hex="0960"/>
  <outline>
	<contour>
	  <point x="69" y="37" type="line"/>
	  <point x="102" y="0" type="line"/>
	  <point x="433" y="295" type="line"/>
	  <point x="401" y="333" type="line"/>
	</contour>
	<contour>
	  <point x="173" y="456"/>
	  <point x="107" y="439"/>
	  <point x="60" y="428" type="curve"/>
	  <point x="60" y="377" type="line"/>
	  <point x="106" y="388"/>
	  <point x="172" y="406"/>
	  <point x="211" y="406" type="curve" smooth="yes"/>
	  <point x="273" y="406"/>
	  <point x="324" y="382"/>
	  <point x="391" y="312" type="curve"/>
	  <point x="390" y="372" type="line"/>
	  <point x="326" y="430"/>
	  <point x="282" y="456"/>
	  <point x="211" y="456" type="curve" smooth="yes"/>
	</contour>
	<contour>
	  <point x="423" y="341" type="line"/>
	  <point x="423" y="297" type="line"/>
	  <point x="634" y="297" type="line"/>
	  <point x="634" y="341" type="line"/>
	</contour>
	<contour>
	  <point x="580" y="341" type="line"/>
	  <point x="634" y="341" type="line"/>
	  <point x="634" y="477" type="line"/>
	  <point x="580" y="477" type="line"/>
	</contour>
	<contour>
	  <point x="-10" y="634" type="line"/>
	  <point x="-10" y="590" type="line"/>
	  <point x="386" y="590" type="line"/>
	  <point x="386" y="0" type="line"/>
	  <point x="440" y="0" type="line"/>
	  <point x="440" y="590" type="line"/>
	  <point x="806" y="590" type="line"/>
	  <point x="806" y="634" type="line"/>
	</contour>
	<contour>
	  <point x="634" y="339" type="line"/>
	  <point x="598" y="302" type="line"/>
	  <point x="679" y="144" type="line"/>
	  <point x="715" y="181" type="line"/>
	</contour>
	<contour>
	  <point x="635" y="117"/>
	  <point x="652" y="139"/>
	  <point x="708" y="139" type="curve" smooth="yes"/>
	  <point x="729" y="139"/>
	  <point x="745" y="137"/>
	  <point x="758" y="134" type="curve"/>
	  <point x="758" y="178" type="line"/>
	  <point x="744" y="181"/>
	  <point x="726" y="183"/>
	  <point x="708" y="183" type="curve" smooth="yes"/>
	  <point x="613" y="183"/>
	  <point x="581" y="148"/>
	  <point x="581" y="81" type="curve" smooth="yes"/>
	  <point x="581" y="24"/>
	  <point x="611" y="-21"/>
	  <point x="733" y="-21" type="curve" smooth="yes"/>
	  <point x="778" y="-21" type="line"/>
	  <point x="778" y="23" type="line"/>
	  <point x="733" y="23" type="line" smooth="yes"/>
	  <point x="652" y="23"/>
	  <point x="635" y="45"/>
	  <point x="635" y="81" type="curve" smooth="yes"/>
	</contour>
	<contour>
	  <point x="660" y="-40"/>
	  <point x="690" y="-21"/>
	  <point x="738" y="-21" type="curve" smooth="yes"/>
	  <point x="758" y="-21" type="line"/>
	  <point x="758" y="23" type="line"/>
	  <point x="738" y="23" type="line" smooth="yes"/>
	  <point x="645" y="23"/>
	  <point x="606" y="-18"/>
	  <point x="606" y="-84" type="curve" smooth="yes"/>
	  <point x="606" y="-159"/>
	  <point x="652" y="-191"/>
	  <point x="748" y="-191" type="curve" smooth="yes"/>
	  <point x="781" y="-191"/>
	  <point x="815" y="-185"/>
	  <point x="848" y="-167" type="curve"/>
	  <point x="848" y="-116" type="line"/>
	  <point x="815" y="-139"/>
	  <point x="783" y="-147"/>
	  <point x="748" y="-147" type="curve" smooth="yes"/>
	  <point x="693" y="-147"/>
	  <point x="660" y="-131"/>
	  <point x="660" y="-84" type="curve" smooth="yes"/>
	</contour>
  </outline>
</glyph>
<glyph name="llVocalic-deva" format="1">
  <advance width="769"/>
  <unicode hex="0961"/>
  <outline>
	<contour>
	  <point x="597" y="-223"/>
	  <point x="564" y="-207"/>
	  <point x="564" y="-160" type="curve" smooth="yes"/>
	  <point x="564" y="-127"/>
	  <point x="578" y="-104"/>
	  <point x="605" y="-89" type="curve"/>
	  <point x="582" y="-92" type="line"/>
	  <point x="593" y="-95"/>
	  <point x="614" y="-97"/>
	  <point x="631" y="-97" type="curve" smooth="yes"/>
	  <point x="655" y="-97"/>
	  <point x="670" y="-94"/>
	  <point x="682" y="-91" type="curve"/>
	  <point x="682" y="-44" type="line"/>
	  <point x="665" y="-49"/>
	  <point x="648" y="-53"/>
	  <point x="630" y="-53" type="curve"/>
	  <point x="561" y="-53"/>
	  <point x="538" y="-24"/>
	  <point x="539" y="12" type="curve" smooth="yes"/>
	  <point x="542" y="90"/>
	  <point x="700" y="157"/>
	  <point x="700" y="295" type="curve" smooth="yes"/>
	  <point x="700" y="368"/>
	  <point x="646" y="430"/>
	  <point x="542" y="430" type="curve" smooth="yes"/>
	  <point x="423" y="430"/>
	  <point x="364" y="350"/>
	  <point x="364" y="237" type="curve" smooth="yes"/>
	  <point x="364" y="198" type="line"/>
	  <point x="418" y="198" type="line"/>
	  <point x="418" y="237" type="line" smooth="yes"/>
	  <point x="420" y="329"/>
	  <point x="460" y="386"/>
	  <point x="542" y="386" type="curve" smooth="yes"/>
	  <point x="608" y="386"/>
	  <point x="646" y="356"/>
	  <point x="646" y="295" type="curve" smooth="yes"/>
	  <point x="646" y="168"/>
	  <point x="488" y="115"/>
	  <point x="485" y="12" type="curve" smooth="yes"/>
	  <point x="484" y="-29"/>
	  <point x="510" y="-69"/>
	  <point x="564" y="-87" type="curve"/>
	  <point x="559" y="-69" type="line"/>
	  <point x="525" y="-87"/>
	  <point x="510" y="-119"/>
	  <point x="510" y="-160" type="curve" smooth="yes"/>
	  <point x="510" y="-235"/>
	  <point x="556" y="-267"/>
	  <point x="652" y="-267" type="curve" smooth="yes"/>
	  <point x="685" y="-267"/>
	  <point x="719" y="-261"/>
	  <point x="752" y="-243" type="curve"/>
	  <point x="752" y="-192" type="line"/>
	  <point x="719" y="-215"/>
	  <point x="687" y="-223"/>
	  <point x="652" y="-223" type="curve" smooth="yes"/>
	</contour>
	<contour>
	  <point x="-10" y="634" type="line"/>
	  <point x="-10" y="590" type="line"/>
	  <point x="515" y="590" type="line"/>
	  <point x="515" y="400" type="line"/>
	  <point x="569" y="400" type="line"/>
	  <point x="569" y="590" type="line"/>
	  <point x="779" y="590" type="line"/>
	  <point x="779" y="634" type="line"/>
	</contour>
	<contour>
	  <point x="418" y="350"/>
	  <point x="359" y="430"/>
	  <point x="240" y="430" type="curve"/>
	  <point x="121" y="430"/>
	  <point x="62" y="350"/>
	  <point x="62" y="237" type="curve" smooth="yes"/>
	  <point x="62" y="122"/>
	  <point x="120" y="0"/>
	  <point x="320" y="0" type="curve" smooth="yes"/>
	  <point x="332" y="0" type="line"/>
	  <point x="332" y="44" type="line"/>
	  <point x="320" y="44" type="line" smooth="yes"/>
	  <point x="152" y="44"/>
	  <point x="119" y="142"/>
	  <point x="116" y="237" type="curve"/>
	  <point x="118" y="329"/>
	  <point x="158" y="386"/>
	  <point x="240" y="386" type="curve"/>
	  <point x="322" y="386"/>
	  <point x="362" y="329"/>
	  <point x="364" y="237" type="curve"/>
	  <point x="364" y="198" type="line"/>
	  <point x="418" y="198" type="line"/>
	  <point x="418" y="237" type="line"/>
	</contour>
  </outline>
</glyph>
<glyph name="lVocalicMatra-deva" format="1">
  <advance width="0"/>
  <unicode hex="0962"/>
  <outline>
	<contour>
	  <point x="-164" y="70" type="line"/>
	  <point x="-164" y="-120" type="line"/>
	  <point x="-110" y="-120" type="line"/>
	  <point x="-110" y="70" type="line"/>
	</contour>
	<contour>
	  <point x="-214" y="-138"/>
	  <point x="-255" y="-83"/>
	  <point x="-338" y="-83" type="curve"/>
	  <point x="-422" y="-83"/>
	  <point x="-463" y="-138"/>
	  <point x="-463" y="-218" type="curve" smooth="yes"/>
	  <point x="-463" y="-297"/>
	  <point x="-423" y="-382"/>
	  <point x="-285" y="-382" type="curve" smooth="yes"/>
	  <point x="-277" y="-382" type="line"/>
	  <point x="-277" y="-340" type="line"/>
	  <point x="-285" y="-340" type="line" smooth="yes"/>
	  <point x="-392" y="-340"/>
	  <point x="-413" y="-278"/>
	  <point x="-415" y="-218" type="curve"/>
	  <point x="-414" y="-160"/>
	  <point x="-389" y="-124"/>
	  <point x="-338" y="-124" type="curve"/>
	  <point x="-288" y="-124"/>
	  <point x="-263" y="-160"/>
	  <point x="-262" y="-218" type="curve"/>
	  <point x="-262" y="-250" type="line"/>
	  <point x="-214" y="-250" type="line"/>
	  <point x="-214" y="-218" type="line"/>
	</contour>
	<contour>
	  <point x="-262" y="-250" type="line"/>
	  <point x="-214" y="-250" type="line"/>
	  <point x="-214" y="-218" type="line"/>
	  <point x="-214" y="-160"/>
	  <point x="-188" y="-124"/>
	  <point x="-137" y="-124" type="curve" smooth="yes"/>
	  <point x="-97" y="-124"/>
	  <point x="-74" y="-142"/>
	  <point x="-74" y="-179" type="curve" smooth="yes"/>
	  <point x="-74" y="-264"/>
	  <point x="-181" y="-299"/>
	  <point x="-181" y="-368" type="curve" smooth="yes"/>
	  <point x="-181" y="-407"/>
	  <point x="-148" y="-446"/>
	  <point x="-78" y="-446" type="curve" smooth="yes"/>
	  <point x="-44" y="-446"/>
	  <point x="-21" y="-437"/>
	  <point x="0" y="-422" type="curve"/>
	  <point x="0" y="-377" type="line"/>
	  <point x="-19" y="-390"/>
	  <point x="-50" y="-405"/>
	  <point x="-78" y="-405" type="curve" smooth="yes"/>
	  <point x="-119" y="-405"/>
	  <point x="-133" y="-389"/>
	  <point x="-133" y="-368" type="curve" smooth="yes"/>
	  <point x="-133" y="-316"/>
	  <point x="-26" y="-271"/>
	  <point x="-26" y="-179" type="curve" smooth="yes"/>
	  <point x="-26" y="-127"/>
	  <point x="-64" y="-83"/>
	  <point x="-137" y="-83" type="curve" smooth="yes"/>
	  <point x="-220" y="-83"/>
	  <point x="-262" y="-138"/>
	  <point x="-262" y="-218" type="curve"/>
	</contour>
	<contour>
	  <point x="-137" y="0" type="move" name="_bottom"/>
	</contour>
  </outline>
</glyph>
